<svg width="41" height="40" viewBox="0 0 41 40" fill="none" xmlns="http://www.w3.org/2000/svg">
<path d="M7.76685 18.3666V26.6499C7.76685 29.6832 7.76685 29.6832 10.6335 31.6166L18.5168 36.1666C19.7002 36.8499 21.6335 36.8499 22.8168 36.1666L30.7002 31.6166C33.5668 29.6832 33.5668 29.6832 33.5668 26.6499V18.3666C33.5668 15.3332 33.5668 15.3332 30.7002 13.3999L22.8168 8.8499C21.6335 8.16657 19.7002 8.16657 18.5168 8.8499L10.6335 13.3999C7.76685 15.3332 7.76685 15.3332 7.76685 18.3666Z" stroke="#FCFCFD" stroke-width="2" stroke-linecap="round" stroke-linejoin="round"/>
<path d="M29.8333 12.7166V8.33325C29.8333 4.99992 28.1667 3.33325 24.8333 3.33325H16.5C13.1667 3.33325 11.5 4.99992 11.5 8.33325V12.5999" stroke="#FCFCFD" stroke-width="2" stroke-linecap="round" stroke-linejoin="round"/>
<path d="M21.7167 18.3166L22.6667 19.7999C22.8167 20.0333 23.15 20.2666 23.4 20.3333L25.1 20.7666C26.15 21.0333 26.4334 21.9333 25.75 22.7666L24.6334 24.1166C24.4667 24.3333 24.3334 24.7166 24.35 24.9833L24.45 26.7333C24.5167 27.8166 23.75 28.3666 22.75 27.9666L21.1167 27.3166C20.8667 27.2166 20.45 27.2166 20.2 27.3166L18.5667 27.9666C17.5667 28.3666 16.8 27.7999 16.8667 26.7333L16.9667 24.9833C16.9834 24.7166 16.85 24.3166 16.6834 24.1166L15.5667 22.7666C14.8834 21.9333 15.1667 21.0333 16.2167 20.7666L17.9167 20.3333C18.1834 20.2666 18.5167 20.0166 18.65 19.7999L19.6 18.3166C20.2 17.4166 21.1334 17.4166 21.7167 18.3166Z" stroke="#FCFCFD" stroke-width="2" stroke-linecap="round" stroke-linejoin="round"/>
</svg>
