<svg width="40" height="40" viewBox="0 0 40 40" fill="none" xmlns="http://www.w3.org/2000/svg">
<path d="M21.6666 36.6667H8.33325C4.99992 36.6667 3.33325 35 3.33325 31.6667V18.3334C3.33325 15 4.99992 13.3334 8.33325 13.3334H16.6666V31.6667C16.6666 35 18.3333 36.6667 21.6666 36.6667Z" fill="#FDF0E8" stroke="#A64814" stroke-width="2" stroke-miterlimit="10" stroke-linecap="round" stroke-linejoin="round"/>
<path d="M16.8499 6.66663C16.7166 7.16663 16.6666 7.71663 16.6666 8.33329V13.3333H8.33325V9.99996C8.33325 8.16663 9.83325 6.66663 11.6666 6.66663H16.8499Z" fill="#FDF0E8" stroke="#A64814" stroke-width="2" stroke-miterlimit="10" stroke-linecap="round" stroke-linejoin="round"/>
<path d="M16.6667 31.6667V8.33337C16.6667 5.00004 18.3334 3.33337 21.6667 3.33337H31.6667C35.0001 3.33337 36.6667 5.00004 36.6667 8.33337V31.6667C36.6667 35 35.0001 36.6667 31.6667 36.6667H21.6667C18.3334 36.6667 16.6667 35 16.6667 31.6667Z" fill="#FDF0E8" stroke="#A64814" stroke-width="2" stroke-miterlimit="10" stroke-linecap="round" stroke-linejoin="round"/>
<path d="M28.3333 28.3334H24.9999C24.0833 28.3334 23.3333 29.0834 23.3333 30V36.6667H29.9999V30C29.9999 29.0834 29.2499 28.3334 28.3333 28.3334Z" fill="#FDF0E8" stroke="#A64814" stroke-width="2" stroke-miterlimit="10" stroke-linecap="round" stroke-linejoin="round"/>
<path d="M23.3333 13.3334V21.6667" stroke="#A64814" stroke-width="2" stroke-miterlimit="10" stroke-linecap="round" stroke-linejoin="round"/>
<path d="M30 13.3334V21.6667" stroke="#A64814" stroke-width="2" stroke-miterlimit="10" stroke-linecap="round" stroke-linejoin="round"/>
<path d="M10 21.6666V28.3333" stroke="#A64814" stroke-width="2" stroke-miterlimit="10" stroke-linecap="round" stroke-linejoin="round"/>
</svg>
