<svg width="40" height="40" viewBox="0 0 40 40" fill="none" xmlns="http://www.w3.org/2000/svg">
<path d="M27.8334 31.6333H12.1668C11.4668 31.6333 10.6834 31.0833 10.4501 30.4167L3.55009 11.1167C2.56675 8.35002 3.71675 7.50002 6.08342 9.20002L12.5834 13.85C13.6668 14.6 14.9001 14.2167 15.3668 13L18.3001 5.18335C19.2334 2.68335 20.7834 2.68335 21.7168 5.18335L24.6501 13C25.1168 14.2167 26.3501 14.6 27.4168 13.85L33.5168 9.50002C36.1168 7.63335 37.3668 8.58335 36.3001 11.6L29.5668 30.45C29.3168 31.0834 28.5334 31.6333 27.8334 31.6333Z" stroke="#FCFCFD" stroke-width="2" stroke-linecap="round" stroke-linejoin="round"/>
<path d="M10.8333 36.6667H29.1666" stroke="#FCFCFD" stroke-width="2" stroke-linecap="round" stroke-linejoin="round"/>
<path d="M15.8333 23.3333H24.1666" stroke="#FCFCFD" stroke-width="2" stroke-linecap="round" stroke-linejoin="round"/>
</svg>
