<svg width="41" height="40" viewBox="0 0 41 40" fill="none" xmlns="http://www.w3.org/2000/svg">
<path fill-rule="evenodd" clip-rule="evenodd" d="M0.5 20C0.5 8.95431 9.45431 0 20.5 0C31.5456 0 40.5 8.95431 40.5 20C40.5 31.0456 31.5456 40 20.5 40C9.45431 40 0.5 31.0456 0.5 20ZM20.5 2.35294C14.0741 2.35294 8.45038 5.78751 5.36442 10.9211L11.8368 17.6544C13.7753 19.6708 17.1772 18.7386 17.8172 16.0158L18.0649 14.9615C19.1736 10.2433 21.9581 6.08833 25.9005 3.26899L25.972 3.21774C24.2492 2.6564 22.4101 2.35294 20.5 2.35294ZM2.85294 20C2.85294 17.5675 3.34508 15.25 4.23522 13.1416L10.1405 19.2849C13.3712 22.6456 19.0412 21.0922 20.1078 16.5541L20.3555 15.4998C21.3339 11.3367 23.7906 7.67054 27.2692 5.18287L28.6285 4.33235C33.9605 7.10426 37.6991 12.5181 38.1094 18.8393C37.9927 18.8289 37.8744 18.8235 37.7548 18.8235C35.2461 18.8235 33.4412 21.0645 33.4412 23.5294C33.4412 25.4696 34.5595 27.2711 36.2591 27.9501C33.3513 33.7028 27.3864 37.6471 20.5 37.6471C10.7538 37.6471 2.85294 29.7461 2.85294 20ZM37.1807 25.7741C37.6805 24.3301 37.9981 22.8009 38.1059 21.2144C37.9915 21.1892 37.8741 21.1765 37.7548 21.1765C36.7984 21.1765 35.7941 22.0958 35.7941 23.5294C35.7941 24.6748 36.4353 25.492 37.1807 25.7741Z" fill="#FCFCFD"/>
</svg>
