<svg width="40" height="40" viewBox="0 0 40 40" fill="none" xmlns="http://www.w3.org/2000/svg">
<path d="M30 11.9334C29.9 11.9167 29.7834 11.9167 29.6834 11.9334C27.3834 11.85 25.55 9.96671 25.55 7.63338C25.55 5.25004 27.4667 3.33337 29.85 3.33337C32.2334 3.33337 34.15 5.26671 34.15 7.63338C34.1334 9.96671 32.3 11.85 30 11.9334Z" fill="#FDF0E8" stroke="#A64814" stroke-width="2" stroke-linecap="round" stroke-linejoin="round"/>
<path d="M28.2834 24.0667C30.5667 24.4501 33.0834 24.0501 34.8501 22.8667C37.2001 21.3001 37.2001 18.7334 34.8501 17.1667C33.0667 15.9834 30.5167 15.5834 28.2334 15.9834" stroke="#A64814" stroke-width="2" stroke-linecap="round" stroke-linejoin="round"/>
<path d="M9.94981 11.9334C10.0498 11.9167 10.1665 11.9167 10.2665 11.9334C12.5665 11.85 14.3998 9.96671 14.3998 7.63338C14.3998 5.25004 12.4831 3.33337 10.0998 3.33337C7.71647 3.33337 5.7998 5.26671 5.7998 7.63338C5.81647 9.96671 7.64981 11.85 9.94981 11.9334Z" fill="#FDF0E8" stroke="#A64814" stroke-width="2" stroke-linecap="round" stroke-linejoin="round"/>
<path d="M11.6666 24.0667C9.38323 24.4501 6.86657 24.0501 5.0999 22.8667C2.7499 21.3001 2.7499 18.7334 5.0999 17.1667C6.88324 15.9834 9.43323 15.5834 11.7166 15.9834" stroke="#A64814" stroke-width="2" stroke-linecap="round" stroke-linejoin="round"/>
<path d="M20 24.3833C19.9 24.3667 19.7834 24.3667 19.6834 24.3833C17.3834 24.3 15.55 22.4167 15.55 20.0833C15.55 17.7 17.4667 15.7833 19.85 15.7833C22.2334 15.7833 24.15 17.7167 24.15 20.0833C24.1334 22.4167 22.3 24.3167 20 24.3833Z" fill="#FDF0E8" stroke="#A64814" stroke-width="2" stroke-linecap="round" stroke-linejoin="round"/>
<path d="M15.15 29.6333C12.8 31.2 12.8 33.7667 15.15 35.3333C17.8166 37.1167 22.1833 37.1167 24.85 35.3333C27.2 33.7667 27.2 31.2 24.85 29.6333C22.2 27.8667 17.8166 27.8667 15.15 29.6333Z" fill="#FDF0E8" stroke="#A64814" stroke-width="2" stroke-linecap="round" stroke-linejoin="round"/>
</svg>
