<svg width="41" height="40" viewBox="0 0 41 40" fill="none" xmlns="http://www.w3.org/2000/svg">
<path d="M15.6003 18.1166C15.4336 18.0999 15.2336 18.0999 15.0503 18.1166C11.0836 17.9833 7.93359 14.7333 7.93359 10.7333C7.93359 6.64992 11.2336 3.33325 15.3336 3.33325C19.4169 3.33325 22.7336 6.64992 22.7336 10.7333C22.7169 14.7333 19.5669 17.9833 15.6003 18.1166Z" stroke="#FCFCFD" stroke-width="2" stroke-linecap="round" stroke-linejoin="round"/>
<path d="M27.6835 6.66675C30.9168 6.66675 33.5168 9.28341 33.5168 12.5001C33.5168 15.6501 31.0168 18.2167 27.9001 18.3334C27.7668 18.3167 27.6168 18.3167 27.4668 18.3334" stroke="#FCFCFD" stroke-width="2" stroke-linecap="round" stroke-linejoin="round"/>
<path d="M7.26694 24.2667C3.23361 26.9667 3.23361 31.3667 7.26694 34.0501C11.8503 37.1167 19.3669 37.1167 23.9503 34.0501C27.9836 31.3501 27.9836 26.9501 23.9503 24.2667C19.3836 21.2167 11.8669 21.2167 7.26694 24.2667Z" stroke="#FCFCFD" stroke-width="2" stroke-linecap="round" stroke-linejoin="round"/>
<path d="M30.9001 33.3333C32.1001 33.0833 33.2335 32.5999 34.1668 31.8833C36.7668 29.9333 36.7668 26.7166 34.1668 24.7666C33.2501 24.0666 32.1335 23.5999 30.9501 23.3333" stroke="#FCFCFD" stroke-width="2" stroke-linecap="round" stroke-linejoin="round"/>
</svg>
