<svg width="36" height="36" viewBox="0 0 36 36" fill="none" xmlns="http://www.w3.org/2000/svg">
<path d="M18.9899 3.7772L18.9449 3.8822L14.5949 13.9772H10.3199C9.29994 13.9772 8.32494 14.1872 7.43994 14.5622L10.0649 8.2922L10.1249 8.1422L10.2299 7.9022C10.2599 7.8122 10.2899 7.7222 10.3349 7.6472C12.2999 3.1022 14.5199 2.0672 18.9899 3.7772Z" stroke="#A64814" stroke-width="2" stroke-linecap="round" stroke-linejoin="round"/>
<path d="M27.075 14.2773C26.4 14.0673 25.68 13.9773 24.96 13.9773H14.595L18.945 3.88234L18.99 3.77734C19.215 3.85234 19.425 3.95734 19.65 4.04734L22.965 5.44234C24.81 6.20734 26.1 7.00234 26.88 7.96234C27.03 8.14234 27.15 8.30734 27.255 8.50234C27.39 8.71234 27.495 8.92234 27.555 9.14734C27.615 9.28234 27.66 9.41734 27.69 9.53734C28.095 10.7973 27.855 12.3423 27.075 14.2773Z" fill="#FDF0E8" stroke="#A64814" stroke-width="2" stroke-linecap="round" stroke-linejoin="round"/>
<path d="M32.2826 21.2966V24.2216C32.2826 24.5216 32.2676 24.8216 32.2526 25.1216C31.9676 30.3566 29.0426 32.9966 23.4926 32.9966H11.7926C11.4326 32.9966 11.0726 32.9666 10.7276 32.9216C5.95758 32.6066 3.40758 30.0566 3.09258 25.2866C3.04758 24.9416 3.01758 24.5816 3.01758 24.2216V21.2966C3.01758 18.2816 4.84758 15.6866 7.45758 14.5616C8.35758 14.1866 9.31758 13.9766 10.3376 13.9766H24.9776C25.7126 13.9766 26.4326 14.0816 27.0926 14.2766C30.0776 15.1916 32.2826 17.9816 32.2826 21.2966Z" fill="#FDF0E8" stroke="#A64814" stroke-width="2" stroke-linecap="round" stroke-linejoin="round"/>
<path d="M10.065 8.29297L7.44 14.563C4.83 15.688 3 18.283 3 21.298V16.903C3 12.643 6.03 9.08797 10.065 8.29297Z" stroke="#A64814" stroke-width="2" stroke-linecap="round" stroke-linejoin="round"/>
<path d="M32.2779 16.9015V21.2965C32.2779 17.9965 30.0879 15.1915 27.0879 14.2915C27.8679 12.3415 28.0929 10.8115 27.7179 9.53648C27.6879 9.40148 27.6429 9.26648 27.5829 9.14648C30.3729 10.5865 32.2779 13.5415 32.2779 16.9015Z" stroke="#A64814" stroke-width="2" stroke-linecap="round" stroke-linejoin="round"/>
</svg>
