<svg width="56" height="56" viewBox="0 0 56 56" fill="none" xmlns="http://www.w3.org/2000/svg">
<path d="M29.7417 21.8451C29.749 21.8327 29.7574 21.8327 29.7675 21.8451L29.7523 21.8574L29.7417 21.8451Z" fill="#0124DD"/>
<path d="M16.8762 26.1481C17.0381 25.6587 17.1915 25.1961 17.3416 24.7375C17.3601 24.6815 17.3976 24.6686 17.4463 24.6596C18.2566 24.5084 19.0703 24.3796 19.898 24.4205C20.4821 24.4479 21.0438 24.5672 21.5466 24.8808C22.2287 25.3053 22.5406 25.9448 22.5849 26.7288C22.6106 27.1796 22.5373 27.6248 22.4729 28.0661C22.339 28.9655 22.2013 29.8637 22.0719 30.7631C22.0684 30.8008 22.0548 30.8369 22.0325 30.8675C22.0102 30.8981 21.9801 30.9222 21.9454 30.9372C21.4178 31.2267 20.8455 31.3852 20.2575 31.4815C19.5298 31.6076 18.7876 31.6265 18.0545 31.5375C17.4435 31.4608 16.874 31.271 16.4305 30.8219C16.238 30.6248 16.0886 30.3899 15.9917 30.132C15.8948 29.8741 15.8526 29.5989 15.8677 29.3238C15.8829 29.0488 15.955 28.7798 16.0795 28.5341C16.204 28.2884 16.3783 28.0712 16.5912 27.8964C17.0459 27.5223 17.5835 27.3364 18.1497 27.216C19.007 27.0346 19.8722 27.0592 20.738 27.1253C20.8461 27.1331 20.8696 27.1001 20.8746 27.0038C20.9133 26.3284 20.5078 25.8435 19.7961 25.713C19.3022 25.6223 18.8172 25.7007 18.3322 25.7802C17.8374 25.8616 17.3504 25.9847 16.8762 26.1481ZM19.9047 28.1854C19.5965 28.1834 19.2887 28.206 18.9841 28.2531C18.6548 28.3091 18.335 28.3959 18.0696 28.6143C17.7694 28.8613 17.6894 29.1928 17.7487 29.5579C17.8047 29.8911 18.0377 30.0737 18.3395 30.1812C18.4779 30.2299 18.6218 30.2609 18.7679 30.2736C19.3078 30.3257 19.8319 30.2316 20.3527 30.1028C20.388 30.0982 20.4204 30.0807 20.4438 30.0538C20.4671 30.0269 20.4797 29.9923 20.4793 29.9567C20.5504 29.4275 20.621 28.8977 20.6994 28.3696C20.7128 28.2783 20.6826 28.261 20.6064 28.2464C20.3744 28.2081 20.1398 28.1877 19.9047 28.1854Z" fill="#114185"/>
<path d="M41.8767 29.8362C41.7871 30.1084 41.7087 30.352 41.6258 30.5956C41.5598 30.7955 41.4892 30.9938 41.4265 31.1954C41.4205 31.2262 41.4055 31.2546 41.3833 31.2769C41.3612 31.2992 41.333 31.3145 41.3022 31.3208C40.4454 31.5493 39.5774 31.673 38.6926 31.5616C37.6846 31.4345 36.8513 31.0016 36.3406 30.077C36.0264 29.5047 35.9267 28.8814 35.9693 28.2391C36.0505 27.0172 36.5595 26.0042 37.5059 25.2196C38.081 24.7425 38.7519 24.4972 39.49 24.4244C39.999 24.3746 40.5053 24.3841 41.002 24.5224C42.0134 24.8024 42.6876 25.5892 42.817 26.6308C42.8914 27.2294 42.817 27.8174 42.7201 28.406C42.7083 28.4794 42.6714 28.4816 42.6154 28.4816C42.3438 28.4816 42.0716 28.4816 41.8 28.4816C40.4933 28.4816 39.1867 28.4816 37.88 28.4816C37.7747 28.4816 37.7439 28.5074 37.7422 28.6154C37.7277 29.4958 38.2138 30.077 39.079 30.2254C39.7185 30.3374 40.3406 30.2406 40.9617 30.105C41.2723 30.0356 41.5779 29.9458 41.8767 29.8362ZM39.5919 27.3386H40.8463C41.2294 27.3386 41.2294 27.3386 41.2422 26.9556C41.2686 26.18 40.7942 25.6743 40.0231 25.6312C39.1008 25.5791 38.2311 26.2472 38.0071 27.2384C37.9886 27.3207 38.0071 27.3409 38.0911 27.3403C38.5901 27.3364 39.0879 27.3386 39.5919 27.3386Z" fill="#114185"/>
<path d="M45.0967 31.584C44.2744 31.5785 43.4582 31.4424 42.6786 31.1808C42.6008 31.1539 42.5801 31.1315 42.6081 31.047C42.7361 30.6591 42.8588 30.2693 42.976 29.8777C43.0051 29.7814 43.0393 29.7892 43.1165 29.8262C43.8653 30.1924 44.711 30.3116 45.5318 30.1666C45.7244 30.1373 45.9072 30.0624 46.065 29.9482C46.1379 29.8976 46.1987 29.8313 46.2427 29.7542C46.2866 29.677 46.3128 29.5909 46.3191 29.5023C46.3254 29.4138 46.3118 29.3249 46.2793 29.2422C46.2467 29.1596 46.1961 29.0853 46.131 29.0248C45.9887 28.893 45.8289 28.7815 45.6561 28.6933C45.2277 28.4536 44.7921 28.229 44.385 27.9513C43.2913 27.2026 43.4245 25.6441 44.5014 24.9603C44.9785 24.6574 45.501 24.5056 46.056 24.4479C46.9811 24.3522 47.8754 24.5106 48.7569 24.7761C48.8375 24.8002 48.8582 24.822 48.8274 24.9077C48.6947 25.2756 48.5665 25.6458 48.4461 26.0182C48.4141 26.1162 48.3761 26.1089 48.3005 26.0742C47.7491 25.814 47.1455 25.6837 46.5359 25.6934C46.2402 25.7006 45.9518 25.7494 45.7015 25.9241C45.5951 25.9919 45.5139 26.0928 45.4704 26.2113C45.4269 26.3298 45.4235 26.4593 45.4607 26.5798C45.5089 26.7151 45.6 26.8309 45.72 26.9097C45.9793 27.1046 46.2761 27.2362 46.56 27.3918C46.9074 27.5732 47.2389 27.7834 47.5512 28.0202C48.4741 28.7526 48.3805 30.1482 47.4952 30.8571C46.924 31.3135 46.2553 31.4961 45.5441 31.561C45.3655 31.5767 45.188 31.5795 45.0967 31.584Z" fill="#114185"/>
<path d="M51.1374 31.584C50.3261 31.5762 49.521 31.4414 48.7513 31.1847C48.6622 31.155 48.6393 31.1287 48.6723 31.0346C48.7989 30.655 48.9187 30.273 49.0352 29.89C49.0632 29.797 49.0912 29.7836 49.1819 29.8273C49.9275 30.1901 50.7683 30.3096 51.5854 30.1689C51.7606 30.1414 51.9283 30.0789 52.0788 29.9852C52.4501 29.7483 52.4954 29.3132 52.1818 29.0086C52.0503 28.8904 51.9041 28.7897 51.7467 28.709C51.2987 28.4547 50.8334 28.2274 50.4117 27.925C49.439 27.2222 49.5599 25.9504 50.1546 25.312C50.5556 24.8825 51.0618 24.6518 51.6235 24.528C52.3689 24.36 53.1137 24.4003 53.8579 24.5381C54.1715 24.5941 54.4784 24.6792 54.7853 24.7621C54.8872 24.7906 54.9242 24.8209 54.881 24.9374C54.7517 25.2885 54.6341 25.6435 54.5198 26.0014C54.4879 26.0994 54.456 26.1134 54.3597 26.0714C53.8157 25.8159 53.2213 25.686 52.6203 25.6911C52.3403 25.6962 52.0698 25.7376 51.8257 25.8843C51.5944 26.0226 51.4774 26.2237 51.5121 26.5003C51.5339 26.6762 51.6398 26.7988 51.773 26.8996C52.053 27.1118 52.3751 27.2518 52.6797 27.4198C53.0269 27.6119 53.3696 27.8118 53.6726 28.07C54.5215 28.798 54.4258 30.1476 53.574 30.842C53.1165 31.2155 52.5856 31.4093 52.0127 31.5095C51.7233 31.5565 51.4307 31.5814 51.1374 31.584Z" fill="#114185"/>
<path d="M28.9521 29.9354C28.9235 30.1034 28.8513 30.254 28.7981 30.4125C28.6967 30.7143 28.5886 31.0134 28.4884 31.3158C28.481 31.346 28.4643 31.3731 28.4405 31.3932C28.4168 31.4134 28.3873 31.4255 28.3562 31.4278C27.6842 31.5398 27.0049 31.6109 26.3223 31.5594C25.3037 31.4826 24.4301 31.1114 23.8297 30.2434C23.4064 29.6318 23.2569 28.9369 23.2944 28.205C23.3571 26.9842 23.8745 25.9851 24.8282 25.2202C25.3748 24.7822 26.0177 24.5672 26.7025 24.4776C27.5503 24.3574 28.4136 24.4091 29.241 24.6294C29.3989 24.6725 29.5513 24.733 29.7064 24.7834C29.7624 24.8013 29.7769 24.8254 29.7562 24.8864C29.6241 25.2728 29.493 25.6603 29.3693 26.0495C29.3418 26.1352 29.3032 26.1178 29.2477 26.096C28.8523 25.9339 28.4336 25.8358 28.0073 25.8054C27.085 25.7533 26.2831 26.007 25.7074 26.7747C25.1681 27.4943 25.0847 28.6894 25.6621 29.4118C26.021 29.8598 26.4948 30.0972 27.057 30.1627C27.6635 30.2333 28.2498 30.1162 28.8289 29.9499C28.8658 29.9393 28.9033 29.932 28.9409 29.923L28.9521 29.9354Z" fill="#114185"/>
<path d="M35.336 29.9275C35.2072 30.2982 35.0593 30.665 34.9535 31.0436C34.8768 31.3197 34.7474 31.4507 34.4461 31.481C33.6061 31.565 32.7661 31.659 31.9261 31.4367C30.6051 31.0856 29.7421 30.0317 29.6704 28.6619C29.592 27.1734 30.1621 25.984 31.3611 25.1042C31.8651 24.7352 32.4531 24.5605 33.0668 24.4804C33.9144 24.3606 34.7774 24.412 35.6048 24.6316C35.7582 24.6736 35.9055 24.7363 36.0584 24.7806C36.1384 24.8041 36.1407 24.8405 36.1144 24.9105C35.9861 25.2851 35.859 25.6598 35.7397 26.0372C35.7112 26.1274 35.677 26.124 35.6036 26.096C35.0168 25.872 34.4164 25.7505 33.7831 25.816C32.7073 25.9314 31.8886 26.6426 31.682 27.6892C31.533 28.4446 31.6696 29.1357 32.2716 29.6705C32.7516 30.0961 33.3356 30.2148 33.9578 30.1784C34.3967 30.1495 34.8304 30.0667 35.2492 29.932C35.2744 29.9275 35.2968 29.9068 35.336 29.9275Z" fill="#114185"/>
<path d="M14.0023 28.3864L7.02634 21.4105V22.4812L12.9315 28.3864L12.9338 28.3886L7.81874 33.5037L7.81258 33.4975L2.7009 28.3864L2.69642 28.3819L5.20578 25.8725H4.11658L1.60498 28.3841L1.60722 28.3864L7.81034 34.5895L7.81258 34.5873L14.0079 28.392L14.0023 28.3864Z" fill="#FE6309"/>
<path d="M7.02415 23.2181V24.2889L11.1239 28.3886L7.82103 31.6915L4.51535 28.3864L4.51087 28.3819L7.02023 25.8725H5.93103L3.41943 28.3841L3.42167 28.3864L7.27391 32.2386L7.81263 32.7773L8.36031 32.2302L12.198 28.392L7.02415 23.2181Z" fill="#FE6309"/>
<path d="M10.3897 28.3864L8.34401 26.3385L7.79969 25.7942L7.26433 26.3296L5.20801 28.3842L7.26545 30.4416L7.80417 30.9803L8.35073 30.4332L10.3953 28.392L10.3897 28.3864ZM7.81369 29.8984L6.30169 28.3864L6.29721 28.382L7.80529 26.8739L9.31729 28.3859L7.81369 29.8984Z" fill="#FE6309"/>
</svg>
