<svg width="124" height="56" viewBox="0 0 124 56" fill="none" xmlns="http://www.w3.org/2000/svg">
<mask id="mask0_660_6590" style="mask-type:luminance" maskUnits="userSpaceOnUse" x="0" y="0" width="124" height="56">
<path d="M0 0H123.914V56H0V0Z" fill="white"/>
</mask>
<g mask="url(#mask0_660_6590)">
<path d="M1.93513 47.8963L1.02801 52.6134C0.907056 52.9762 0.907056 53.2786 0.907056 53.6415C0.907056 54.6696 1.51181 55.1534 2.35846 55.1534C3.44701 55.1534 4.23319 54.4277 4.53557 52.6134L5.50317 47.8963H6.47077L5.56364 52.6134C5.14032 54.9719 3.99129 55.9395 2.29798 55.9395C0.907056 55.9395 -0.0605469 55.2138 -0.0605469 53.581L-7.17118e-05 52.432L0.846581 47.8359H1.93513V47.8963ZM7.8617 55.9395L8.5874 51.8877C8.76883 51.2225 8.76883 50.6782 8.88978 50.1944H9.73643L9.555 51.2829C10.0388 50.4363 10.825 50.013 11.6716 50.013C12.3369 50.013 13.0626 50.4363 13.0626 51.5853L13.0021 52.5529L12.3369 55.8186H11.3088L11.9135 52.5529L11.974 51.7667C11.974 51.2225 11.7321 50.7991 11.0669 50.7991C10.4017 50.7991 9.37358 51.5853 9.13168 53.0367L8.5874 55.8186H7.8617V55.9395ZM15.1792 55.9395L16.2677 50.1944H17.2958L16.2073 55.9395H15.1792ZM16.4492 48.5616C16.4492 48.2592 16.812 47.8963 17.1144 47.8963C17.4773 47.8963 17.7192 48.1382 17.7192 48.5011C17.7192 48.9244 17.4773 49.1663 17.0539 49.1663C16.6911 49.1663 16.4492 48.9244 16.4492 48.5616ZM21.5291 48.6825L21.2872 50.1944H22.6176L22.4362 50.9201H21.1058L20.622 53.702C20.501 54.0648 20.501 54.3067 20.501 54.6696C20.501 54.9719 20.6824 55.1534 21.0453 55.1534H21.4686L21.3477 55.9395L20.622 56C19.7753 56 19.4125 55.5162 19.4125 54.9115L19.4729 53.8229L20.0777 50.9201H19.231L19.4125 50.1944H20.2591L20.501 48.9244L21.5291 48.6825ZM27.879 55.5767C27.4557 55.8186 26.7299 56 26.0042 56C24.4924 56 23.8271 54.9719 23.8271 53.702C23.8271 52.0086 25.0971 50.013 26.9114 50.013C27.9999 50.013 28.6047 50.6782 28.6047 51.4644C28.6047 52.9762 26.9114 53.3996 24.7947 53.2786C24.7343 53.581 24.7947 54.0648 24.9157 54.4277C25.1576 54.9115 25.5809 55.1534 26.1857 55.1534C26.8509 55.1534 27.3347 54.9115 27.6976 54.73L27.879 55.5767ZM26.7299 50.7991C25.8228 50.7991 25.1576 51.7063 24.9157 52.5529C26.4276 52.5529 27.5766 52.3715 27.5766 51.4644C27.5766 51.041 27.2742 50.7991 26.7299 50.7991ZM36.2246 47.473L34.9546 54.0648C34.8336 54.6696 34.7127 55.3348 34.7127 55.8186H33.7451L33.9265 54.73C33.4427 55.5767 32.6565 56 31.9308 56C30.7818 56 30.2375 55.0929 30.2375 53.8834C30.2375 51.8877 31.7494 50.013 33.7451 50.013C34.1079 50.013 34.5312 50.0734 34.7731 50.1944L35.2569 47.473H36.2246ZM34.5917 51.041C34.4103 50.8596 34.1079 50.7991 33.6846 50.7991C32.3541 50.7991 31.2051 52.1901 31.2051 53.702C31.2051 54.4277 31.5075 55.1534 32.3541 55.1534C33.0798 55.1534 34.0474 54.3067 34.2893 53.0367L34.5917 51.041ZM42.0906 48.0173C42.6349 47.8963 43.2397 47.8359 43.7839 47.8359C44.6306 47.8359 45.2354 48.0173 45.6587 48.3801C46.0215 48.743 46.2634 49.1663 46.2634 49.6501C46.2634 50.6782 45.4168 51.4644 44.5701 51.7063C45.3563 51.9482 45.9006 52.5529 45.9006 53.46C45.9006 54.3067 45.4772 54.9115 44.9935 55.3348C44.3887 55.8186 43.4816 56 42.393 56L40.6997 55.9395L42.0906 48.0173ZM41.7883 55.0929L42.6349 55.1534C43.7839 55.1534 44.933 54.6696 44.933 53.3996C44.933 52.432 44.1468 52.0086 43.2397 52.0086H42.4535L41.7883 55.0929ZM42.514 51.2829H43.3001C44.3887 51.2829 45.3563 50.6782 45.3563 49.7711C45.3563 48.9849 44.7515 48.6825 43.9049 48.6825L43.0582 48.743L42.514 51.2829ZM51.5852 55.9395L51.7667 54.4881C51.1619 55.6372 50.3153 56.0605 49.5291 56.0605C48.5615 56.0605 47.9567 55.2138 47.9567 54.2462C47.9567 52.1901 49.4081 50.1944 51.8876 50.1944C52.4319 50.1944 53.0971 50.2549 53.46 50.4363L52.8552 53.3996C52.6738 54.4277 52.6133 55.3953 52.6133 56H51.5852V55.9395ZM52.2505 50.8596L51.5852 50.7991C50.1338 50.7991 48.8639 52.311 48.8639 53.8834C48.8639 54.5486 49.1058 55.1534 49.8919 55.1534C50.7386 55.1534 51.6457 54.0648 51.8876 52.5529L52.2505 50.8596ZM55.0323 55.9395L55.8185 51.8877L56.0604 50.1944H56.9071L56.7256 51.2829C57.2094 50.4363 57.9956 50.013 58.8423 50.013C59.5075 50.013 60.2937 50.4363 60.2937 51.5853L60.1727 52.5529L59.5075 55.8186H58.4794L59.0842 52.5529L59.1446 51.7667C59.1446 51.2225 58.9027 50.7991 58.2375 50.7991C57.5723 50.7991 56.5442 51.5853 56.3023 53.0367L55.8185 55.8186H55.0323V55.9395ZM62.4708 55.9395L64.0431 47.594H65.0107L63.9827 52.7948C64.1641 52.6134 64.406 52.3715 64.4665 52.1901L66.5226 50.1944H67.6716L65.1922 52.5529L66.825 55.9395H65.7364L64.406 53.1577L63.6198 53.8229L63.1965 56H62.4708V55.9395ZM72.2677 55.9395L73.1749 50.9201H72.4492L72.5701 50.1944H73.3563L73.4168 49.8315C73.5982 48.9849 73.8401 48.3197 74.3844 47.8359C74.6868 47.473 75.231 47.2916 75.7148 47.2916C76.1382 47.2916 76.3801 47.4125 76.501 47.473L76.1986 48.2592C76.0777 48.1382 75.8963 48.1382 75.6544 48.1382C74.8682 48.1382 74.4449 48.9244 74.2634 49.8315V50.1944H75.5334L75.352 50.9201H74.1425L73.1749 55.9395H72.2677ZM81.9438 52.432C81.9438 54.2462 80.6738 56.0605 78.7386 56.0605C77.3477 56.0605 76.5615 54.9719 76.5615 53.702C76.5615 51.8877 77.8919 50.0734 79.7667 50.0734C81.2785 50.013 81.9438 51.2225 81.9438 52.432ZM77.5896 53.6415C77.5896 54.5486 78.0734 55.2138 78.92 55.2138C80.1295 55.2138 80.9762 53.702 80.9762 52.432C80.9762 51.7667 80.6133 50.8596 79.5852 50.8596C78.4362 50.7991 77.5896 52.311 77.5896 53.6415ZM83.758 55.9395L84.4233 52.1901C84.6047 51.4644 84.6652 50.6782 84.7256 50.1944H85.5723L85.4513 51.4644C85.7537 50.6782 86.4189 50.0734 87.2051 50.0734H87.447L87.2656 51.041H87.0237C86.177 51.041 85.4513 52.0086 85.149 53.3996L84.6652 55.9395H83.758ZM93.4341 53.3996L92.1641 55.9395H91.136L95.3088 48.0173H96.4578L97.6068 55.9395H96.5788L96.2159 53.3996H93.4341ZM96.1554 52.5529L95.7926 50.2549C95.7321 49.8315 95.7321 49.2268 95.6112 48.8035L94.9459 50.2549L93.7969 52.5529H96.1554ZM99.6025 55.9395L100.51 50.9201H99.784L99.9654 50.1944H100.691L100.812 49.8315C100.933 48.9849 101.235 48.3197 101.719 47.8359C102.022 47.473 102.566 47.2916 103.05 47.2916C103.473 47.2916 103.715 47.4125 103.836 47.473L103.594 48.2592C103.412 48.1382 103.231 48.1382 102.989 48.1382C102.203 48.1382 101.78 48.9244 101.659 49.8315L101.538 50.0734H102.808L102.626 50.8596H101.356L100.449 55.8186H99.6025V55.9395ZM103.896 55.9395L104.561 52.1901L104.924 50.1944H105.771L105.59 51.4644C105.952 50.6782 106.618 50.0734 107.343 50.0734H107.646L107.464 51.041H107.222C106.376 51.041 105.59 52.0086 105.348 53.3996L104.864 55.9395H103.896ZM108.734 55.9395L109.823 50.1944H110.851L109.762 55.9395H108.734ZM110.004 48.5616C110.004 48.2592 110.246 47.8963 110.669 47.8963C110.972 47.8963 111.274 48.1382 111.274 48.5011C111.274 48.9244 110.972 49.1663 110.549 49.1663C110.246 49.1663 110.004 48.9244 110.004 48.5616ZM116.415 55.6372C116.052 55.8186 115.447 56 114.721 56C113.209 56 112.544 54.9719 112.544 53.8229C112.544 51.8877 113.935 50.0734 115.991 50.0734C116.475 50.0734 117.019 50.2549 117.14 50.3758L116.898 51.1015C116.657 51.041 116.415 50.8596 115.991 50.8596C114.479 50.8596 113.512 52.311 113.512 53.6415C113.512 54.5486 114.056 55.1534 114.963 55.1534C115.568 55.1534 115.991 54.9719 116.294 54.7905L116.415 55.6372ZM122.16 55.9395L122.281 54.4881C121.736 55.6372 120.89 56.0605 120.104 56.0605C119.076 56.0605 118.531 55.2138 118.531 54.2462C118.531 52.1901 119.922 50.1944 122.462 50.1944C123.006 50.1944 123.672 50.2549 123.974 50.4363L123.43 53.3996C123.248 54.4277 123.127 55.3953 123.127 56H122.16V55.9395ZM122.825 50.8596L122.16 50.7991C120.708 50.7991 119.438 52.311 119.438 53.8834C119.438 54.5486 119.68 55.1534 120.466 55.1534C121.313 55.1534 122.22 54.0648 122.462 52.5529L122.825 50.8596ZM24.5528 14.0302L20.9243 30.8423C19.8358 34.4708 17.8401 37.0108 13.6068 37.1922C9.97833 37.1922 8.52693 34.7732 9.43405 29.6933L12.6392 14.0302H7.31742L3.62844 31.9914C2.96321 38.8855 7.01505 40.8207 13.1835 40.6393C19.0496 40.4579 23.1014 37.797 25.3995 32.4752L29.4513 14.0302H24.5528ZM69.3649 22.4968L71.4816 31.2052H63.6198L69.3649 22.4968ZM70.9978 14.0302L53.1576 40.0346H57.9956L61.3822 35.0151H72.5097L73.5982 40.0346H79.3433L72.9935 14.0302H70.9978ZM88.3541 40.216H98.5744C107.767 39.7927 109.762 35.6199 106.799 28.6652L95.6112 6.83369L88.3541 40.216ZM113.451 0C104.259 0.423326 102.324 4.65659 105.287 11.5508L116.415 33.3823L123.672 0H113.451ZM36.4665 36.7689L38.3412 28H40.4578C43.542 28 46.1425 29.0886 46.1425 31.9914C46.1425 35.4989 42.6954 36.9503 38.825 36.9503L36.4665 36.7689ZM40.5183 17.3564H43.0582C45.8401 17.3564 47.5334 18.0216 47.5334 20.2592C47.5334 22.9201 44.9935 24.6134 41.1835 24.6134H39.0669L40.5183 17.3564ZM36.4665 14.0302L36.0431 14.0907L30.6608 40.1555H41.0021C44.5096 40.1555 46.5053 39.1879 47.8358 38.4017C49.9524 37.0108 51.4643 34.7732 52.0086 32.0518C52.6738 28.3629 50.1338 26.4276 46.9891 26.1253C50.1943 25.3996 52.9157 23.041 53.0971 19.6544C53.5204 14.0302 47.1706 14.0302 47.1706 14.0302H36.4665Z" fill="#D71920"/>
</g>
</svg>
