<svg width="56" height="56" viewBox="0 0 56 56" fill="none" xmlns="http://www.w3.org/2000/svg">
<g clip-path="url(#clip0_660_6581)">
<path d="M53.4542 0.335999H2.5457C1.32528 0.335999 0.335938 1.32534 0.335938 2.54576V53.4542C0.335938 54.6747 1.32528 55.664 2.5457 55.664H53.4542C54.6746 55.664 55.6639 54.6747 55.6639 53.4542V2.54576C55.6639 1.32534 54.6746 0.335999 53.4542 0.335999Z" fill="#5C2682"/>
<path d="M11.0248 22.6414V24.6854H15.5463V26.5675H11.0248V30.2361H8.93994V20.7598H16.155V22.6414H11.0248Z" fill="white"/>
<path d="M25.3876 29.4101C25.122 29.62 24.8337 29.7994 24.528 29.9449C24.2022 30.0979 23.859 30.2108 23.506 30.2809C23.0958 30.3615 22.6785 30.4001 22.2605 30.3962C21.5962 30.4023 20.9376 30.2733 20.3246 30.0171C19.7472 29.7766 19.2228 29.4248 18.7812 28.9817C18.3437 28.5372 17.9986 28.0103 17.766 27.4316C17.5202 26.8253 17.396 26.1767 17.4003 25.5225V25.4957C17.3953 24.8431 17.5196 24.196 17.766 23.5917C18.0016 23.0127 18.3463 22.4844 18.7812 22.0354C19.2238 21.5821 19.7533 21.2229 20.338 20.9793C20.9739 20.7172 21.6563 20.5873 22.344 20.5973C22.7503 20.5943 23.1559 20.6305 23.5552 20.7054C23.8962 20.7707 24.2296 20.8705 24.5504 21.0033C24.8416 21.1263 25.1186 21.2806 25.3764 21.4637C25.6269 21.6427 25.8624 21.842 26.0803 22.0595L24.752 23.5889C24.4128 23.277 24.0323 23.0132 23.6213 22.8049C23.2182 22.6112 22.7755 22.514 22.3283 22.5209C21.9483 22.5174 21.572 22.5959 21.2251 22.7511C20.8929 22.8999 20.5955 23.1166 20.352 23.3873C20.1056 23.6627 19.9128 23.9818 19.7836 24.3281C19.6465 24.6938 19.5776 25.0816 19.5804 25.4721V25.499C19.578 25.8918 19.6469 26.2817 19.7836 26.6498C19.9108 26.9973 20.1006 27.3184 20.3436 27.5973C20.5916 27.8778 20.897 28.1016 21.2392 28.2534C21.5814 28.4052 21.9523 28.4815 22.3266 28.4771C22.8683 28.4771 23.3264 28.3778 23.7008 28.1792C24.1068 27.9583 24.4822 27.6853 24.8175 27.3672L26.1441 28.7073C25.9101 28.9603 25.6572 29.1953 25.3876 29.4101Z" fill="white"/>
<path d="M35.2291 30.2361V24.0492L32.5618 28.0969H32.5058L29.866 24.0901V30.2361H27.8108V20.7598H30.0575L32.5484 24.7671L35.0393 20.7598H37.2866V30.2361H35.2291Z" fill="white"/>
<path d="M47.3518 28.7739C47.1842 29.0999 46.9381 29.3789 46.6356 29.5859C46.2951 29.8155 45.9156 29.9808 45.5156 30.0737C45.0386 30.1865 44.5497 30.2411 44.0596 30.2361H39.5605V20.7598H43.9526C44.9252 20.7598 45.6884 20.981 46.2425 21.4234C46.7965 21.8658 47.0737 22.4614 47.0741 23.2103V23.24C47.0779 23.483 47.0437 23.725 46.9727 23.9574C46.9096 24.1556 46.8191 24.3441 46.7039 24.5174C46.5942 24.6815 46.4623 24.8297 46.3119 24.9575C46.1654 25.0831 46.0053 25.192 45.8348 25.2823C46.3825 25.4903 46.8137 25.7723 47.1284 26.1285C47.4431 26.4846 47.6003 26.9778 47.5999 27.608V27.6349C47.6095 28.0289 47.5244 28.4196 47.3518 28.7739ZM45.0161 23.562C45.0161 23.2462 44.8988 23.0048 44.6644 22.8379C44.4299 22.671 44.0915 22.5876 43.6491 22.5876H41.5911V24.5907H43.5119C43.9722 24.5907 44.3377 24.5118 44.6084 24.3538C44.8791 24.1959 45.0144 23.9409 45.0144 23.5889L45.0161 23.562ZM45.5441 27.3526C45.549 27.2069 45.5183 27.0622 45.4546 26.931C45.3908 26.7999 45.2961 26.6862 45.1785 26.6C44.9347 26.4152 44.5427 26.3219 44.0025 26.32H41.5945V28.4049H44.0719C44.5322 28.4049 44.8932 28.3214 45.1549 28.1546C45.4167 27.9877 45.5473 27.7282 45.5469 27.3762L45.5441 27.3526Z" fill="white"/>
<path d="M47.4443 36.3082V40.9483H8.73267V38.5078C8.73259 38.219 8.78944 37.9329 8.89996 37.666C9.01048 37.3991 9.1725 37.1565 9.37677 36.9523C9.58105 36.748 9.82357 36.586 10.0905 36.4755C10.3574 36.3649 10.6435 36.3081 10.9323 36.3082H47.4443Z" fill="#FAB613"/>
<path d="M8.73267 42.4508H47.4443V47.091H10.9323C10.6434 47.091 10.3573 47.0342 10.0903 46.9236C9.8234 46.8131 9.58086 46.651 9.37658 46.4467C9.17229 46.2423 9.01028 45.9997 8.8998 45.7328C8.78931 45.4658 8.73252 45.1797 8.73267 44.8907V42.4508Z" fill="#FAB613"/>
</g>
<defs>
<clipPath id="clip0_660_6581">
<rect width="56" height="56" fill="white"/>
</clipPath>
</defs>
</svg>
