<svg width="56" height="56" viewBox="0 0 56 56" fill="none" xmlns="http://www.w3.org/2000/svg">
<path d="M54.9919 1.008H0.951904V55.048H54.9919V1.008Z" fill="#162D4C"/>
<path d="M24.5576 9.09946V9.07202H40.8536V9.10058L24.5576 9.09946Z" fill="#E4B935"/>
<path d="M24.5578 9.09943H40.8538C40.7306 9.69191 40.6096 10.2849 40.4836 10.8769C40.0013 13.1419 39.5174 15.4061 39.0321 17.6697C38.8361 18.5897 38.6401 19.5104 38.4418 20.4293C38.4166 20.5413 38.4278 20.5811 38.5538 20.5828C39.0018 20.5895 39.4498 20.5828 39.8978 20.5654C40.117 20.5524 40.3369 20.5667 40.5525 20.608C40.9445 20.6909 41.0537 20.9737 40.819 21.3024C40.6878 21.4734 40.5172 21.6102 40.3218 21.7011C39.8799 21.929 39.4017 22.0265 38.915 22.0897C38.6752 22.1265 38.433 22.1453 38.1904 22.1457C38.0963 22.1457 38.0722 22.1894 38.0566 22.265C37.9072 22.9744 37.7566 23.6852 37.6046 24.3975L36.222 30.917C36.194 31.0492 36.166 31.1808 36.1397 31.3141C36.1262 31.3891 36.0994 31.4345 36.0137 31.4188C35.9904 31.4165 35.967 31.4165 35.9437 31.4188H19.9988C19.8062 31.4188 19.8067 31.4188 19.8482 31.2217C20.6463 27.4629 21.4442 23.7042 22.2416 19.9455C22.4197 19.107 22.5983 18.2689 22.7775 17.4311C22.7931 17.3826 22.7899 17.3301 22.7686 17.2838C22.5306 16.8129 22.455 16.3016 22.4051 15.7853C22.278 14.4726 22.5832 13.2188 22.941 11.9745C23.0446 11.6161 23.4344 11.3954 23.8594 11.4436C24.0157 11.4609 24.0605 11.4184 24.0896 11.2705C24.2313 10.5627 24.3864 9.85767 24.5376 9.15151C24.5427 9.13357 24.5495 9.11614 24.5578 9.09943ZM30.1018 20.6914C30.1435 20.6869 30.1855 20.6869 30.2272 20.6914C30.739 20.8079 31.0011 20.5055 31.2083 20.1107C31.2318 20.0653 31.2559 20.0194 31.2761 19.9729C31.42 19.6453 31.4194 19.6448 31.1546 19.4129C31.1371 19.3965 31.1184 19.3816 31.0986 19.3681C30.9826 19.2976 30.9832 19.222 31.0543 19.1066C31.2746 18.7482 31.5966 18.4635 31.9792 18.2887C32.3619 18.1139 32.7879 18.0569 33.203 18.1249C33.3451 18.1442 33.479 18.2023 33.59 18.2929C33.954 18.5847 34.3303 18.8597 34.7145 19.1251C35.0679 19.376 35.4367 19.6044 35.8188 19.8089C35.9605 19.8828 35.9683 19.8794 35.9554 19.7271C35.9308 19.4393 35.9022 19.1516 35.8698 18.8641C35.7975 18.2179 35.6021 17.6226 35.1888 17.1035C34.8926 16.7317 34.6109 16.3481 34.3085 15.9807C34.2791 15.9491 34.2572 15.9111 34.2447 15.8698C34.2322 15.8284 34.2293 15.7848 34.2362 15.7421C34.3034 15.2124 34.3046 15.209 33.9742 14.7901C33.2462 13.8673 32.3815 13.0765 31.4978 12.3071C31.4458 12.2677 31.3852 12.2412 31.3209 12.2298C30.7099 12.0795 30.0849 11.9937 29.4561 11.9739C29.091 11.9571 28.7527 11.9974 28.4531 12.2214C28.2084 12.4045 27.9491 12.4348 27.6417 12.3838C26.6494 12.2186 25.652 12.0831 24.6558 11.942C24.3657 11.9011 24.0784 11.83 23.7822 11.8445C23.5274 11.8563 23.3857 11.9448 23.3213 12.1548C23.0038 13.1919 22.7613 14.2441 22.7966 15.3389C22.815 16.3493 23.1494 17.3285 23.753 18.1389C24.425 19.045 25.3345 19.6263 26.3744 20.02C27.5734 20.4725 28.8266 20.6343 30.099 20.6892L30.1018 20.6914ZM29.9898 27.5643C29.931 27.6029 29.8923 27.6287 29.8531 27.6533C29.3676 27.958 28.8826 28.2637 28.3943 28.5639C28.2958 28.6244 28.2913 28.6557 28.3831 28.7319C29.1671 29.3787 29.9478 30.0305 30.7301 30.6801C30.7497 30.6969 30.7676 30.7255 30.809 30.7059C30.8174 30.5614 30.8342 30.413 30.832 30.2646C30.8317 30.0971 30.867 29.9314 30.9356 29.7785C31.1534 29.2589 31.3618 28.7353 31.5757 28.2139C31.6031 28.15 31.6155 28.0806 31.6121 28.0112C31.593 27.5497 31.5751 27.0883 31.5611 26.6269C31.5588 26.5434 31.5334 26.4622 31.4878 26.3922C30.9927 25.5914 30.501 24.7889 30.0043 23.9887C29.9823 23.9569 29.968 23.9204 29.9625 23.8821C29.9571 23.8438 29.9607 23.8047 29.973 23.7681C30.0558 23.4819 30.1309 23.1935 30.2132 22.9068C30.2443 22.7946 30.2538 22.6775 30.2412 22.5618C30.2121 22.246 30.1852 21.9301 30.1634 21.6137C30.1572 21.5085 30.1275 21.4737 30.0161 21.4732C29.2744 21.4737 28.5346 21.4004 27.8074 21.2542C25.9141 20.8622 24.3881 19.9147 23.2994 18.298C23.2776 18.2661 23.267 18.2201 23.2087 18.2073C23.2026 18.2336 23.1958 18.2593 23.1902 18.2851C22.7071 20.5766 22.2242 22.8685 21.7415 25.1608C21.681 25.4469 21.681 25.4503 21.9689 25.4805C22.1548 25.5001 22.3318 25.5595 22.5289 25.4878C23.4837 25.1445 24.4446 24.8186 25.4022 24.4798C25.4497 24.458 25.5024 24.4499 25.5542 24.4564C25.6061 24.4629 25.6551 24.4838 25.6957 24.5168C26.9669 25.424 28.2407 26.3278 29.5171 27.2283L29.9898 27.5643ZM25.5131 25.0124C25.5131 25.6978 25.5131 26.3737 25.5131 27.0502C25.5143 27.1656 25.4916 27.28 25.4465 27.3862C25.0769 28.266 24.7118 29.148 24.341 30.0277C24.32 30.0685 24.3098 30.114 24.3116 30.1598C24.3134 30.2057 24.327 30.2503 24.3511 30.2893C24.4295 30.427 24.499 30.5693 24.5634 30.7143C24.5752 30.751 24.5993 30.7825 24.6317 30.8035C24.664 30.8245 24.7025 30.8337 24.7409 30.8297C25.6324 30.8246 26.5234 30.8297 27.4143 30.8257C27.453 30.8257 27.4972 30.8437 27.5386 30.7983C27.4569 30.6303 27.3779 30.4561 27.2894 30.2881C27.2441 30.2073 27.2305 30.1125 27.2514 30.0221C27.4698 28.9548 27.6826 27.8857 27.9043 26.8189C27.9267 26.7131 27.9043 26.6605 27.8203 26.6017C27.0893 26.0928 26.3597 25.5821 25.6313 25.0695C25.5991 25.0353 25.5554 25.0142 25.5086 25.0101L25.5131 25.0124ZM37.8415 21.7901C37.944 21.7901 38.0465 21.7935 38.149 21.7901C38.761 21.7655 39.3653 21.6899 39.9477 21.4883C40.1269 21.4348 40.2921 21.3425 40.4315 21.2178C40.4976 21.1545 40.5575 21.0801 40.5189 20.9843C40.4847 20.8992 40.3923 20.893 40.315 20.8925C40.1286 20.8925 39.941 20.8874 39.755 20.9042C38.9685 20.9793 38.1749 20.9205 37.4081 20.7301C36.0439 20.3913 34.8282 19.7478 33.7037 18.9213C33.5578 18.8073 33.3835 18.7354 33.1997 18.7135C32.675 18.6575 32.2191 18.779 31.8798 19.2136C31.817 19.2937 31.8154 19.3446 31.8977 19.4174C32.3305 19.8011 32.797 20.145 33.2915 20.445C34.6859 21.2951 36.1895 21.789 37.837 21.7879L37.8415 21.7901ZM33.6673 21.1842C33.6818 21.2817 33.6953 21.3522 33.7026 21.4278C33.7255 21.6686 33.8045 21.9027 33.7804 22.148C33.7065 22.9001 33.5463 23.6393 33.4478 24.388C33.3716 24.9709 33.2938 25.5545 33.3251 26.1436C33.3503 26.6196 33.5049 27.0485 33.9086 27.3313C34.2894 27.5979 34.7078 27.6791 35.1474 27.4523C35.1815 27.4379 35.2103 27.413 35.2294 27.3812C35.2485 27.3494 35.257 27.3123 35.2538 27.2753C35.252 27.1169 35.2364 26.959 35.2073 26.8033C35.1877 26.7047 35.1558 26.6789 35.0494 26.698C34.654 26.7691 34.3824 26.4846 34.4597 26.0921C34.5274 25.7471 34.6646 25.4257 34.7957 25.1025C35.1143 24.3269 35.4929 23.5777 35.8238 22.8065C35.9084 22.5893 35.9603 22.3608 35.9778 22.1284C35.9868 22.0522 35.9778 22.013 35.8826 22.0007C35.7259 21.9778 35.5707 21.9457 35.4178 21.9044C34.8048 21.7435 34.2161 21.5013 33.6673 21.1842Z" fill="#DFAC0F"/>
<path d="M30.3553 37.8907C30.5194 37.9171 30.6802 37.9606 30.8352 38.0206C31.3437 38.2329 31.6147 38.6266 31.6394 39.1636C31.6853 40.1554 31.2076 40.8839 30.4191 41.4299C29.9124 41.7789 29.3108 41.9642 28.6955 41.9608C27.8795 41.967 27.0631 41.9608 26.2466 41.9608C26.0282 41.9608 25.9789 41.8992 26.0226 41.6875C26.5165 39.2941 27.0106 36.9006 27.5049 34.5072C27.5553 34.2614 27.6169 34.2132 27.8633 34.2132C28.3903 34.2132 28.9172 34.2132 29.4447 34.2132C29.9325 34.2132 30.4135 34.2692 30.8649 34.468C31.3543 34.6836 31.7217 35.0218 31.7743 35.5796C31.8494 36.3754 31.5811 37.0446 30.9399 37.5463C30.7574 37.6808 30.5615 37.7963 30.3553 37.8907ZM28.1954 41.0564V41.048C28.3679 41.048 28.5403 41.0553 28.7123 41.048C29.5405 41.0082 30.0837 40.5306 30.2332 39.7163C30.3542 39.0544 30.0327 38.5963 29.3725 38.4966C28.9603 38.4356 28.5443 38.4821 28.1304 38.4675C28.0621 38.4675 28.0582 38.5056 28.0487 38.5526C28.0027 38.7806 27.9551 39.0085 27.9075 39.2358C27.7911 39.7958 27.6768 40.3558 27.5564 40.9158C27.5318 41.0278 27.5531 41.0698 27.6785 41.0614C27.8499 41.048 28.0229 41.0564 28.1954 41.0564ZM28.6602 37.5614C28.837 37.5721 29.0144 37.5619 29.1888 37.5312C29.8323 37.3839 30.3234 36.811 30.3872 36.1312C30.4382 35.5908 30.2002 35.2694 29.671 35.1607C29.4363 35.1126 29.1983 35.126 28.962 35.1109C28.7996 35.1002 28.7447 35.1495 28.7139 35.3114C28.579 36.0237 28.4295 36.7332 28.2771 37.4427C28.2531 37.5547 28.2867 37.5676 28.3807 37.5614C28.4748 37.5553 28.5667 37.5614 28.6602 37.5614Z" fill="white"/>
<path d="M36.8743 37.0597C36.9477 36.8777 37.0155 36.7237 37.0715 36.5686C37.0872 36.5073 37.1246 36.4537 37.1766 36.4176C37.2286 36.3815 37.2919 36.3653 37.3548 36.372C37.5928 36.3771 37.8308 36.372 38.0688 36.372C38.2452 36.372 38.2968 36.4375 38.2632 36.6061C38.0018 37.8975 37.7405 39.189 37.4792 40.4807C37.4526 40.5849 37.4435 40.6928 37.4523 40.7999C37.4763 40.9791 37.5363 41.0424 37.7155 41.0659C37.8275 41.0805 37.8745 41.1421 37.8555 41.2474C37.8235 41.426 37.7866 41.6041 37.7435 41.7805C37.7342 41.8344 37.7056 41.883 37.663 41.9173C37.6204 41.9515 37.5668 41.969 37.5122 41.9664C37.2881 41.9769 37.0637 41.955 36.8458 41.9015C36.5014 41.8107 36.3132 41.5884 36.2695 41.2295C36.2645 41.1886 36.2628 41.1471 36.2589 41.099C36.1984 41.1135 36.1771 41.1639 36.1469 41.1987C35.4525 41.9569 34.5924 42.2257 33.59 42.0515C32.9146 41.9339 32.4946 41.5123 32.3434 40.8386C32.214 40.2646 32.2835 39.6979 32.3994 39.1328C32.536 38.4608 32.7662 37.8275 33.1834 37.2686C33.9041 36.2947 35.0644 36.0881 35.947 36.3093C36.3552 36.4151 36.6565 36.6627 36.8743 37.0597ZM33.5703 40.1649C33.5705 40.2912 33.5813 40.4173 33.6028 40.5418C33.6639 40.9136 33.8688 41.1197 34.2407 41.1819C34.9687 41.3039 35.6653 40.9875 36.0276 40.3346C36.3869 39.677 36.5622 38.9347 36.535 38.1859C36.5221 37.6561 36.2707 37.3274 35.8249 37.1969C35.5633 37.1251 35.2887 37.1146 35.0224 37.1661C34.5509 37.2456 34.276 37.5615 34.0833 37.9635C33.7496 38.6591 33.6308 39.4055 33.5703 40.1649Z" fill="white"/>
<path d="M47.674 34.2608C47.5191 35.0149 47.3637 35.7676 47.2081 36.5187C47.0535 37.2708 46.8995 38.0229 46.7438 38.78C46.8166 38.7755 46.8401 38.724 46.8743 38.6904C47.5737 37.9977 48.2743 37.3061 48.9687 36.6083C49.0394 36.5312 49.1262 36.4706 49.223 36.4308C49.3198 36.391 49.4242 36.373 49.5287 36.3782C49.7846 36.3877 50.0417 36.3782 50.2981 36.3832C50.3541 36.3832 50.4247 36.3681 50.4493 36.4241C50.474 36.4801 50.4057 36.5193 50.367 36.5551C49.5084 37.3634 48.6471 38.1702 47.7832 38.9754C47.6925 39.06 47.6925 39.1126 47.7569 39.2123C48.2922 40.0417 48.8209 40.8755 49.3534 41.7077C49.3786 41.7469 49.4038 41.7866 49.4257 41.827C49.4716 41.911 49.4464 41.9698 49.3512 41.9703C48.9452 41.9703 48.5392 41.9742 48.1337 41.9653C48.0122 41.9653 47.9422 41.8662 47.8829 41.7648C47.48 41.0726 47.0757 40.382 46.6699 39.6928C46.6453 39.6508 46.6335 39.597 46.5713 39.5679C46.456 40.1279 46.3423 40.6806 46.2275 41.2345C46.1917 41.4081 46.1575 41.5817 46.1183 41.7542C46.0791 41.9266 46.0136 41.9731 45.8461 41.9742C45.5852 41.9742 45.3237 41.9742 45.0621 41.9742C44.8292 41.9742 44.7855 41.9227 44.832 41.6993C44.9753 41.0066 45.1209 40.3138 45.2643 39.6206C45.5787 38.1082 45.8906 36.5981 46.2001 35.0902C46.2049 35.0518 46.2197 35.0153 46.2428 34.9843C46.266 34.9533 46.2968 34.9288 46.3322 34.9132C46.7326 34.715 47.1297 34.51 47.5284 34.309C47.5708 34.2783 47.6217 34.2615 47.674 34.2608Z" fill="white"/>
<path d="M40.7752 37.2759C40.9694 37.0159 41.1934 36.7796 41.4427 36.572C42.0313 36.0904 43.2241 36.1654 43.7774 36.6711C44.2254 37.0816 44.3469 37.6074 44.25 38.1775C44.124 38.9161 43.9566 39.6475 43.8104 40.3828C43.7785 40.5424 43.7482 40.7042 43.7925 40.8677C43.8233 40.9825 43.8726 41.0749 44.0165 41.0738C44.1374 41.0738 44.1845 41.1477 44.1643 41.2592C44.1324 41.4372 44.0966 41.6159 44.0551 41.7923C44.0456 41.844 44.0176 41.8905 43.9765 41.9233C43.9353 41.956 43.8837 41.9727 43.8311 41.9704C43.6072 41.9826 43.3827 41.9597 43.1658 41.9026C42.6618 41.7609 42.4132 41.3986 42.4378 40.8386C42.4541 40.4584 42.5655 40.0955 42.6322 39.7248C42.7229 39.2208 42.8746 38.728 42.9026 38.2128C42.9091 38.1106 42.9091 38.0081 42.9026 37.9059C42.8634 37.3403 42.5107 37.0704 41.9557 37.1644C41.7823 37.1925 41.6169 37.2568 41.4702 37.3534C41.3235 37.4499 41.1988 37.5763 41.1045 37.7244C40.8547 38.0907 40.7489 38.5084 40.6604 38.9352C40.4674 39.8648 40.2727 40.7944 40.0763 41.724C40.0349 41.92 39.9683 41.9709 39.7678 41.9715C39.4973 41.9715 39.2263 41.9715 38.9558 41.9715C38.7839 41.9715 38.7318 41.9009 38.7642 41.7318C39.0256 40.4546 39.288 39.1774 39.5516 37.9003C39.5807 37.7592 39.6154 37.6203 39.5729 37.4724C39.5393 37.3604 39.4788 37.2876 39.3489 37.277C39.1926 37.2641 39.1591 37.2098 39.1904 37.053C39.2218 36.8962 39.2531 36.7422 39.2856 36.5876C39.2927 36.5287 39.3215 36.4746 39.3663 36.4358C39.4111 36.397 39.4688 36.3762 39.5281 36.3776C39.7568 36.363 39.9863 36.3853 40.2079 36.4437C40.577 36.5507 40.731 36.7394 40.7679 37.1213C40.7679 37.1616 40.7679 37.202 40.7752 37.2759Z" fill="white"/>
<path d="M8.06899 37.5469H8.91459C9.33459 37.5469 9.75459 37.5469 10.1746 37.5469C10.3767 37.5469 10.4255 37.6062 10.3857 37.8045C10.3543 37.9596 10.3207 38.1142 10.286 38.2687C10.2418 38.4636 10.174 38.5174 9.96179 38.5174C9.31779 38.5174 8.67379 38.5174 8.03035 38.5129C7.90771 38.5129 7.85675 38.5364 7.83043 38.6691C7.63555 39.6558 7.42835 40.6398 7.22619 41.6254C7.17019 41.9054 7.12539 41.9434 6.83419 41.9434C6.56819 41.9434 6.30219 41.9434 6.03675 41.9434C5.84411 41.9434 5.79427 41.8813 5.83347 41.692C6.06867 40.5518 6.30443 39.4121 6.54075 38.2726C6.79835 37.0276 7.0552 35.7827 7.31131 34.538C7.37403 34.2334 7.41603 34.1964 7.73075 34.197L11.3707 34.2037C11.6306 34.2037 11.6698 34.2513 11.6166 34.4994C11.5852 34.645 11.5555 34.7911 11.5208 34.9362C11.4777 35.117 11.4139 35.1674 11.2279 35.1674C10.3879 35.1674 9.54795 35.1674 8.70795 35.1674C8.59595 35.1674 8.54891 35.1882 8.52539 35.3074C8.37979 36.0494 8.22411 36.792 8.06899 37.5469Z" fill="white"/>
<path d="M19.0848 42.084C18.6415 42.0799 18.2019 42.0043 17.7828 41.86C17.6351 41.8141 17.5006 41.7332 17.3908 41.6243C17.2788 41.5072 17.2788 41.4003 17.3768 41.2748C17.4406 41.1947 17.5117 41.1208 17.58 41.0435C17.748 40.8515 17.776 40.8447 18.028 40.9315C18.3775 41.0491 18.7292 41.1555 19.1004 41.174C19.4292 41.1914 19.7523 41.1785 20.0625 41.0519C20.1847 41.004 20.2929 40.9265 20.3776 40.8263C20.4623 40.7261 20.5207 40.6064 20.5475 40.4779C20.5996 40.2758 20.5408 40.1363 20.3633 40.0243C20.1743 39.9134 19.9723 39.8265 19.7618 39.7656C19.5233 39.6883 19.2852 39.6049 19.0428 39.5416C18.1748 39.3103 17.9659 38.6557 18.1356 37.9103C18.3377 37.0227 19.04 36.3983 19.9735 36.2651C20.6382 36.1715 21.2945 36.2091 21.9206 36.4851C22.0464 36.5349 22.1626 36.6061 22.2639 36.6957C22.3681 36.7954 22.3759 36.8783 22.2863 36.9886C22.1743 37.1219 22.0578 37.2473 21.9464 37.3806C21.8904 37.4461 21.8293 37.4416 21.7576 37.4209C21.4849 37.3431 21.2245 37.2238 20.944 37.1728C20.6242 37.1168 20.3039 37.0972 19.988 37.1879C19.8519 37.2239 19.7272 37.2943 19.6261 37.3924C19.525 37.4905 19.4508 37.6129 19.4107 37.7479C19.3099 38.0475 19.4202 38.2615 19.7215 38.3561C20.0945 38.4731 20.4691 38.584 20.8415 38.6977C21.0297 38.75 21.2109 38.8252 21.3808 38.9217C21.6955 39.1093 21.8512 39.391 21.8696 39.7511C21.9195 40.7176 21.3993 41.4843 20.4405 41.8606C20.0289 42.0219 19.6 42.0857 19.0848 42.084Z" fill="white"/>
<path d="M23.7654 37.2114C23.5946 37.2114 23.4221 37.2114 23.2502 37.2114C23.0508 37.2114 23.0066 37.1594 23.0447 36.9684C23.0721 36.8312 23.1007 36.6946 23.1337 36.559C23.143 36.5029 23.1728 36.4522 23.2172 36.4168C23.2617 36.3813 23.3177 36.3636 23.3745 36.367C23.5285 36.367 23.6831 36.358 23.8365 36.367C23.9395 36.3742 23.9709 36.335 23.9871 36.2398C24.0297 35.9878 24.0846 35.7358 24.1327 35.4855C24.1417 35.4396 24.1456 35.3976 24.1966 35.3735C24.6575 35.1417 25.1178 34.9076 25.5915 34.6674C25.6039 34.818 25.5551 34.944 25.5311 35.0717C25.4577 35.4637 25.3776 35.8484 25.2947 36.2359C25.2729 36.3373 25.288 36.3759 25.4039 36.3698C25.5943 36.3602 25.7864 36.3653 25.9774 36.3698C26.1319 36.3726 26.1801 36.4286 26.1527 36.5814C26.1252 36.7343 26.0922 36.8732 26.0569 37.0177C26.0216 37.1622 25.932 37.2176 25.7915 37.2165C25.591 37.2165 25.3899 37.2165 25.1895 37.2165C25.1178 37.2165 25.0814 37.2327 25.0657 37.3089C24.8577 38.3505 24.6479 39.3913 24.4363 40.4314C24.4105 40.5507 24.4165 40.6747 24.4536 40.791C24.4819 40.8707 24.5348 40.9394 24.6046 40.9872C24.6745 41.035 24.7577 41.0595 24.8423 41.057C25.2124 41.0665 25.2158 41.0698 25.1452 41.4344C25.1234 41.5464 25.0987 41.6623 25.0724 41.7754C25.0647 41.8272 25.0385 41.8744 24.9986 41.9082C24.9588 41.9421 24.908 41.9604 24.8557 41.9597C24.5578 41.967 24.2571 41.9866 23.9597 41.9339C23.3773 41.8298 23.0889 41.4859 23.0788 40.8878C23.0721 40.4958 23.1791 40.1223 23.2558 39.7438C23.4238 38.9133 23.5968 38.0834 23.7671 37.2529C23.7683 37.2391 23.7678 37.2251 23.7654 37.2114Z" fill="white"/>
<path d="M16.0333 36.9919C16.0876 36.9224 16.1453 36.8556 16.2064 36.792C16.6247 36.3955 17.136 36.2628 17.6971 36.2734C17.8091 36.2734 17.8578 36.3093 17.8276 36.4353C17.7671 36.6839 17.7206 36.9359 17.6669 37.1862C17.6193 37.4102 17.5459 37.4472 17.3224 37.4197C16.7496 37.3497 16.1229 37.5469 15.9364 38.3717C15.6878 39.4749 15.4498 40.5809 15.2084 41.6858C15.1524 41.9496 15.1032 41.9899 14.8299 41.9893C14.5829 41.9893 14.3354 41.9893 14.0885 41.9893C13.8953 41.9893 13.8477 41.9272 13.8885 41.7368C14.1637 40.4577 14.4392 39.1791 14.7151 37.9008C14.7447 37.788 14.7594 37.6718 14.7588 37.5553C14.7498 37.3693 14.6826 37.2921 14.4961 37.2618C14.3841 37.2439 14.3315 37.1812 14.3533 37.0669C14.3853 36.8989 14.4172 36.7309 14.4553 36.5629C14.4631 36.5064 14.4914 36.4547 14.5349 36.4177C14.5784 36.3808 14.634 36.3611 14.691 36.3625C14.98 36.358 15.2695 36.3625 15.5501 36.4481C15.811 36.5277 15.9712 36.6957 15.9936 36.979L16.0333 36.9919Z" fill="white"/>
<path d="M11.1344 41.011C11.1462 40.6117 11.2615 40.2304 11.3444 39.844C11.5723 38.78 11.8064 37.716 12.0388 36.652C12.0814 36.4565 12.1508 36.4033 12.3468 36.4022C12.6082 36.4022 12.8695 36.4022 13.1308 36.4022C13.3274 36.4022 13.375 36.4582 13.3341 36.6481C13.059 37.9226 12.7829 39.1968 12.5059 40.4706C12.4679 40.6249 12.4542 40.7842 12.465 40.9427C12.4818 41.1213 12.5451 41.1891 12.7175 41.2149C12.8206 41.2305 12.8682 41.2916 12.8508 41.3896C12.8183 41.5733 12.7814 41.7558 12.7388 41.9367C12.7282 41.9851 12.7011 42.0283 12.6622 42.0589C12.6233 42.0895 12.575 42.1057 12.5255 42.1047C12.2455 42.1137 11.9655 42.0913 11.7023 41.9798C11.3119 41.8174 11.1243 41.4893 11.1344 41.011Z" fill="white"/>
<path d="M30.6985 45.3857C31.1712 45.654 31.2126 46.1921 30.8105 46.5802C30.5171 46.8658 29.8765 46.9577 29.5125 46.7673C29.4276 46.7264 29.3562 46.6622 29.3066 46.5821C29.257 46.5021 29.2313 46.4095 29.2325 46.3153C29.2215 46.1537 29.2561 45.9922 29.3324 45.8494C29.4088 45.7065 29.5237 45.5879 29.6642 45.5073C29.7342 45.4636 29.811 45.4305 29.8838 45.3953C29.8838 45.3846 29.8837 45.3717 29.8793 45.3695C29.4811 45.1634 29.5696 44.7854 29.7779 44.4892C29.8832 44.3503 30.0341 44.2529 30.2041 44.2142C30.3942 44.164 30.593 44.1564 30.7865 44.1918C30.9724 44.2226 31.1426 44.2999 31.2003 44.4993C31.2355 44.6055 31.2429 44.7189 31.2219 44.8288C31.2008 44.9387 31.1519 45.0414 31.0799 45.127C30.9808 45.2435 30.8497 45.3135 30.6985 45.3857ZM29.7096 46.1753C29.7054 46.2551 29.731 46.3337 29.7814 46.3957C29.8318 46.4578 29.9033 46.499 29.9823 46.5113C30.3525 46.5909 30.7103 46.2123 30.6179 45.8393C30.603 45.7656 30.5631 45.6993 30.505 45.6516C30.4468 45.604 30.3739 45.5779 30.2987 45.5778C29.9834 45.5644 29.7085 45.8421 29.7096 46.1753ZM30.4841 44.5133C30.4306 44.5129 30.3775 44.5231 30.3279 44.5432C30.2784 44.5634 30.2332 44.5931 30.1952 44.6307C30.1571 44.6683 30.1268 44.7131 30.106 44.7624C30.0853 44.8117 30.0744 44.8646 30.0741 44.9181C30.0719 44.9553 30.0771 44.9926 30.0894 45.0277C30.1017 45.0629 30.1209 45.0953 30.1459 45.1229C30.1709 45.1505 30.2011 45.1729 30.2349 45.1887C30.2686 45.2045 30.3052 45.2134 30.3424 45.2149C30.5468 45.2183 30.7624 44.9909 30.7669 44.772C30.7697 44.6185 30.6554 44.5144 30.4841 44.5133Z" fill="white"/>
<path d="M33.2887 44.6959C33.2771 44.5712 33.2248 44.4538 33.1399 44.3618C33.055 44.2698 32.9422 44.2083 32.8188 44.1868C32.6435 44.1555 32.463 44.1695 32.2947 44.2277C31.8119 44.4019 31.6367 44.795 31.5913 45.2592C31.5437 45.7587 31.8338 46.0163 32.3344 45.9581C32.5237 45.9357 32.6542 45.8299 32.7886 45.7061C32.7754 45.8691 32.7238 46.0267 32.6379 46.1659C32.4929 46.4279 32.2762 46.5612 31.9693 46.5097C31.8676 46.4981 31.7673 46.4767 31.6697 46.4459C31.5017 46.3826 31.4978 46.531 31.4502 46.6077C31.3908 46.7035 31.4944 46.7242 31.5493 46.7511C32.0124 46.9812 32.5209 46.8821 32.8373 46.4621C33.2338 45.943 33.3727 45.341 33.2887 44.6959ZM32.8877 44.9439C32.8672 45.1015 32.8164 45.2537 32.7382 45.3919C32.6497 45.537 32.5282 45.6243 32.3495 45.6159C32.1255 45.6103 32.0275 45.5101 32.0326 45.2536C32.0429 45.1015 32.0825 44.9528 32.1491 44.8157C32.1909 44.7214 32.2604 44.6421 32.3484 44.5883C32.4789 44.5127 32.6228 44.4719 32.7578 44.5581C32.8927 44.6443 32.9129 44.7927 32.8877 44.9439Z" fill="white"/>
<path d="M34.552 46.2H33.5608C33.4236 46.2 33.3973 46.1569 33.46 46.032C33.4849 45.9876 33.5154 45.9466 33.5507 45.9099C34.0037 45.3902 34.4641 44.8767 34.9081 44.3498C35.0386 44.1947 35.1881 44.2109 35.35 44.2193C35.4413 44.2238 35.406 44.2994 35.3953 44.3486C35.3162 44.7362 35.2363 45.1233 35.1557 45.5101C35.1419 45.5975 35.1232 45.6841 35.0997 45.7694C35.0677 45.8679 35.1114 45.8735 35.1921 45.878C35.2553 45.8814 35.3679 45.822 35.3651 45.962C35.3612 46.1524 35.3197 46.2129 35.1775 46.1978C35.0353 46.1827 34.9854 46.2392 34.9765 46.3658C34.97 46.4118 34.9608 46.4574 34.949 46.5024C34.879 46.8451 34.879 46.8423 34.529 46.8233C34.4422 46.8182 34.4265 46.7835 34.4422 46.7113C34.4786 46.5472 34.5128 46.3831 34.552 46.2ZM34.8141 44.921L34.0161 45.873C34.2188 45.873 34.384 45.873 34.5492 45.873C34.5595 45.8744 34.5699 45.8736 34.5799 45.8708C34.5899 45.8679 34.5992 45.863 34.6072 45.8564C34.6152 45.8498 34.6218 45.8415 34.6264 45.8322C34.6311 45.8229 34.6338 45.8128 34.6343 45.8024C34.6903 45.5224 34.748 45.2413 34.8135 44.9204L34.8141 44.921Z" fill="white"/>
<path d="M18.578 46.8541C18.3642 46.8538 18.1526 46.812 17.9547 46.7309C17.9055 46.7096 17.8086 46.6967 17.8528 46.6189C17.8971 46.5411 17.9049 46.3899 18.0628 46.4274C18.2791 46.4848 18.5022 46.5123 18.7259 46.5091C18.8435 46.5064 18.9587 46.4754 19.0619 46.419C19.3223 46.2734 19.3318 45.9956 19.0742 45.8439C18.9474 45.7766 18.8165 45.7174 18.6822 45.6669C18.1295 45.4289 18.027 44.8896 18.4655 44.4719C18.8183 44.1359 19.2433 44.1073 19.693 44.2227C19.7333 44.2333 19.7725 44.2479 19.8123 44.2613C20.0256 44.3347 20.0295 44.3503 19.9131 44.5346C19.907 44.5481 19.8984 44.5602 19.8876 44.5704C19.8768 44.5805 19.8641 44.5884 19.8503 44.5936C19.8364 44.5988 19.8217 44.6012 19.8069 44.6007C19.7921 44.6002 19.7776 44.5967 19.7641 44.5906C19.5455 44.5225 19.3158 44.4974 19.0876 44.5167C19.0103 44.5215 18.9351 44.5446 18.8684 44.5841C18.8017 44.6236 18.7454 44.6784 18.704 44.744C18.592 44.926 18.6335 45.0912 18.8244 45.1847C18.9538 45.248 19.0904 45.2967 19.2226 45.3527C19.7927 45.5947 19.8733 46.2308 19.3839 46.6127C19.18 46.7695 18.9107 46.8524 18.578 46.8541Z" fill="white"/>
<path d="M21.8825 45.2189C22.0129 45.0783 22.1221 44.9456 22.3041 44.9053C22.7975 44.7966 23.138 45.1259 23.0372 45.6199C22.9901 45.8523 22.9403 46.0841 22.8955 46.3171C22.8798 46.3999 22.8703 46.4744 22.9817 46.5203C23.0691 46.5562 22.9935 46.643 22.9907 46.7068C22.9918 46.7207 22.99 46.7347 22.9854 46.7479C22.9807 46.7611 22.9734 46.7732 22.9639 46.7834C22.9544 46.7936 22.9428 46.8018 22.93 46.8073C22.9172 46.8128 22.9033 46.8156 22.8893 46.8154C22.5836 46.8502 22.3921 46.6536 22.4458 46.349C22.4861 46.1199 22.5354 45.8926 22.5802 45.6641C22.5884 45.6272 22.5934 45.5898 22.5953 45.5521C22.5993 45.4194 22.5953 45.285 22.4548 45.2161C22.3338 45.1562 22.144 45.2071 22.0353 45.3281C21.9267 45.449 21.8769 45.6081 21.8433 45.7705C21.7783 46.0802 21.7111 46.3893 21.6501 46.7001C21.6494 46.7173 21.6452 46.7342 21.6377 46.7496C21.6301 46.7651 21.6194 46.7788 21.6062 46.7898C21.5929 46.8009 21.5776 46.809 21.561 46.8137C21.5445 46.8184 21.5271 46.8196 21.5101 46.8171C21.1825 46.825 21.183 46.8278 21.2491 46.5069C21.3219 46.1511 21.3941 45.7955 21.4658 45.4401C21.4832 45.3533 21.5078 45.2614 21.3796 45.229C21.3236 45.2144 21.3359 45.1612 21.3505 45.1242C21.3762 45.0598 21.3443 44.9663 21.4429 44.9383C21.4903 44.9233 21.5404 44.9189 21.5897 44.9254C21.639 44.9319 21.6863 44.9491 21.7282 44.9759C21.7701 45.0027 21.8057 45.0383 21.8323 45.0803C21.859 45.1222 21.8761 45.1696 21.8825 45.2189Z" fill="white"/>
<path d="M26.0799 46.0287C25.9589 46.0287 25.8368 46.0348 25.7164 46.0287C25.6268 46.0231 25.6044 46.0611 25.6044 46.1407C25.5927 46.4352 25.7517 46.5915 26.0435 46.5556C26.1634 46.5405 26.2816 46.5135 26.3963 46.475C26.4853 46.4453 26.5183 46.475 26.5536 46.5506C26.5889 46.6262 26.5732 46.6844 26.4976 46.7225C26.2675 46.8394 26.0082 46.8865 25.7517 46.858C25.3177 46.8155 25.1211 46.564 25.162 46.1272C25.1796 45.8899 25.2421 45.658 25.3463 45.444C25.5607 45.0167 25.9623 44.8196 26.4226 44.912C26.6903 44.968 26.8482 45.1433 26.8616 45.416C26.8661 45.4998 26.8605 45.5839 26.8448 45.6663C26.7888 45.9363 26.6768 46.0275 26.4019 46.0331C26.2949 46.0331 26.1874 46.0331 26.0804 46.0331L26.0799 46.0287ZM25.6783 45.7223H26.2759C26.2987 45.7251 26.3219 45.7212 26.3427 45.7113C26.3636 45.7014 26.3811 45.6858 26.3935 45.6663C26.4539 45.5627 26.4254 45.3455 26.3375 45.2603C26.2495 45.1752 26.1185 45.1685 25.9886 45.2424C25.8066 45.3449 25.7399 45.528 25.6783 45.7223Z" fill="white"/>
<path d="M13.1807 34.272C13.3297 34.272 13.4786 34.2686 13.6287 34.272C13.7642 34.2759 13.8174 34.3381 13.7917 34.468C13.7334 34.7599 13.6718 35.0508 13.6069 35.3405C13.5727 35.49 13.4949 35.551 13.3381 35.5522C13.0581 35.5522 12.7781 35.5522 12.4981 35.5522C12.3234 35.5494 12.2741 35.4827 12.3116 35.3125C12.3676 35.0398 12.4281 34.767 12.4891 34.4954C12.5255 34.333 12.5978 34.2754 12.7607 34.2714C12.9002 34.2714 13.0407 34.2714 13.1796 34.2714L13.1807 34.272Z" fill="white"/>
<path d="M28.4822 44.7535C28.331 44.8162 28.1955 44.8728 28.0588 44.9271C28.0252 44.9406 27.9765 44.9641 27.9558 44.9506C27.9155 44.9249 27.9474 44.8739 27.9497 44.8336C27.9581 44.688 28.0325 44.6034 28.1737 44.5502C28.4301 44.4517 28.6777 44.3346 28.9313 44.2266C28.9683 44.2103 29.0092 44.1706 29.0433 44.1941C29.0775 44.2176 29.0484 44.2719 29.0433 44.31C28.8826 45.0996 28.7191 45.8886 28.5601 46.6782C28.5388 46.7841 28.4917 46.8222 28.3814 46.8205C28.0628 46.816 28.065 46.8205 28.1305 46.5097C28.247 45.9586 28.3601 45.4065 28.4744 44.8549C28.4783 44.8286 28.4777 44.8 28.4822 44.7535Z" fill="white"/>
<path d="M23.4029 46.1843C23.4087 45.9271 23.4702 45.6741 23.5833 45.4429C23.8168 44.9557 24.4395 44.7368 24.9149 44.9764C24.9754 45.0072 25.088 45.0229 25.0482 45.1343C25.0029 45.2587 24.8925 45.3119 24.7839 45.2603C24.3555 45.0587 24.0525 45.3124 23.9377 45.6697C23.876 45.8459 23.8479 46.032 23.8549 46.2185C23.8694 46.4504 24.0133 46.5736 24.2469 46.5545C24.3577 46.5399 24.4663 46.5121 24.5705 46.4716C24.6265 46.4532 24.6769 46.4352 24.7055 46.5131C24.729 46.5775 24.7744 46.6335 24.6977 46.699C24.4619 46.9 23.8537 46.9157 23.6113 46.722C23.4343 46.5842 23.3985 46.3915 23.4029 46.1843Z" fill="white"/>
<path d="M20.0823 46.3943C20.1338 46.1373 20.1943 45.8343 20.2576 45.5269C20.29 45.3673 20.3281 45.2088 20.3561 45.0486C20.3566 45.0314 20.3607 45.0145 20.3681 44.9989C20.3756 44.9834 20.3863 44.9697 20.3994 44.9585C20.4126 44.9474 20.428 44.9392 20.4446 44.9345C20.4611 44.9298 20.4785 44.9286 20.4956 44.931C20.8265 44.921 20.8248 44.9181 20.7588 45.2373C20.6854 45.5929 20.6126 45.948 20.5426 46.3041C20.5258 46.3904 20.5096 46.4721 20.63 46.5186C20.7151 46.5511 20.6428 46.6306 20.64 46.6928C20.6372 46.7549 20.6204 46.8003 20.5493 46.8143C20.2979 46.8636 20.0823 46.6939 20.0823 46.3943Z" fill="white"/>
<path d="M20.7614 44.1319C20.8174 44.1319 20.8605 44.1319 20.9019 44.1319C20.9434 44.1319 20.9809 44.1498 20.9725 44.1969C20.9534 44.3016 20.9299 44.4052 20.9042 44.5082C20.8941 44.5474 20.8582 44.5609 20.819 44.5682C20.4886 44.6275 20.4506 44.581 20.5178 44.2568C20.5519 44.081 20.6785 44.147 20.7614 44.1319Z" fill="white"/>
<path d="M30.0988 20.6892C28.8265 20.6332 27.5732 20.4725 26.3731 20.0172C25.3332 19.6252 24.4238 19.0423 23.7518 18.1362C23.1482 17.3257 22.8137 16.3465 22.7953 15.3362C22.7622 14.2414 23.0025 13.1891 23.32 12.152C23.3844 11.942 23.5261 11.8536 23.7809 11.8418C24.0771 11.8272 24.3644 11.8978 24.6545 11.9392C25.6507 12.0803 26.6481 12.2159 27.6404 12.3811C27.9473 12.432 28.2071 12.4018 28.4518 12.2187C28.7514 11.9947 29.0897 11.9543 29.4548 11.9711C30.084 11.9924 30.7092 12.0797 31.3202 12.2315C31.3844 12.2429 31.4451 12.2694 31.4971 12.3088C32.3808 13.0783 33.2438 13.869 33.9734 14.7919C34.3038 15.2096 34.3027 15.213 34.2355 15.7439C34.2286 15.7865 34.2315 15.8302 34.244 15.8715C34.2565 15.9129 34.2783 15.9508 34.3078 15.9824C34.6102 16.3498 34.8918 16.7334 35.1881 17.1052C35.6014 17.6244 35.7968 18.2196 35.869 18.8659C35.9015 19.153 35.9301 19.4406 35.9547 19.7288C35.9676 19.8811 35.9598 19.8845 35.8181 19.8106C35.436 19.6061 35.0671 19.3777 34.7138 19.1268C34.3296 18.8614 33.9533 18.5864 33.5893 18.2947C33.4783 18.204 33.3443 18.1459 33.2023 18.1267C32.7872 18.0586 32.3612 18.1156 31.9785 18.2904C31.5959 18.4652 31.2739 18.75 31.0536 19.1083C30.9825 19.2237 30.9819 19.2993 31.0978 19.3699C31.1177 19.3833 31.1364 19.3983 31.1538 19.4147C31.4187 19.6443 31.4193 19.6448 31.2754 19.9747C31.2552 20.0211 31.2311 20.0671 31.2076 20.1124C31.0004 20.5044 30.7383 20.8096 30.2265 20.6931C30.1842 20.6872 30.1414 20.6859 30.0988 20.6892ZM31.4562 15.8055L30.6997 14.9565C30.6364 14.8854 30.6017 14.9565 30.5647 14.9867C30.1817 15.3205 29.7994 15.6554 29.4178 15.9914C29.3854 16.0199 29.3372 16.039 29.3305 16.1006L31.4562 15.8055Z" fill="#162D4C"/>
<path d="M29.9851 27.5621L29.5142 27.2261C28.2396 26.3233 26.9658 25.4201 25.6927 24.5162C25.6522 24.4833 25.6032 24.4624 25.5513 24.4558C25.4994 24.4493 25.4468 24.4574 25.3993 24.4793C24.4417 24.8153 23.4807 25.1417 22.5259 25.4873C22.3271 25.5589 22.1502 25.4996 21.9659 25.48C21.6781 25.4497 21.6781 25.4464 21.7386 25.1602C22.2202 22.8668 22.702 20.5742 23.1839 18.2823C23.1895 18.2565 23.1963 18.2308 23.2024 18.2045C23.2584 18.2173 23.2713 18.2633 23.2931 18.2952C24.3818 19.9119 25.9078 20.8617 27.8011 21.2514C28.5283 21.3976 29.2681 21.4709 30.0098 21.4704C30.1218 21.4704 30.1509 21.5057 30.1571 21.6109C30.1767 21.9273 30.2058 22.2432 30.2349 22.559C30.2475 22.6748 30.238 22.7918 30.2069 22.904C30.1246 23.1907 30.0495 23.4791 29.9667 23.7653C29.9544 23.8019 29.9508 23.841 29.9562 23.8793C29.9617 23.9176 29.976 23.9541 29.998 23.9859C30.4947 24.7861 30.9864 25.5886 31.4815 26.3894C31.5271 26.4594 31.5525 26.5406 31.5548 26.6241C31.5688 27.0855 31.5867 27.5469 31.6058 28.0084C31.6092 28.0778 31.5968 28.1472 31.5694 28.2111C31.3555 28.7325 31.1471 29.2561 30.9293 29.7757C30.8607 29.9286 30.8254 30.0943 30.8257 30.2618C30.8257 30.4102 30.8111 30.5586 30.8027 30.7031C30.7613 30.7227 30.7434 30.6941 30.7238 30.6773C29.9398 30.0277 29.1614 29.3759 28.3768 28.7291C28.285 28.6535 28.2895 28.6221 28.388 28.5611C28.8763 28.2609 29.3613 27.9552 29.8468 27.6505C29.8877 27.6265 29.9263 27.6007 29.9851 27.5621Z" fill="#162D4C"/>
<path d="M25.5086 25.0101C25.5544 25.0148 25.597 25.0359 25.6285 25.0695C26.3583 25.5802 27.088 26.0904 27.8175 26.6C27.9026 26.6588 27.9239 26.712 27.9015 26.8173C27.6775 27.8813 27.4669 28.9531 27.2485 30.0205C27.2277 30.1108 27.2413 30.2056 27.2866 30.2865C27.3751 30.4545 27.4546 30.6275 27.5358 30.7966C27.4944 30.842 27.4501 30.8241 27.4115 30.8241C26.5205 30.8241 25.6296 30.8241 24.7381 30.828C24.6997 30.832 24.6612 30.8228 24.6288 30.8018C24.5965 30.7808 24.5724 30.7493 24.5605 30.7126C24.4961 30.5681 24.4267 30.4253 24.3483 30.2876C24.3242 30.2486 24.3106 30.204 24.3088 30.1581C24.307 30.1123 24.3172 30.0668 24.3382 30.0261C24.7089 29.1463 25.0741 28.2643 25.4437 27.3845C25.4888 27.2783 25.5115 27.1639 25.5103 27.0485C25.5064 26.3715 25.5086 25.6956 25.5086 25.0101Z" fill="#162D4C"/>
<path d="M37.8371 21.7879C36.1895 21.7879 34.6859 21.2951 33.2882 20.4439C32.7937 20.1439 32.3272 19.8 31.8943 19.4163C31.812 19.3435 31.8137 19.2926 31.8764 19.2125C32.2158 18.7779 32.6716 18.657 33.1963 18.7124C33.3802 18.7343 33.5545 18.8062 33.7003 18.9202C34.8248 19.7467 36.0406 20.3902 37.4047 20.729C38.1708 20.9181 38.9634 20.976 39.7489 20.9003C39.9343 20.8835 40.1219 20.8869 40.3089 20.8886C40.3862 20.8886 40.4769 20.8953 40.5127 20.9804C40.5514 21.0762 40.4915 21.1484 40.4254 21.2139C40.2859 21.3386 40.1207 21.4309 39.9415 21.4844C39.3591 21.686 38.7549 21.7616 38.1428 21.7862C38.042 21.7913 37.9395 21.7879 37.8371 21.7879Z" fill="#162D4C"/>
<path d="M33.6672 21.1843C34.2165 21.5017 34.8058 21.7441 35.4194 21.905C35.5723 21.9463 35.7275 21.9784 35.8842 22.0013C35.9766 22.0136 35.9884 22.0528 35.9794 22.129C35.9618 22.3614 35.9099 22.5899 35.8254 22.8071C35.4945 23.5771 35.1159 24.3264 34.7973 25.1031C34.6645 25.4263 34.5273 25.7477 34.4613 26.0927C34.384 26.4847 34.6556 26.7697 35.0509 26.6986C35.1573 26.6795 35.1893 26.7053 35.2089 26.8039C35.238 26.9596 35.2536 27.1175 35.2553 27.2759C35.2586 27.3129 35.2501 27.35 35.231 27.3818C35.2118 27.4136 35.1831 27.4385 35.1489 27.4529C34.7093 27.6797 34.291 27.5985 33.9102 27.3319C33.5065 27.0491 33.3502 26.6202 33.3267 26.1442C33.2953 25.5551 33.3732 24.9715 33.4493 24.3886C33.5479 23.6404 33.7081 22.9012 33.782 22.1486C33.8061 21.9033 33.726 21.6692 33.7041 21.4284C33.6952 21.3545 33.6817 21.28 33.6672 21.1843Z" fill="#162D4C"/>
<path d="M31.4564 15.8054L29.3284 16.1006C29.3351 16.039 29.3844 16.0199 29.4157 15.9914C29.7969 15.6554 30.1792 15.3205 30.5626 14.9867C30.5996 14.9548 30.6343 14.8854 30.6976 14.9565L31.4564 15.8054Z" fill="#DCAA10"/>
</svg>
