<svg width="34" height="56" viewBox="0 0 34 56" fill="none" xmlns="http://www.w3.org/2000/svg">
<g clip-path="url(#clip0_660_6635)">
<path d="M3.34614 25.0734C4.10886 25.5993 4.79038 25.9913 5.77878 26.3172L6.59358 21.537L3.80702 21.56L3.34614 25.0734ZM2.83318 28.028L1.79102 34.533H4.4919L5.26862 29.6296C4.30934 29.1788 3.7247 29.0147 2.83318 28.028Z" fill="#68AC48"/>
<path d="M11.5378 21.6373L10.728 26.7865L13.4804 26.4146L14.0533 22.6167L14.0539 22.6133L14.0813 22.4313H14.083L14.2118 21.6373H11.5378Z" fill="url(#paint0_linear_660_6635)"/>
<path d="M16.7822 21.6373H14.9745L14.8323 22.4381L16.6495 22.456C16.8175 22.4448 18.3855 22.6665 18.2124 24.4569C18.1828 24.7649 17.8176 26.073 17.6463 26.269C18.5255 26.4337 19.1544 26.549 19.7334 26.8957C20.4272 26.3844 20.9721 25.5393 21.1037 24.6422C21.5215 21.8663 19.1297 21.6373 16.7822 21.6373Z" fill="url(#paint1_linear_660_6635)"/>
<path d="M17.8255 29.456C17.9829 30.3363 18.0747 30.935 17.6345 32.0225C17.2112 33.0669 15.8577 33.782 15.2036 33.7434L12.9938 33.7378L12.8762 34.3913H15.3822C18.7277 34.608 19.9535 33.3945 20.7868 31.36C20.4603 30.7266 20.2128 29.8189 17.8255 29.456Z" fill="url(#paint2_linear_660_6635)"/>
<path d="M10.1866 30.1375L9.5415 34.3907H12.2329L12.3673 33.5306L12.3796 33.4511L12.9278 29.806L10.1866 30.1375Z" fill="url(#paint3_linear_660_6635)"/>
<path d="M1.60864 24.7744C1.60864 24.7744 4.94568 27.4148 8.62376 27.4148C12.3018 27.4148 12.8182 26.6902 16.1446 26.6902C19.5572 26.6902 21.273 27.6909 20.9678 30.6102C20.9678 30.6102 20.4078 28.7801 16.8597 28.7801C13.3115 28.7801 12.6177 29.6643 9.13896 29.6643C5.66024 29.6643 2.71408 28.3394 1.60864 24.7744Z" fill="url(#paint4_linear_660_6635)"/>
<path d="M26.4026 21.336H27.3641L27.0589 23.4875H29.5857L29.8897 21.336H30.8513L30.0897 26.7361H29.127L29.463 24.355H26.9369L26.6009 26.7361H25.6399L26.4026 21.336Z" fill="#68AC48"/>
<path d="M32.1564 25.2252C32.1413 25.7667 32.5076 26.0949 33.0188 26.0949C33.4764 26.0949 33.8028 25.8815 34.0716 25.5993L34.6591 26.096C34.1551 26.6224 33.5833 26.8285 33.0032 26.8285C31.8966 26.8285 31.126 26.0579 31.2862 24.9055C31.4464 23.753 32.4387 22.983 33.5452 22.983C34.5678 22.983 35.1625 23.7003 34.9794 24.9743L34.9492 25.2263L32.1564 25.2252ZM34.1248 24.5381C34.1937 24.0044 33.8964 23.6684 33.324 23.6684C32.782 23.6684 32.3928 24.0117 32.2477 24.5381H34.1248Z" fill="#68AC48"/>
<path d="M26.4026 29.2258H28.5088C29.3253 29.2258 30.1115 29.5999 29.9648 30.5844C29.8808 31.1948 29.4457 31.5991 28.8661 31.7671L28.8582 31.7822C29.5302 31.8584 29.9418 32.3926 29.8427 33.087C29.6825 34.263 28.6062 34.6281 27.5837 34.6281H25.6399L26.4026 29.2258ZM26.7157 33.8044H27.601C28.0966 33.8044 28.7989 33.7204 28.898 33.0109C28.9741 32.4458 28.6387 32.2476 27.8603 32.2476H26.9369L26.7157 33.8044ZM27.0517 31.4233H27.9292C28.5704 31.4233 28.9293 31.1489 28.9898 30.7445C29.0509 30.2792 28.7613 30.0501 28.0378 30.0501H27.2421L27.0517 31.4233Z" fill="#68AC48"/>
<path d="M32.8581 34.1247H32.8335C32.521 34.5369 32.0629 34.72 31.5746 34.72C30.8953 34.72 30.2928 34.3459 30.3986 33.6213C30.5588 32.4307 31.9627 32.3467 32.8783 32.3467H33.1073L33.1224 32.2476C33.1835 31.7996 32.871 31.561 32.3821 31.561C32.0032 31.5677 31.6375 31.702 31.3444 31.9424L30.9323 31.4619C31.3982 31.0497 31.9935 30.8739 32.5731 30.8739C34.1377 30.8739 33.977 32.0034 33.9087 32.5225L33.6108 34.6281H32.7898L32.8581 34.1247ZM32.9651 32.9879H32.7741C32.2701 32.9879 31.401 33.026 31.3249 33.5524C31.2789 33.8884 31.5993 34.0334 31.8966 34.0334C32.5227 34.0334 32.866 33.7053 32.9349 33.1934L32.9651 32.9879Z" fill="#68AC48"/>
</g>
<defs>
<linearGradient id="paint0_linear_660_6635" x1="11.9354" y1="23.5077" x2="14.601" y2="27.0217" gradientUnits="userSpaceOnUse">
<stop offset="0.76" stop-color="#68AC48"/>
<stop offset="0.78" stop-color="#6EAF4F"/>
<stop offset="0.81" stop-color="#7FB863"/>
<stop offset="0.84" stop-color="#9CC784"/>
<stop offset="0.88" stop-color="#C3DBB1"/>
<stop offset="0.89" stop-color="#CFE1BF"/>
<stop offset="0.91" stop-color="#A4C6A2"/>
<stop offset="0.93" stop-color="#4E9066"/>
<stop offset="0.95" stop-color="#176D41"/>
<stop offset="0.96" stop-color="#026032"/>
</linearGradient>
<linearGradient id="paint1_linear_660_6635" x1="17.7672" y1="22.5993" x2="21.5489" y2="27.5845" gradientUnits="userSpaceOnUse">
<stop offset="0.76" stop-color="#68AC48"/>
<stop offset="0.78" stop-color="#6EAF4F"/>
<stop offset="0.81" stop-color="#7FB863"/>
<stop offset="0.84" stop-color="#9CC784"/>
<stop offset="0.88" stop-color="#C3DBB1"/>
<stop offset="0.89" stop-color="#CFE1BF"/>
<stop offset="0.91" stop-color="#A4C6A2"/>
<stop offset="0.93" stop-color="#4E9066"/>
<stop offset="0.95" stop-color="#176D41"/>
<stop offset="0.96" stop-color="#026032"/>
</linearGradient>
<linearGradient id="paint2_linear_660_6635" x1="15.7821" y1="35.8702" x2="17.9067" y2="29.4963" gradientUnits="userSpaceOnUse">
<stop offset="0.22" stop-color="#68AC48"/>
<stop offset="0.33" stop-color="#63A847"/>
<stop offset="0.46" stop-color="#559E44"/>
<stop offset="0.59" stop-color="#3E8C3F"/>
<stop offset="0.73" stop-color="#1D7438"/>
<stop offset="0.83" stop-color="#026032"/>
</linearGradient>
<linearGradient id="paint3_linear_660_6635" x1="10.8788" y1="31.6294" x2="13.3545" y2="34.8931" gradientUnits="userSpaceOnUse">
<stop offset="0.76" stop-color="#68AC48"/>
<stop offset="0.78" stop-color="#6EAF4F"/>
<stop offset="0.81" stop-color="#7FB863"/>
<stop offset="0.84" stop-color="#9CC784"/>
<stop offset="0.88" stop-color="#C3DBB1"/>
<stop offset="0.89" stop-color="#CFE1BF"/>
<stop offset="0.91" stop-color="#A4C6A2"/>
<stop offset="0.93" stop-color="#4E9066"/>
<stop offset="0.95" stop-color="#176D41"/>
<stop offset="0.96" stop-color="#026032"/>
</linearGradient>
<linearGradient id="paint4_linear_660_6635" x1="1.60864" y1="27.6909" x2="21.0026" y2="27.6909" gradientUnits="userSpaceOnUse">
<stop offset="0.76" stop-color="#68AC48"/>
<stop offset="0.78" stop-color="#6EAF4F"/>
<stop offset="0.81" stop-color="#7FB863"/>
<stop offset="0.84" stop-color="#9CC784"/>
<stop offset="0.88" stop-color="#C3DBB1"/>
<stop offset="0.89" stop-color="#CFE1BF"/>
<stop offset="0.91" stop-color="#A4C6A2"/>
<stop offset="0.93" stop-color="#4E9066"/>
<stop offset="0.95" stop-color="#176D41"/>
<stop offset="0.96" stop-color="#026032"/>
</linearGradient>
<clipPath id="clip0_660_6635">
<rect width="56" height="56" fill="white" transform="translate(0.913574)"/>
</clipPath>
</defs>
</svg>
