<svg width="1120" height="704" viewBox="0 0 1120 704" fill="none" xmlns="http://www.w3.org/2000/svg">
<mask id="mask0_224_15235" style="mask-type:alpha" maskUnits="userSpaceOnUse" x="0" y="0" width="1120" height="704">
<rect width="1120" height="704" fill="url(#paint0_radial_224_15235)"/>
</mask>
<g mask="url(#mask0_224_15235)">
<rect x="54.6934" y="56.5" width="99" height="99" stroke="#FADAC9"/>
<mask id="path-2-inside-1_224_15235" fill="white">
<path d="M154.193 56H254.193V156H154.193V56Z"/>
</mask>
<path d="M254.193 56H255.193V55H254.193V56ZM254.193 156V157H255.193V156H254.193ZM154.193 57H254.193V55H154.193V57ZM253.193 56V156H255.193V56H253.193ZM254.193 155H154.193V157H254.193V155Z" fill="#FADAC9" mask="url(#path-2-inside-1_224_15235)"/>
<mask id="path-4-inside-2_224_15235" fill="white">
<path d="M254.193 56H354.193V156H254.193V56Z"/>
</mask>
<path d="M354.193 56H355.193V55H354.193V56ZM354.193 156V157H355.193V156H354.193ZM254.193 57H354.193V55H254.193V57ZM353.193 56V156H355.193V56H353.193ZM354.193 155H254.193V157H354.193V155Z" fill="#FADAC9" mask="url(#path-4-inside-2_224_15235)"/>
<mask id="path-6-inside-3_224_15235" fill="white">
<path d="M354.193 56H454.193V156H354.193V56Z"/>
</mask>
<path d="M454.193 56H455.193V55H454.193V56ZM454.193 156V157H455.193V156H454.193ZM354.193 57H454.193V55H354.193V57ZM453.193 56V156H455.193V56H453.193ZM454.193 155H354.193V157H454.193V155Z" fill="#FADAC9" mask="url(#path-6-inside-3_224_15235)"/>
<mask id="path-8-inside-4_224_15235" fill="white">
<path d="M454.193 56H554.193V156H454.193V56Z"/>
</mask>
<path d="M554.193 56H555.193V55H554.193V56ZM554.193 156V157H555.193V156H554.193ZM454.193 57H554.193V55H454.193V57ZM553.193 56V156H555.193V56H553.193ZM554.193 155H454.193V157H554.193V155Z" fill="#FADAC9" mask="url(#path-8-inside-4_224_15235)"/>
<mask id="path-10-inside-5_224_15235" fill="white">
<path d="M554.193 56H654.193V156H554.193V56Z"/>
</mask>
<path d="M654.193 56H655.193V55H654.193V56ZM654.193 156V157H655.193V156H654.193ZM554.193 57H654.193V55H554.193V57ZM653.193 56V156H655.193V56H653.193ZM654.193 155H554.193V157H654.193V155Z" fill="#FADAC9" mask="url(#path-10-inside-5_224_15235)"/>
<mask id="path-12-inside-6_224_15235" fill="white">
<path d="M654.193 56H754.193V156H654.193V56Z"/>
</mask>
<path d="M754.193 56H755.193V55H754.193V56ZM754.193 156V157H755.193V156H754.193ZM654.193 57H754.193V55H654.193V57ZM753.193 56V156H755.193V56H753.193ZM754.193 155H654.193V157H754.193V155Z" fill="#FADAC9" mask="url(#path-12-inside-6_224_15235)"/>
<mask id="path-14-inside-7_224_15235" fill="white">
<path d="M754.193 56H854.193V156H754.193V56Z"/>
</mask>
<path d="M854.193 56H855.193V55H854.193V56ZM854.193 156V157H855.193V156H854.193ZM754.193 57H854.193V55H754.193V57ZM853.193 56V156H855.193V56H853.193ZM854.193 155H754.193V157H854.193V155Z" fill="#FADAC9" mask="url(#path-14-inside-7_224_15235)"/>
<mask id="path-16-inside-8_224_15235" fill="white">
<path d="M854.193 56H954.193V156H854.193V56Z"/>
</mask>
<path d="M954.193 56H955.193V55H954.193V56ZM954.193 156V157H955.193V156H954.193ZM854.193 57H954.193V55H854.193V57ZM953.193 56V156H955.193V56H953.193ZM954.193 155H854.193V157H954.193V155Z" fill="#FADAC9" mask="url(#path-16-inside-8_224_15235)"/>
<mask id="path-18-inside-9_224_15235" fill="white">
<path d="M954.193 56H1054.19V156H954.193V56Z"/>
</mask>
<path d="M1054.19 56H1055.19V55H1054.19V56ZM1054.19 156V157H1055.19V156H1054.19ZM954.193 57H1054.19V55H954.193V57ZM1053.19 56V156H1055.19V56H1053.19ZM1054.19 155H954.193V157H1054.19V155Z" fill="#FADAC9" mask="url(#path-18-inside-9_224_15235)"/>
<mask id="path-20-inside-10_224_15235" fill="white">
<path d="M1054.19 56H1154.19V156H1054.19V56Z"/>
</mask>
<path d="M1154.19 56H1155.19V55H1154.19V56ZM1154.19 156V157H1155.19V156H1154.19ZM1054.19 57H1154.19V55H1054.19V57ZM1153.19 56V156H1155.19V56H1153.19ZM1154.19 155H1054.19V157H1154.19V155Z" fill="#FADAC9" mask="url(#path-20-inside-10_224_15235)"/>
<mask id="path-22-inside-11_224_15235" fill="white">
<path d="M54.1934 156H154.193V256H54.1934V156Z"/>
</mask>
<path d="M154.193 256V257H155.193V256H154.193ZM54.1934 256H53.1934V257H54.1934V256ZM153.193 156V256H155.193V156H153.193ZM154.193 255H54.1934V257H154.193V255ZM55.1934 256V156H53.1934V256H55.1934Z" fill="#FADAC9" mask="url(#path-22-inside-11_224_15235)"/>
<mask id="path-24-inside-12_224_15235" fill="white">
<path d="M154.193 156H254.193V256H154.193V156Z"/>
</mask>
<path d="M254.193 256V257H255.193V256H254.193ZM253.193 156V256H255.193V156H253.193ZM254.193 255H154.193V257H254.193V255Z" fill="#FADAC9" mask="url(#path-24-inside-12_224_15235)"/>
<mask id="path-26-inside-13_224_15235" fill="white">
<path d="M254.193 156H354.193V256H254.193V156Z"/>
</mask>
<path d="M354.193 256V257H355.193V256H354.193ZM353.193 156V256H355.193V156H353.193ZM354.193 255H254.193V257H354.193V255Z" fill="#FADAC9" mask="url(#path-26-inside-13_224_15235)"/>
<mask id="path-28-inside-14_224_15235" fill="white">
<path d="M354.193 156H454.193V256H354.193V156Z"/>
</mask>
<path d="M454.193 256V257H455.193V256H454.193ZM453.193 156V256H455.193V156H453.193ZM454.193 255H354.193V257H454.193V255Z" fill="#FADAC9" mask="url(#path-28-inside-14_224_15235)"/>
<mask id="path-30-inside-15_224_15235" fill="white">
<path d="M454.193 156H554.193V256H454.193V156Z"/>
</mask>
<path d="M554.193 256V257H555.193V256H554.193ZM553.193 156V256H555.193V156H553.193ZM554.193 255H454.193V257H554.193V255Z" fill="#FADAC9" mask="url(#path-30-inside-15_224_15235)"/>
<mask id="path-32-inside-16_224_15235" fill="white">
<path d="M554.193 156H654.193V256H554.193V156Z"/>
</mask>
<path d="M654.193 256V257H655.193V256H654.193ZM653.193 156V256H655.193V156H653.193ZM654.193 255H554.193V257H654.193V255Z" fill="#FADAC9" mask="url(#path-32-inside-16_224_15235)"/>
<mask id="path-34-inside-17_224_15235" fill="white">
<path d="M654.193 156H754.193V256H654.193V156Z"/>
</mask>
<path d="M754.193 256V257H755.193V256H754.193ZM753.193 156V256H755.193V156H753.193ZM754.193 255H654.193V257H754.193V255Z" fill="#FADAC9" mask="url(#path-34-inside-17_224_15235)"/>
<mask id="path-36-inside-18_224_15235" fill="white">
<path d="M754.193 156H854.193V256H754.193V156Z"/>
</mask>
<path d="M854.193 256V257H855.193V256H854.193ZM853.193 156V256H855.193V156H853.193ZM854.193 255H754.193V257H854.193V255Z" fill="#FADAC9" mask="url(#path-36-inside-18_224_15235)"/>
<mask id="path-38-inside-19_224_15235" fill="white">
<path d="M854.193 156H954.193V256H854.193V156Z"/>
</mask>
<path d="M954.193 256V257H955.193V256H954.193ZM953.193 156V256H955.193V156H953.193ZM954.193 255H854.193V257H954.193V255Z" fill="#FADAC9" mask="url(#path-38-inside-19_224_15235)"/>
<mask id="path-40-inside-20_224_15235" fill="white">
<path d="M954.193 156H1054.19V256H954.193V156Z"/>
</mask>
<path d="M954.193 156H1054.19V256H954.193V156Z" fill="#FADAC9" fill-opacity="0.3"/>
<path d="M1054.19 256V257H1055.19V256H1054.19ZM1053.19 156V256H1055.19V156H1053.19ZM1054.19 255H954.193V257H1054.19V255Z" fill="#FADAC9" mask="url(#path-40-inside-20_224_15235)"/>
<mask id="path-42-inside-21_224_15235" fill="white">
<path d="M1054.19 156H1154.19V256H1054.19V156Z"/>
</mask>
<path d="M1154.19 256V257H1155.19V256H1154.19ZM1153.19 156V256H1155.19V156H1153.19ZM1154.19 255H1054.19V257H1154.19V255Z" fill="#FADAC9" mask="url(#path-42-inside-21_224_15235)"/>
<mask id="path-44-inside-22_224_15235" fill="white">
<path d="M54.1934 256H154.193V356H54.1934V256Z"/>
</mask>
<path d="M154.193 356V357H155.193V356H154.193ZM54.1934 356H53.1934V357H54.1934V356ZM153.193 256V356H155.193V256H153.193ZM154.193 355H54.1934V357H154.193V355ZM55.1934 356V256H53.1934V356H55.1934Z" fill="#FADAC9" mask="url(#path-44-inside-22_224_15235)"/>
<mask id="path-46-inside-23_224_15235" fill="white">
<path d="M154.193 256H254.193V356H154.193V256Z"/>
</mask>
<path d="M254.193 356V357H255.193V356H254.193ZM253.193 256V356H255.193V256H253.193ZM254.193 355H154.193V357H254.193V355Z" fill="#FADAC9" mask="url(#path-46-inside-23_224_15235)"/>
<mask id="path-48-inside-24_224_15235" fill="white">
<path d="M254.193 256H354.193V356H254.193V256Z"/>
</mask>
<path d="M354.193 356V357H355.193V356H354.193ZM353.193 256V356H355.193V256H353.193ZM354.193 355H254.193V357H354.193V355Z" fill="#FADAC9" mask="url(#path-48-inside-24_224_15235)"/>
<mask id="path-50-inside-25_224_15235" fill="white">
<path d="M354.193 256H454.193V356H354.193V256Z"/>
</mask>
<path d="M454.193 356V357H455.193V356H454.193ZM453.193 256V356H455.193V256H453.193ZM454.193 355H354.193V357H454.193V355Z" fill="#FADAC9" mask="url(#path-50-inside-25_224_15235)"/>
<mask id="path-52-inside-26_224_15235" fill="white">
<path d="M454.193 256H554.193V356H454.193V256Z"/>
</mask>
<path d="M454.193 256H554.193V356H454.193V256Z" fill="#FADAC9" fill-opacity="0.3"/>
<path d="M554.193 356V357H555.193V356H554.193ZM553.193 256V356H555.193V256H553.193ZM554.193 355H454.193V357H554.193V355Z" fill="#FADAC9" mask="url(#path-52-inside-26_224_15235)"/>
<mask id="path-54-inside-27_224_15235" fill="white">
<path d="M554.193 256H654.193V356H554.193V256Z"/>
</mask>
<path d="M654.193 356V357H655.193V356H654.193ZM653.193 256V356H655.193V256H653.193ZM654.193 355H554.193V357H654.193V355Z" fill="#FADAC9" mask="url(#path-54-inside-27_224_15235)"/>
<mask id="path-56-inside-28_224_15235" fill="white">
<path d="M654.193 256H754.193V356H654.193V256Z"/>
</mask>
<path d="M754.193 356V357H755.193V356H754.193ZM753.193 256V356H755.193V256H753.193ZM754.193 355H654.193V357H754.193V355Z" fill="#FADAC9" mask="url(#path-56-inside-28_224_15235)"/>
<mask id="path-58-inside-29_224_15235" fill="white">
<path d="M754.193 256H854.193V356H754.193V256Z"/>
</mask>
<path d="M854.193 356V357H855.193V356H854.193ZM853.193 256V356H855.193V256H853.193ZM854.193 355H754.193V357H854.193V355Z" fill="#FADAC9" mask="url(#path-58-inside-29_224_15235)"/>
<mask id="path-60-inside-30_224_15235" fill="white">
<path d="M854.193 256H954.193V356H854.193V256Z"/>
</mask>
<path d="M954.193 356V357H955.193V356H954.193ZM953.193 256V356H955.193V256H953.193ZM954.193 355H854.193V357H954.193V355Z" fill="#FADAC9" mask="url(#path-60-inside-30_224_15235)"/>
<mask id="path-62-inside-31_224_15235" fill="white">
<path d="M954.193 256H1054.19V356H954.193V256Z"/>
</mask>
<path d="M1054.19 356V357H1055.19V356H1054.19ZM1053.19 256V356H1055.19V256H1053.19ZM1054.19 355H954.193V357H1054.19V355Z" fill="#FADAC9" mask="url(#path-62-inside-31_224_15235)"/>
<mask id="path-64-inside-32_224_15235" fill="white">
<path d="M1054.19 256H1154.19V356H1054.19V256Z"/>
</mask>
<path d="M1154.19 356V357H1155.19V356H1154.19ZM1153.19 256V356H1155.19V256H1153.19ZM1154.19 355H1054.19V357H1154.19V355Z" fill="#FADAC9" mask="url(#path-64-inside-32_224_15235)"/>
<mask id="path-66-inside-33_224_15235" fill="white">
<path d="M54.1934 356H154.193V456H54.1934V356Z"/>
</mask>
<path d="M154.193 456V457H155.193V456H154.193ZM54.1934 456H53.1934V457H54.1934V456ZM153.193 356V456H155.193V356H153.193ZM154.193 455H54.1934V457H154.193V455ZM55.1934 456V356H53.1934V456H55.1934Z" fill="#FADAC9" mask="url(#path-66-inside-33_224_15235)"/>
<mask id="path-68-inside-34_224_15235" fill="white">
<path d="M154.193 356H254.193V456H154.193V356Z"/>
</mask>
<path d="M254.193 456V457H255.193V456H254.193ZM253.193 356V456H255.193V356H253.193ZM254.193 455H154.193V457H254.193V455Z" fill="#FADAC9" mask="url(#path-68-inside-34_224_15235)"/>
<mask id="path-70-inside-35_224_15235" fill="white">
<path d="M254.193 356H354.193V456H254.193V356Z"/>
</mask>
<path d="M354.193 456V457H355.193V456H354.193ZM353.193 356V456H355.193V356H353.193ZM354.193 455H254.193V457H354.193V455Z" fill="#FADAC9" mask="url(#path-70-inside-35_224_15235)"/>
<mask id="path-72-inside-36_224_15235" fill="white">
<path d="M354.193 356H454.193V456H354.193V356Z"/>
</mask>
<path d="M454.193 456V457H455.193V456H454.193ZM453.193 356V456H455.193V356H453.193ZM454.193 455H354.193V457H454.193V455Z" fill="#FADAC9" mask="url(#path-72-inside-36_224_15235)"/>
<mask id="path-74-inside-37_224_15235" fill="white">
<path d="M454.193 356H554.193V456H454.193V356Z"/>
</mask>
<path d="M554.193 456V457H555.193V456H554.193ZM553.193 356V456H555.193V356H553.193ZM554.193 455H454.193V457H554.193V455Z" fill="#FADAC9" mask="url(#path-74-inside-37_224_15235)"/>
<mask id="path-76-inside-38_224_15235" fill="white">
<path d="M554.193 356H654.193V456H554.193V356Z"/>
</mask>
<path d="M654.193 456V457H655.193V456H654.193ZM653.193 356V456H655.193V356H653.193ZM654.193 455H554.193V457H654.193V455Z" fill="#FADAC9" mask="url(#path-76-inside-38_224_15235)"/>
<mask id="path-78-inside-39_224_15235" fill="white">
<path d="M654.193 356H754.193V456H654.193V356Z"/>
</mask>
<path d="M754.193 456V457H755.193V456H754.193ZM753.193 356V456H755.193V356H753.193ZM754.193 455H654.193V457H754.193V455Z" fill="#FADAC9" mask="url(#path-78-inside-39_224_15235)"/>
<mask id="path-80-inside-40_224_15235" fill="white">
<path d="M754.193 356H854.193V456H754.193V356Z"/>
</mask>
<path d="M854.193 456V457H855.193V456H854.193ZM853.193 356V456H855.193V356H853.193ZM854.193 455H754.193V457H854.193V455Z" fill="#FADAC9" mask="url(#path-80-inside-40_224_15235)"/>
<mask id="path-82-inside-41_224_15235" fill="white">
<path d="M854.193 356H954.193V456H854.193V356Z"/>
</mask>
<path d="M854.193 356H954.193V456H854.193V356Z" fill="#FADAC9" fill-opacity="0.3"/>
<path d="M954.193 456V457H955.193V456H954.193ZM953.193 356V456H955.193V356H953.193ZM954.193 455H854.193V457H954.193V455Z" fill="#FADAC9" mask="url(#path-82-inside-41_224_15235)"/>
<mask id="path-84-inside-42_224_15235" fill="white">
<path d="M954.193 356H1054.19V456H954.193V356Z"/>
</mask>
<path d="M1054.19 456V457H1055.19V456H1054.19ZM1053.19 356V456H1055.19V356H1053.19ZM1054.19 455H954.193V457H1054.19V455Z" fill="#FADAC9" mask="url(#path-84-inside-42_224_15235)"/>
<mask id="path-86-inside-43_224_15235" fill="white">
<path d="M1054.19 356H1154.19V456H1054.19V356Z"/>
</mask>
<path d="M1154.19 456V457H1155.19V456H1154.19ZM1153.19 356V456H1155.19V356H1153.19ZM1154.19 455H1054.19V457H1154.19V455Z" fill="#FADAC9" mask="url(#path-86-inside-43_224_15235)"/>
<mask id="path-88-inside-44_224_15235" fill="white">
<path d="M54.1934 456H154.193V556H54.1934V456Z"/>
</mask>
<path d="M154.193 556V557H155.193V556H154.193ZM54.1934 556H53.1934V557H54.1934V556ZM153.193 456V556H155.193V456H153.193ZM154.193 555H54.1934V557H154.193V555ZM55.1934 556V456H53.1934V556H55.1934Z" fill="#FADAC9" mask="url(#path-88-inside-44_224_15235)"/>
<mask id="path-90-inside-45_224_15235" fill="white">
<path d="M154.193 456H254.193V556H154.193V456Z"/>
</mask>
<path d="M254.193 556V557H255.193V556H254.193ZM253.193 456V556H255.193V456H253.193ZM254.193 555H154.193V557H254.193V555Z" fill="#FADAC9" mask="url(#path-90-inside-45_224_15235)"/>
<mask id="path-92-inside-46_224_15235" fill="white">
<path d="M254.193 456H354.193V556H254.193V456Z"/>
</mask>
<path d="M254.193 456H354.193V556H254.193V456Z" fill="#FADAC9" fill-opacity="0.3"/>
<path d="M354.193 556V557H355.193V556H354.193ZM353.193 456V556H355.193V456H353.193ZM354.193 555H254.193V557H354.193V555Z" fill="#FADAC9" mask="url(#path-92-inside-46_224_15235)"/>
<mask id="path-94-inside-47_224_15235" fill="white">
<path d="M354.193 456H454.193V556H354.193V456Z"/>
</mask>
<path d="M454.193 556V557H455.193V556H454.193ZM453.193 456V556H455.193V456H453.193ZM454.193 555H354.193V557H454.193V555Z" fill="#FADAC9" mask="url(#path-94-inside-47_224_15235)"/>
<mask id="path-96-inside-48_224_15235" fill="white">
<path d="M454.193 456H554.193V556H454.193V456Z"/>
</mask>
<path d="M554.193 556V557H555.193V556H554.193ZM553.193 456V556H555.193V456H553.193ZM554.193 555H454.193V557H554.193V555Z" fill="#FADAC9" mask="url(#path-96-inside-48_224_15235)"/>
<mask id="path-98-inside-49_224_15235" fill="white">
<path d="M554.193 456H654.193V556H554.193V456Z"/>
</mask>
<path d="M654.193 556V557H655.193V556H654.193ZM653.193 456V556H655.193V456H653.193ZM654.193 555H554.193V557H654.193V555Z" fill="#FADAC9" mask="url(#path-98-inside-49_224_15235)"/>
<mask id="path-100-inside-50_224_15235" fill="white">
<path d="M654.193 456H754.193V556H654.193V456Z"/>
</mask>
<path d="M754.193 556V557H755.193V556H754.193ZM753.193 456V556H755.193V456H753.193ZM754.193 555H654.193V557H754.193V555Z" fill="#FADAC9" mask="url(#path-100-inside-50_224_15235)"/>
<mask id="path-102-inside-51_224_15235" fill="white">
<path d="M754.193 456H854.193V556H754.193V456Z"/>
</mask>
<path d="M854.193 556V557H855.193V556H854.193ZM853.193 456V556H855.193V456H853.193ZM854.193 555H754.193V557H854.193V555Z" fill="#FADAC9" mask="url(#path-102-inside-51_224_15235)"/>
<mask id="path-104-inside-52_224_15235" fill="white">
<path d="M854.193 456H954.193V556H854.193V456Z"/>
</mask>
<path d="M954.193 556V557H955.193V556H954.193ZM953.193 456V556H955.193V456H953.193ZM954.193 555H854.193V557H954.193V555Z" fill="#FADAC9" mask="url(#path-104-inside-52_224_15235)"/>
<mask id="path-106-inside-53_224_15235" fill="white">
<path d="M954.193 456H1054.19V556H954.193V456Z"/>
</mask>
<path d="M1054.19 556V557H1055.19V556H1054.19ZM1053.19 456V556H1055.19V456H1053.19ZM1054.19 555H954.193V557H1054.19V555Z" fill="#FADAC9" mask="url(#path-106-inside-53_224_15235)"/>
<mask id="path-108-inside-54_224_15235" fill="white">
<path d="M1054.19 456H1154.19V556H1054.19V456Z"/>
</mask>
<path d="M1154.19 556V557H1155.19V556H1154.19ZM1153.19 456V556H1155.19V456H1153.19ZM1154.19 555H1054.19V557H1154.19V555Z" fill="#FADAC9" mask="url(#path-108-inside-54_224_15235)"/>
<mask id="path-110-inside-55_224_15235" fill="white">
<path d="M54.1934 556H154.193V656H54.1934V556Z"/>
</mask>
<path d="M154.193 656V657H155.193V656H154.193ZM54.1934 656H53.1934V657H54.1934V656ZM153.193 556V656H155.193V556H153.193ZM154.193 655H54.1934V657H154.193V655ZM55.1934 656V556H53.1934V656H55.1934Z" fill="#FADAC9" mask="url(#path-110-inside-55_224_15235)"/>
<mask id="path-112-inside-56_224_15235" fill="white">
<path d="M154.193 556H254.193V656H154.193V556Z"/>
</mask>
<path d="M254.193 656V657H255.193V656H254.193ZM253.193 556V656H255.193V556H253.193ZM254.193 655H154.193V657H254.193V655Z" fill="#FADAC9" mask="url(#path-112-inside-56_224_15235)"/>
<mask id="path-114-inside-57_224_15235" fill="white">
<path d="M254.193 556H354.193V656H254.193V556Z"/>
</mask>
<path d="M354.193 656V657H355.193V656H354.193ZM353.193 556V656H355.193V556H353.193ZM354.193 655H254.193V657H354.193V655Z" fill="#FADAC9" mask="url(#path-114-inside-57_224_15235)"/>
<mask id="path-116-inside-58_224_15235" fill="white">
<path d="M354.193 556H454.193V656H354.193V556Z"/>
</mask>
<path d="M454.193 656V657H455.193V656H454.193ZM453.193 556V656H455.193V556H453.193ZM454.193 655H354.193V657H454.193V655Z" fill="#FADAC9" mask="url(#path-116-inside-58_224_15235)"/>
<mask id="path-118-inside-59_224_15235" fill="white">
<path d="M454.193 556H554.193V656H454.193V556Z"/>
</mask>
<path d="M554.193 656V657H555.193V656H554.193ZM553.193 556V656H555.193V556H553.193ZM554.193 655H454.193V657H554.193V655Z" fill="#FADAC9" mask="url(#path-118-inside-59_224_15235)"/>
<mask id="path-120-inside-60_224_15235" fill="white">
<path d="M554.193 556H654.193V656H554.193V556Z"/>
</mask>
<path d="M554.193 556H654.193V656H554.193V556Z" fill="#FADAC9" fill-opacity="0.3"/>
<path d="M654.193 656V657H655.193V656H654.193ZM653.193 556V656H655.193V556H653.193ZM654.193 655H554.193V657H654.193V655Z" fill="#FADAC9" mask="url(#path-120-inside-60_224_15235)"/>
<mask id="path-122-inside-61_224_15235" fill="white">
<path d="M654.193 556H754.193V656H654.193V556Z"/>
</mask>
<path d="M754.193 656V657H755.193V656H754.193ZM753.193 556V656H755.193V556H753.193ZM754.193 655H654.193V657H754.193V655Z" fill="#FADAC9" mask="url(#path-122-inside-61_224_15235)"/>
<mask id="path-124-inside-62_224_15235" fill="white">
<path d="M754.193 556H854.193V656H754.193V556Z"/>
</mask>
<path d="M854.193 656V657H855.193V656H854.193ZM853.193 556V656H855.193V556H853.193ZM854.193 655H754.193V657H854.193V655Z" fill="#FADAC9" mask="url(#path-124-inside-62_224_15235)"/>
<mask id="path-126-inside-63_224_15235" fill="white">
<path d="M854.193 556H954.193V656H854.193V556Z"/>
</mask>
<path d="M954.193 656V657H955.193V656H954.193ZM953.193 556V656H955.193V556H953.193ZM954.193 655H854.193V657H954.193V655Z" fill="#FADAC9" mask="url(#path-126-inside-63_224_15235)"/>
<mask id="path-128-inside-64_224_15235" fill="white">
<path d="M954.193 556H1054.19V656H954.193V556Z"/>
</mask>
<path d="M1054.19 656V657H1055.19V656H1054.19ZM1053.19 556V656H1055.19V556H1053.19ZM1054.19 655H954.193V657H1054.19V655Z" fill="#FADAC9" mask="url(#path-128-inside-64_224_15235)"/>
<mask id="path-130-inside-65_224_15235" fill="white">
<path d="M1054.19 556H1154.19V656H1054.19V556Z"/>
</mask>
<path d="M1154.19 656V657H1155.19V656H1154.19ZM1153.19 556V656H1155.19V556H1153.19ZM1154.19 655H1054.19V657H1154.19V655Z" fill="#FADAC9" mask="url(#path-130-inside-65_224_15235)"/>
<mask id="path-132-inside-66_224_15235" fill="white">
<path d="M54.1934 656H154.193V756H54.1934V656Z"/>
</mask>
<path d="M154.193 756V757H155.193V756H154.193ZM54.1934 756H53.1934V757H54.1934V756ZM153.193 656V756H155.193V656H153.193ZM154.193 755H54.1934V757H154.193V755ZM55.1934 756V656H53.1934V756H55.1934Z" fill="#FADAC9" mask="url(#path-132-inside-66_224_15235)"/>
<mask id="path-134-inside-67_224_15235" fill="white">
<path d="M154.193 656H254.193V756H154.193V656Z"/>
</mask>
<path d="M254.193 756V757H255.193V756H254.193ZM253.193 656V756H255.193V656H253.193ZM254.193 755H154.193V757H254.193V755Z" fill="#FADAC9" mask="url(#path-134-inside-67_224_15235)"/>
<mask id="path-136-inside-68_224_15235" fill="white">
<path d="M254.193 656H354.193V756H254.193V656Z"/>
</mask>
<path d="M354.193 756V757H355.193V756H354.193ZM353.193 656V756H355.193V656H353.193ZM354.193 755H254.193V757H354.193V755Z" fill="#FADAC9" mask="url(#path-136-inside-68_224_15235)"/>
<mask id="path-138-inside-69_224_15235" fill="white">
<path d="M354.193 656H454.193V756H354.193V656Z"/>
</mask>
<path d="M454.193 756V757H455.193V756H454.193ZM453.193 656V756H455.193V656H453.193ZM454.193 755H354.193V757H454.193V755Z" fill="#FADAC9" mask="url(#path-138-inside-69_224_15235)"/>
<mask id="path-140-inside-70_224_15235" fill="white">
<path d="M454.193 656H554.193V756H454.193V656Z"/>
</mask>
<path d="M554.193 756V757H555.193V756H554.193ZM553.193 656V756H555.193V656H553.193ZM554.193 755H454.193V757H554.193V755Z" fill="#FADAC9" mask="url(#path-140-inside-70_224_15235)"/>
<mask id="path-142-inside-71_224_15235" fill="white">
<path d="M554.193 656H654.193V756H554.193V656Z"/>
</mask>
<path d="M554.193 656H654.193V756H554.193V656Z" fill="#FADAC9" fill-opacity="0.3"/>
<path d="M654.193 756V757H655.193V756H654.193ZM653.193 656V756H655.193V656H653.193ZM654.193 755H554.193V757H654.193V755Z" fill="#FADAC9" mask="url(#path-142-inside-71_224_15235)"/>
<mask id="path-144-inside-72_224_15235" fill="white">
<path d="M654.193 656H754.193V756H654.193V656Z"/>
</mask>
<path d="M754.193 756V757H755.193V756H754.193ZM753.193 656V756H755.193V656H753.193ZM754.193 755H654.193V757H754.193V755Z" fill="#FADAC9" mask="url(#path-144-inside-72_224_15235)"/>
<mask id="path-146-inside-73_224_15235" fill="white">
<path d="M754.193 656H854.193V756H754.193V656Z"/>
</mask>
<path d="M854.193 756V757H855.193V756H854.193ZM853.193 656V756H855.193V656H853.193ZM854.193 755H754.193V757H854.193V755Z" fill="#FADAC9" mask="url(#path-146-inside-73_224_15235)"/>
<mask id="path-148-inside-74_224_15235" fill="white">
<path d="M854.193 656H954.193V756H854.193V656Z"/>
</mask>
<path d="M954.193 756V757H955.193V756H954.193ZM953.193 656V756H955.193V656H953.193ZM954.193 755H854.193V757H954.193V755Z" fill="#FADAC9" mask="url(#path-148-inside-74_224_15235)"/>
<mask id="path-150-inside-75_224_15235" fill="white">
<path d="M954.193 656H1054.19V756H954.193V656Z"/>
</mask>
<path d="M1054.19 756V757H1055.19V756H1054.19ZM1053.19 656V756H1055.19V656H1053.19ZM1054.19 755H954.193V757H1054.19V755Z" fill="#FADAC9" mask="url(#path-150-inside-75_224_15235)"/>
<mask id="path-152-inside-76_224_15235" fill="white">
<path d="M1054.19 656H1154.19V756H1054.19V656Z"/>
</mask>
<path d="M1154.19 756V757H1155.19V756H1154.19ZM1153.19 656V756H1155.19V656H1153.19ZM1154.19 755H1054.19V757H1154.19V755Z" fill="#FADAC9" mask="url(#path-152-inside-76_224_15235)"/>
</g>
<defs>
<radialGradient id="paint0_radial_224_15235" cx="0" cy="0" r="1" gradientUnits="userSpaceOnUse" gradientTransform="translate(560 352) rotate(90) scale(459.5 731.023)">
<stop stop-color="white"/>
<stop offset="0.95625" stop-color="white" stop-opacity="0"/>
</radialGradient>
</defs>
</svg>
