<svg width="57" height="56" viewBox="0 0 57 56" fill="none" xmlns="http://www.w3.org/2000/svg">
<g clip-path="url(#clip0_660_6595)">
<path d="M41.9824 18.536C42.0138 25.5859 36.2923 31.5919 28.9255 31.6014C21.7384 31.6098 15.8394 25.816 15.845 18.5226C15.8506 11.1339 21.8672 5.44042 28.9378 5.45554C36.1769 5.47066 42.0177 11.3803 41.9824 18.536ZM29.43 13.3745C29.4071 15.4835 31.175 17.1926 33.247 17.192C35.2277 17.192 37.0606 15.5927 37.0651 13.3689C37.0695 11.1244 35.2361 9.53625 33.266 9.53233C31.2299 9.52842 29.4059 11.2252 29.43 13.3745Z" fill="#DB353A"/>
<path d="M54.2311 44.1185C54.188 44.1039 54.1751 44.1135 54.1616 44.1359C53.8408 44.6802 53.3373 44.9759 52.742 45.0923C51.6887 45.3012 50.7076 45.0991 49.8407 44.4539C49.1261 43.9219 48.7252 43.1878 48.6087 42.3131C48.4796 41.4284 48.6184 40.5253 49.0074 39.7203C49.5747 38.5443 50.5155 37.8359 51.7839 37.5615C52.2979 37.4432 52.8287 37.4167 53.3519 37.4831C54.6572 37.6617 55.5454 38.3673 56.0276 39.5853C56.1963 39.9973 56.2837 40.4381 56.2852 40.8834C56.2756 42.1943 56.3316 43.5036 56.3546 44.814C56.3655 45.3313 56.2773 45.8458 56.0948 46.3299C55.6748 47.441 54.9014 48.1981 53.7764 48.5733C52.8701 48.879 51.8928 48.9044 50.9719 48.6461C50.6317 48.5569 50.3105 48.4068 50.0238 48.2031C49.5394 47.8548 49.2667 47.3984 49.2958 46.7841C49.3059 46.5679 49.2958 46.3507 49.2986 46.1339C49.2986 46.0914 49.3081 46.0466 49.3518 46.0326C49.3724 46.0282 49.3939 46.0296 49.4137 46.0369C49.4335 46.0441 49.4509 46.0568 49.4638 46.0735C49.6596 46.2579 49.8841 46.4092 50.1285 46.5215C50.4656 46.6779 50.8224 46.7878 51.1892 46.8479C51.5631 46.9107 51.9429 46.9317 52.3215 46.9107C52.6314 46.9006 52.9374 46.8373 53.2259 46.7236C53.7769 46.4996 54.1062 46.0891 54.2216 45.5118C54.2834 45.2173 54.2982 44.9149 54.2652 44.6158C54.2473 44.4495 54.2423 44.2787 54.2311 44.1185ZM54.1913 41.3185C54.1913 40.8111 54.1353 40.4953 53.9959 40.1862C53.7204 39.5663 53.1923 39.2801 52.532 39.3137C51.8718 39.3473 51.356 39.6755 51.0335 40.2595C50.856 40.5693 50.7497 40.9147 50.7224 41.2707C50.695 41.6267 50.7474 41.9843 50.8756 42.3175C51.1427 43.0455 51.8276 43.554 52.8115 43.3491C53.4275 43.2203 53.8195 42.8193 54.0396 42.2419C54.1472 41.9468 54.1986 41.6342 54.1913 41.3202V41.3185Z" fill="#686767"/>
<path d="M8.68313 38.0979C8.60585 38.0912 8.57113 38.0335 8.52801 37.9927C7.96017 37.4685 7.27865 37.2087 6.52153 37.1157C6.0705 37.0603 5.61433 37.0613 5.16353 37.1185C4.85468 37.1477 4.55343 37.2313 4.27369 37.3655C3.81505 37.6007 3.59217 37.9736 3.60729 38.4922C3.60882 38.6112 3.63608 38.7285 3.68722 38.836C3.73835 38.9435 3.81215 39.0386 3.90353 39.1149C4.04589 39.2347 4.20563 39.3321 4.37729 39.4039C4.76686 39.5684 5.17061 39.6972 5.58353 39.7886C5.93409 39.8726 6.28801 39.9454 6.63577 40.0411C7.10602 40.1656 7.5498 40.3744 7.94561 40.6571C8.51457 41.0704 8.89761 41.6153 8.98161 42.3164C9.17033 43.8676 8.55265 45.3567 6.84633 45.9805C6.07801 46.2605 5.27833 46.3277 4.46745 46.2639C4.06548 46.2412 3.66775 46.1698 3.28305 46.0511C3.01722 45.9683 2.76426 45.8488 2.53153 45.696C1.99785 45.3331 1.72009 44.8297 1.70665 44.184C1.70049 43.8951 1.70665 43.6061 1.70665 43.3171C1.70665 43.2527 1.75929 43.2253 1.80913 43.2611C1.87521 43.3104 1.93737 43.3653 2.00233 43.4157C2.98905 44.1818 4.10401 44.4797 5.34161 44.3352C5.60924 44.3108 5.87196 44.248 6.12169 44.1487C6.39721 44.0323 6.62233 43.8575 6.74833 43.5798C6.90009 43.2438 6.90345 42.8983 6.81945 42.5499C6.77689 42.3741 6.65145 42.2447 6.50921 42.1367C6.3496 42.0222 6.17466 41.9307 5.98953 41.8651C5.5151 41.6932 5.02839 41.5573 4.53353 41.4585C4.15932 41.3839 3.79114 41.2817 3.43201 41.1527C3.03294 41.01 2.66117 40.8001 2.33273 40.5322C1.68985 39.9913 1.41769 39.2902 1.48377 38.472C1.60361 37.0323 2.40385 36.0825 3.69969 35.5197C4.15614 35.3239 4.64526 35.2154 5.14169 35.1999C5.74089 35.177 6.33841 35.1876 6.92585 35.3304C7.24848 35.4026 7.55806 35.524 7.84369 35.6905C8.14164 35.86 8.3852 36.1107 8.54593 36.4135C8.6375 36.5762 8.69128 36.7574 8.70329 36.9438C8.71281 37.3044 8.71561 37.6656 8.71841 38.0268C8.71841 38.0492 8.69769 38.075 8.68313 38.0979Z" fill="#686767"/>
<path d="M19.383 42.7689C19.0016 42.7689 18.6197 42.7689 18.2378 42.7689C18.1213 42.7689 18.0905 42.8092 18.1151 42.9217C18.176 43.2055 18.3056 43.4699 18.4926 43.6917C18.8319 44.0955 19.2732 44.3229 19.7806 44.4365C20.1995 44.5306 20.6206 44.5144 21.0439 44.4791C21.363 44.4534 21.6781 44.3914 21.983 44.2943C22.3487 44.1813 22.6887 43.9977 22.9838 43.7539C23.0476 43.6979 23.1109 43.7281 23.1109 43.8071C23.1109 44.1061 23.1288 44.4046 23.0795 44.7031C23.0488 44.913 22.9745 45.1141 22.8616 45.2936C22.7487 45.4732 22.5996 45.6272 22.4238 45.7458C22.1238 45.9495 21.7841 46.0871 21.427 46.1496C20.797 46.2728 20.163 46.3249 19.5196 46.2403C17.9813 46.0393 16.5225 44.9293 16.0661 43.2281C15.9245 42.6991 15.876 42.1496 15.9227 41.6041C15.9541 41.1201 16.0465 40.642 16.1977 40.1811C16.504 39.2952 17.022 38.5689 17.8217 38.0615C18.3542 37.7255 18.9389 37.5457 19.5644 37.4752C20.212 37.3927 20.8698 37.4865 21.4684 37.7468C22.4686 38.1881 23.1092 38.939 23.345 40.0142C23.4336 40.3868 23.4463 40.7734 23.3825 41.151C23.3002 41.599 23.0795 41.9563 22.6948 42.2072C22.4137 42.3815 22.1042 42.5053 21.7803 42.5729C21.2868 42.6835 20.7835 42.745 20.2779 42.7565C19.9788 42.7655 19.6798 42.7565 19.3819 42.7565L19.383 42.7689ZM19.1321 41.2804C19.5498 41.2759 20.0029 41.2804 20.4531 41.216C20.6679 41.1912 20.8783 41.1375 21.0786 41.0564C21.1905 41.0135 21.2862 40.9368 21.3525 40.8371C21.4188 40.7374 21.4525 40.6195 21.4488 40.4997C21.4555 40.0209 21.2651 39.5993 20.7768 39.3797C20.3404 39.1834 19.8496 39.1439 19.3875 39.2677C18.8303 39.4122 18.4657 39.7874 18.2395 40.306C18.1303 40.5552 18.0989 40.8212 18.0754 41.09C18.0608 41.2518 18.0782 41.2753 18.2327 41.277C18.5206 41.2826 18.809 41.2804 19.1321 41.2804Z" fill="#686767"/>
<path d="M47.2681 43.3149C47.2681 44.0989 47.2681 44.8829 47.2681 45.6669C47.2681 45.729 47.2681 45.7912 47.2681 45.8528C47.2631 46.0863 47.2592 46.0913 47.0212 46.0936C46.7737 46.0936 46.5256 46.1025 46.282 46.0449C45.7489 45.9189 45.3731 45.6193 45.2141 45.0811C45.1665 44.9204 45.1726 44.7541 45.1726 44.5889C45.1726 43.5461 45.1726 42.5036 45.1726 41.4613C45.1764 41.1409 45.1415 40.8212 45.0685 40.5093C45.0272 40.3385 44.962 40.1745 44.8747 40.0221C44.722 39.7486 44.4756 39.5395 44.1809 39.4335C43.8211 39.2956 43.4274 39.2727 43.0541 39.368C42.7301 39.4482 42.4486 39.6484 42.2662 39.928C42.1057 40.1696 42.0031 40.445 41.9666 40.7327C41.9355 40.9576 41.9198 41.1844 41.9196 41.4114C41.9222 42.857 41.9222 44.3021 41.9196 45.7469C41.9196 46.1255 41.9442 46.0936 41.5645 46.0936C41.3584 46.1014 41.1519 46.0879 40.9485 46.0533C40.3107 45.9233 39.9097 45.4933 39.8414 44.8515C39.8303 44.7385 39.8251 44.6251 39.8257 44.5116C39.8257 43.4065 39.8257 42.302 39.8257 41.1981C39.8257 40.7501 39.8677 40.311 40.0077 39.8849C40.3706 38.7811 41.0947 38.0262 42.2041 37.6661C43.0379 37.3957 43.8841 37.357 44.7341 37.6012C46.0686 37.9859 46.8621 38.8808 47.1679 40.2237C47.239 40.5685 47.2724 40.92 47.2676 41.272C47.2709 41.9518 47.2681 42.6333 47.2681 43.3149Z" fill="#676767"/>
<path d="M10.429 40.5216C10.429 39.6643 10.429 38.8075 10.429 37.9507C10.4253 37.7856 10.4343 37.6204 10.4559 37.4567C10.5628 36.7685 10.9694 36.2774 11.5199 35.8921C11.7898 35.7039 12.1034 35.7079 12.4159 35.7331C12.4421 35.7346 12.4667 35.7465 12.4842 35.7662C12.5017 35.7858 12.5108 35.8115 12.5094 35.8378C12.5133 35.91 12.5133 35.9823 12.5133 36.0545C12.5133 36.4672 12.5133 36.8805 12.5133 37.2932C12.5133 37.3655 12.5133 37.4377 12.5133 37.5099C12.5113 37.5254 12.5127 37.5412 12.5175 37.5561C12.5223 37.5709 12.5304 37.5845 12.5411 37.5959C12.5518 37.6073 12.565 37.6161 12.5795 37.6218C12.5941 37.6274 12.6097 37.6298 12.6253 37.6287C12.7082 37.6287 12.7905 37.632 12.8728 37.632H15.0411C15.1033 37.632 15.1649 37.632 15.2271 37.632C15.4281 37.6365 15.4326 37.6399 15.4359 37.8443C15.4359 38.0201 15.4359 38.1954 15.4359 38.3707C15.432 38.9676 15.0708 39.3882 14.4795 39.4739C14.3259 39.4938 14.1712 39.5033 14.0163 39.5024C13.6344 39.5063 13.2525 39.5024 12.8706 39.5024C12.7983 39.5024 12.7261 39.5024 12.6539 39.5024C12.5536 39.508 12.5211 39.5377 12.515 39.629C12.5105 39.6906 12.5116 39.7527 12.5116 39.8149C12.5116 40.7953 12.5116 41.776 12.5116 42.7571C12.5036 42.9947 12.5287 43.2321 12.5861 43.4627C12.7306 43.9667 13.0403 44.2467 13.5812 44.296C14.1597 44.3453 14.7371 44.3151 15.2786 44.0597C15.3934 44.0037 15.4326 44.03 15.4343 44.1504C15.4343 44.3744 15.4427 44.6051 15.4343 44.8314C15.4079 45.3768 15.1453 45.7655 14.6435 45.99C14.4552 46.0756 14.2541 46.1297 14.0483 46.1502C13.4692 46.2062 12.893 46.1838 12.3313 46.0124C11.3939 45.7274 10.8053 45.1035 10.5555 44.1594C10.467 43.8193 10.4233 43.4692 10.4256 43.1178C10.4256 42.2509 10.4256 41.3838 10.4256 40.5166L10.429 40.5216Z" fill="#686868"/>
<path d="M30.3758 39.4425C30.3758 37.9977 30.3758 36.5533 30.3758 35.1092C30.3758 34.8124 30.3662 34.8242 30.6647 34.8253C30.8198 34.8253 30.9744 34.8253 31.129 34.8286C31.3047 34.8333 31.4783 34.8678 31.6425 34.9306C32.0653 35.0829 32.3184 35.3858 32.4265 35.8176C32.4664 35.999 32.4841 36.1846 32.4791 36.3703C32.4791 38.6193 32.4791 40.8682 32.4791 43.1172C32.4791 43.2617 32.4791 43.4067 32.4886 43.5501C32.5239 43.9846 32.7502 44.2562 33.1668 44.3677C33.3463 44.4159 33.5314 44.44 33.7173 44.4394C33.9239 44.4394 34.13 44.4394 34.3366 44.4427C34.4055 44.4427 34.4593 44.4696 34.4615 44.5469C34.4694 44.8269 34.4811 45.1069 34.4055 45.3768C34.368 45.5332 34.2914 45.6775 34.183 45.7963C34.0746 45.915 33.9379 46.0044 33.7856 46.0561C33.6414 46.1097 33.4908 46.1437 33.3376 46.1574C32.874 46.1999 32.4066 46.1514 31.9617 46.0146C31.1133 45.7458 30.6306 45.1545 30.4497 44.2966C30.399 44.0329 30.3761 43.7647 30.3814 43.4963C30.378 42.1452 30.3761 40.794 30.3758 39.4425Z" fill="#686868"/>
<path d="M26.761 43.4C26.761 44.206 26.761 45.0115 26.761 45.8164C26.761 46.0964 26.7576 46.0964 26.4916 46.0964C26.2256 46.0964 25.9546 46.102 25.6902 46.0404C25.2148 45.934 24.8592 45.6842 24.708 45.2004C24.6597 45.0422 24.6357 44.8775 24.6369 44.7121C24.6369 43.4112 24.6307 42.1103 24.6408 40.8094C24.6361 40.2601 24.7508 39.7163 24.9768 39.2157C25.4018 38.3029 26.117 37.7765 27.1048 37.6124C27.5121 37.5368 27.9301 37.5385 28.3368 37.6174C28.5296 37.6548 28.7144 37.7257 28.8828 37.8269C29.072 37.9356 29.2295 38.092 29.3396 38.2804C29.4497 38.4688 29.5086 38.6827 29.5106 38.9009C29.5184 39.107 29.5145 39.3137 29.5106 39.5203C29.5106 39.6704 29.4702 39.6939 29.3174 39.6457C29.2485 39.6245 29.1813 39.597 29.1124 39.5752C28.7174 39.4499 28.2996 39.4132 27.8888 39.4677C27.4173 39.5304 27.0919 39.7846 26.9172 40.2265C26.8384 40.4179 26.7926 40.6212 26.7817 40.8279C26.7716 41.0648 26.7632 41.3022 26.7626 41.5397C26.7593 42.1596 26.761 42.7789 26.761 43.4Z" fill="#686868"/>
<path d="M35.274 40.9483C35.274 39.9978 35.274 39.0479 35.274 38.0985C35.274 37.8235 35.274 37.823 35.5411 37.8185C35.7887 37.808 36.0368 37.8229 36.2814 37.8627C36.8358 37.9747 37.1774 38.3029 37.3113 38.8478C37.3576 39.0498 37.3792 39.2566 37.3756 39.4638C37.373 40.7029 37.373 41.942 37.3756 43.1811C37.3756 43.3149 37.3723 43.4499 37.3852 43.5831C37.4249 43.9891 37.6058 44.296 38.098 44.3963C38.3219 44.4331 38.5489 44.4477 38.7756 44.4399C39.0517 44.4399 39.0506 44.4371 39.0489 44.7121C39.057 44.9391 39.0403 45.1663 38.9991 45.3897C38.9106 45.7817 38.6816 46.0264 38.2868 46.1177C38.1563 46.1482 38.0231 46.1655 37.8892 46.1692C37.5586 46.1799 37.2282 46.1422 36.9086 46.0572C36.1246 45.8422 35.6296 45.3337 35.4044 44.5598C35.3138 44.2415 35.2697 43.9118 35.2734 43.5809C35.2734 42.7034 35.2734 41.8259 35.2734 40.9489L35.274 40.9483Z" fill="#686868"/>
<path d="M35.0881 35.8042C35.0888 35.4815 35.2173 35.1722 35.4454 34.9439C35.6736 34.7157 35.9828 34.5871 36.3055 34.5862C36.9842 34.5862 37.5666 35.1579 37.5453 35.8232C37.541 36.1471 37.41 36.4563 37.1805 36.6848C36.951 36.9133 36.6411 37.0428 36.3173 37.0457C36.1545 37.0468 35.9931 37.0154 35.8427 36.9533C35.6922 36.8911 35.5557 36.7995 35.4412 36.6839C35.3266 36.5682 35.2364 36.4308 35.1758 36.2797C35.1151 36.1286 35.0853 35.9669 35.0881 35.8042Z" fill="#686868"/>
<path d="M35.0462 49.0045C35.1067 48.9485 35.1582 48.9003 35.2142 48.8589C35.572 48.5918 36.1444 48.7357 36.2222 49.2391C36.2373 49.3098 36.2473 49.3815 36.2519 49.4536C36.2552 49.7526 36.2519 50.0522 36.2519 50.3496C36.2519 50.4118 36.2519 50.4812 36.1701 50.4941C36.1341 50.4999 36.0971 50.4947 36.0641 50.4792C36.031 50.4637 36.0034 50.4387 35.9848 50.4073C35.9552 50.3523 35.9429 50.2896 35.9495 50.2275C35.9495 50.0007 35.9495 49.7734 35.9495 49.546C35.9529 49.4322 35.9327 49.3189 35.8901 49.2134C35.828 49.0694 35.7188 49.0095 35.539 49.0179C35.371 49.0258 35.2523 49.1047 35.217 49.2554C35.1935 49.3658 35.1817 49.4784 35.1817 49.5914C35.1767 49.8394 35.1817 50.087 35.1817 50.335C35.1817 50.3955 35.1884 50.4655 35.1151 50.4924C35.0695 50.5033 35.0216 50.4965 34.9809 50.4733C34.9402 50.4501 34.9099 50.4123 34.8961 50.3675C34.8821 50.2969 34.8753 50.225 34.876 50.153C34.8732 49.9671 34.876 49.7812 34.8732 49.593C34.8723 49.49 34.8607 49.3873 34.8384 49.2867C34.8213 49.2049 34.7749 49.1322 34.708 49.0821C34.6411 49.032 34.5583 49.008 34.475 49.0146C34.2997 49.0179 34.1995 49.0991 34.139 49.28C34.1095 49.3894 34.0976 49.5028 34.1037 49.616C34.1037 49.8742 34.1037 50.1323 34.0992 50.3905C34.0995 50.4083 34.0951 50.4258 34.0865 50.4414C34.0779 50.457 34.0653 50.4701 34.0501 50.4794C34.0349 50.4886 34.0176 50.4938 33.9998 50.4943C33.9819 50.4948 33.9643 50.4907 33.9486 50.4823C33.8321 50.4398 33.8008 50.3462 33.8002 50.237C33.8002 49.9682 33.794 49.7 33.8041 49.4318C33.8097 49.3287 33.8334 49.2275 33.8741 49.1327C33.9441 48.9694 34.0749 48.8398 34.2388 48.7713C34.4027 48.7028 34.5869 48.7009 34.7522 48.7659C34.872 48.8191 34.9521 48.9143 35.0462 49.0045Z" fill="#706E6E"/>
<path d="M41.6492 49.3466C41.6643 49.4026 41.7152 49.4183 41.7544 49.4469C42.0904 49.6888 41.9835 50.1597 41.7259 50.358C41.6692 50.4026 41.6051 50.4369 41.5366 50.4593C41.2684 50.5385 40.9838 50.5437 40.7128 50.4745C40.5359 50.433 40.4379 50.2992 40.4166 50.1166C40.4117 50.0653 40.4098 50.0136 40.411 49.9621C40.411 49.5079 40.411 49.0537 40.411 48.5996C40.411 48.3554 40.4138 48.3532 40.6624 48.305C40.9065 48.2587 41.1566 48.254 41.4022 48.291C41.7029 48.3347 41.9443 48.5458 41.914 48.9149C41.9095 49.0294 41.8612 49.1378 41.7791 49.2178C41.7376 49.2598 41.6704 49.28 41.6492 49.3466ZM40.7123 49.7946C40.7123 49.8461 40.7123 49.8971 40.7123 49.9486C40.7112 49.9691 40.7112 49.9897 40.7123 50.0102C40.7257 50.1373 40.775 50.2096 40.8898 50.2303C41.0711 50.2714 41.2603 50.2615 41.4364 50.2017C41.6044 50.1373 41.671 50.0102 41.6542 49.8053C41.6402 49.6373 41.5663 49.5432 41.3944 49.5101C41.2733 49.4883 41.1506 49.4771 41.0276 49.4765C40.6977 49.4726 40.7106 49.4614 40.7123 49.7957V49.7946ZM41.0584 49.2346C41.1709 49.2291 41.2831 49.2173 41.3944 49.1993C41.5355 49.1697 41.6111 49.0593 41.6184 48.9065C41.624 48.7446 41.5624 48.6427 41.4291 48.5884C41.3033 48.5445 41.1698 48.5276 41.0371 48.5385C40.7313 48.5481 40.7117 48.5671 40.7123 48.8745C40.7089 49.2509 40.6826 49.224 41.0584 49.2335V49.2346Z" fill="#737070"/>
<path d="M20.4995 49.4446C20.4911 49.5889 20.4644 49.7316 20.42 49.8691C20.2648 50.2975 19.9249 50.5411 19.4814 50.5322C19.2736 50.5314 19.0718 50.4623 18.9071 50.3356C18.7424 50.2089 18.6239 50.0317 18.5697 49.831C18.4778 49.5333 18.4853 49.2136 18.591 48.9205C18.7495 48.4697 19.095 48.2451 19.5928 48.2681C20.0089 48.2871 20.3365 48.5587 20.4502 48.9877C20.4906 49.1364 20.5073 49.2907 20.4995 49.4446ZM18.806 49.3674C18.8015 49.5014 18.8205 49.6352 18.862 49.7627C18.95 50.0791 19.1941 50.2566 19.524 50.2555C19.832 50.2555 20.0638 50.0741 20.154 49.765C20.2212 49.5269 20.2212 49.275 20.154 49.037C20.0688 48.7133 19.842 48.5391 19.5021 48.533C19.1812 48.533 18.9511 48.6954 18.8581 49.0034C18.8182 49.1204 18.8005 49.2438 18.806 49.3674Z" fill="#706E6E"/>
<path d="M24.1015 50.1093C24.1547 50.2885 24.078 50.3854 23.9475 50.4532C23.5135 50.6772 22.9529 50.4689 22.7922 50.0108C22.7354 49.8601 22.7146 49.6982 22.7315 49.5381C22.7485 49.3779 22.8026 49.224 22.8896 49.0885C22.9887 48.9225 23.149 48.8021 23.3359 48.7532C23.5229 48.7043 23.7216 48.7308 23.8892 48.8269C23.9941 48.8844 24.0789 48.9727 24.1321 49.0798C24.1853 49.187 24.2043 49.3078 24.1866 49.4261C24.1821 49.483 24.1621 49.5376 24.1288 49.584C24.0956 49.6304 24.0503 49.6668 23.9979 49.6893C23.8841 49.7398 23.7606 49.7651 23.6361 49.7633C23.4715 49.7633 23.3063 49.7633 23.1411 49.77C23.1285 49.7708 23.1162 49.7745 23.1052 49.7808C23.0942 49.7871 23.0849 49.7958 23.0778 49.8063C23.0708 49.8168 23.0663 49.8288 23.0646 49.8414C23.063 49.8539 23.0642 49.8666 23.0683 49.8786C23.1243 50.0931 23.3018 50.2337 23.5443 50.2527C23.7022 50.265 23.8092 50.2381 24.1015 50.1093ZM23.4603 49.5191C23.5096 49.5157 23.6339 49.5141 23.7548 49.4956C23.8607 49.4793 23.9049 49.3981 23.8909 49.2906C23.8869 49.2335 23.866 49.179 23.8308 49.1339C23.7955 49.0888 23.7476 49.0552 23.6932 49.0375C23.4463 48.9546 23.1489 49.0319 23.0616 49.355C23.0324 49.4625 23.0644 49.5141 23.1708 49.5185C23.2424 49.5219 23.3136 49.5191 23.4603 49.5191Z" fill="#737070"/>
<path d="M38.0342 50.0875C38.06 50.3294 37.9536 50.4353 37.7951 50.4829C37.2088 50.657 36.7602 50.3636 36.6611 49.8489C36.608 49.5928 36.6555 49.3261 36.7938 49.1041C36.992 48.7805 37.3717 48.6444 37.7055 48.7782C37.8085 48.8145 37.9 48.8777 37.9703 48.9613C38.0407 49.0449 38.0873 49.1459 38.1053 49.2537C38.1389 49.4368 38.0868 49.6641 37.8152 49.7246C37.7351 49.7432 37.6537 49.7553 37.5716 49.761C37.4479 49.7677 37.3236 49.761 37.2004 49.7672C37.1315 49.7672 37.0408 49.7375 37.0021 49.8086C36.9523 49.9016 37.0133 49.9867 37.0727 50.0589C37.211 50.2269 37.3958 50.2701 37.6019 50.2488C37.7559 50.2268 37.9034 50.1718 38.0342 50.0875ZM36.9702 49.5034C37.1934 49.5316 37.4193 49.5304 37.6422 49.5001C37.8024 49.4799 37.8584 49.3522 37.7856 49.2044C37.7659 49.1625 37.7378 49.1252 37.7029 49.0949C37.6679 49.0647 37.627 49.042 37.5828 49.0285C37.2575 48.9249 36.9814 49.1333 36.973 49.504L36.9702 49.5034Z" fill="#737070"/>
<path d="M42.4001 49.1803C42.3581 49.0577 42.4108 48.9653 42.4998 48.8852C42.7322 48.6769 43.211 48.6713 43.4518 48.874C43.5051 48.9154 43.5491 48.9676 43.581 49.0271C43.6128 49.0866 43.6318 49.1522 43.6366 49.2195C43.6484 49.4995 43.6529 49.7762 43.6366 50.0534C43.6329 50.1473 43.6004 50.2378 43.5435 50.3127C43.4866 50.3875 43.4081 50.443 43.3185 50.4717C43.1055 50.5573 42.8674 50.5557 42.6555 50.4672C42.4483 50.381 42.3156 50.2342 42.3195 49.9979C42.3168 49.8938 42.3472 49.7914 42.4064 49.7057C42.4655 49.6199 42.5504 49.5552 42.6488 49.5208C42.735 49.4876 42.8249 49.4647 42.9165 49.4525C43.0077 49.4385 43.1013 49.4402 43.1965 49.4334C43.3202 49.4245 43.3611 49.3713 43.3365 49.2565C43.3278 49.1945 43.298 49.1374 43.2521 49.0948C43.2062 49.0523 43.1469 49.0269 43.0845 49.023C42.9104 48.9917 42.7309 49.0187 42.5737 49.0997C42.5177 49.1282 42.4791 49.1848 42.4001 49.1803ZM43.1197 49.6944C42.9176 49.6944 42.8291 49.7134 42.7373 49.7762C42.7076 49.7962 42.6828 49.8226 42.6645 49.8534C42.6462 49.8841 42.635 49.9186 42.6315 49.9542C42.6281 49.9898 42.6326 50.0258 42.6447 50.0595C42.6568 50.0932 42.6761 50.1238 42.7014 50.1491C42.8364 50.269 42.9954 50.2802 43.1612 50.2275C43.3157 50.1782 43.346 50.0517 43.3482 49.9106C43.3482 49.8803 43.3482 49.8495 43.3482 49.8187C43.3426 49.7263 43.3152 49.7006 43.2127 49.695C43.1813 49.6933 43.1505 49.6944 43.1197 49.6944Z" fill="#737070"/>
<path d="M46.2517 49.4228C46.3637 49.4105 46.3889 49.3489 46.4298 49.3058C46.5569 49.1714 46.6824 49.0342 46.8089 48.8992C46.8615 48.8375 46.9319 48.7936 47.0104 48.7735C47.0889 48.7535 47.1717 48.7583 47.2474 48.7872C47.2474 48.8589 47.1914 48.8802 47.1589 48.9149C47.0083 49.07 46.8526 49.2207 46.7053 49.3786C46.5161 49.5813 46.5161 49.5466 46.6981 49.7795C46.8627 49.9907 47.0262 50.2029 47.2553 50.3519C47.2984 50.3799 47.2805 50.4577 47.2306 50.4784C47.1794 50.5038 47.1217 50.513 47.0651 50.5049C47.0085 50.4968 46.9557 50.4718 46.9137 50.4331C46.8304 50.3564 46.7522 50.2745 46.6796 50.1878C46.5721 50.0629 46.4701 49.933 46.366 49.8053C46.358 49.7926 46.3459 49.7831 46.3317 49.7783C46.3176 49.7735 46.3022 49.7737 46.2881 49.779C46.2478 49.793 46.2545 49.8283 46.254 49.8563C46.2501 50.0416 46.2506 50.227 46.245 50.4123C46.2437 50.4276 46.2387 50.4423 46.2304 50.4552C46.2221 50.4681 46.2107 50.4787 46.1974 50.4862C46.184 50.4937 46.169 50.4979 46.1537 50.4983C46.1384 50.4986 46.1232 50.4953 46.1095 50.4885C46.0794 50.4809 46.052 50.4653 46.0301 50.4433C46.0082 50.4213 45.9926 50.3937 45.9852 50.3636C45.9728 50.3032 45.9662 50.2416 45.9656 50.1799C45.9656 49.5725 45.9656 48.9645 45.9656 48.356C45.9656 48.3359 45.9656 48.3151 45.9656 48.2944C45.9689 48.2311 45.9729 48.1656 46.0563 48.1606C46.0925 48.1557 46.1292 48.1633 46.1605 48.1821C46.1918 48.2009 46.2157 48.2299 46.2282 48.2642C46.2456 48.3232 46.2531 48.3847 46.2506 48.4462C46.2506 48.673 46.2506 48.8998 46.2506 49.1266L46.2517 49.4228Z" fill="#706E6E"/>
<path d="M14.3922 49.6328C14.3959 49.7618 14.3742 49.8902 14.3284 50.0108C14.222 50.3071 14.0237 50.4941 13.6972 50.5243C13.3708 50.5546 13.0656 50.4095 12.9239 50.12C12.84 49.9588 12.7992 49.7786 12.8056 49.5969C12.812 49.4153 12.8653 49.2384 12.9603 49.0835C13.107 48.8281 13.3523 48.7189 13.6384 48.7307C13.7796 48.7306 13.9176 48.7721 14.0354 48.8498C14.1532 48.9276 14.2455 49.0382 14.3009 49.168C14.3678 49.3135 14.3991 49.4728 14.3922 49.6328ZM14.087 49.6479C14.0966 49.5089 14.0663 49.37 13.9996 49.2475C13.84 48.9586 13.406 48.9345 13.2224 49.2027C13.0616 49.4363 13.0773 49.8568 13.2571 50.0741C13.3089 50.1386 13.377 50.1882 13.4544 50.2177C13.5318 50.2473 13.6156 50.2557 13.6972 50.2421C13.877 50.2191 13.9879 50.1055 14.0467 49.9347C14.0766 49.8421 14.0902 49.7451 14.087 49.6479Z" fill="#706E6E"/>
<path d="M33.4075 49.616C33.41 49.7577 33.3845 49.8986 33.3324 50.0304C33.226 50.3149 33.0284 50.4913 32.7164 50.521C32.4045 50.5507 32.1486 50.4426 31.9711 50.1783C31.7555 49.8557 31.7796 49.3159 32.0181 49.0101C32.3485 48.5867 33.0474 48.6517 33.2972 49.1288C33.3707 49.2806 33.4084 49.4473 33.4075 49.616ZM33.1034 49.6547C33.1094 49.5051 33.0737 49.3568 33.0004 49.2263C32.8324 48.9569 32.4208 48.9395 32.2399 49.1949C32.0752 49.4273 32.0864 49.8484 32.2645 50.0668C32.4734 50.3222 32.9253 50.3306 33.0569 49.9414C33.0892 49.8501 33.105 49.7537 33.1034 49.6569V49.6547Z" fill="#706E6E"/>
<path d="M14.7898 49.3276C14.7898 49.1831 14.7898 49.0392 14.7898 48.8947C14.7898 48.8387 14.8015 48.7883 14.8609 48.7732C14.886 48.7667 14.9123 48.766 14.9377 48.7711C14.9631 48.7762 14.987 48.7871 15.0076 48.8029C15.0284 48.8181 15.0457 48.8375 15.0585 48.8599C15.0712 48.8823 15.0791 48.9071 15.0815 48.9328C15.0888 49.0045 15.0927 49.0761 15.0933 49.1484C15.0933 49.313 15.0899 49.4782 15.0961 49.6429C15.097 49.7456 15.1101 49.8479 15.1353 49.9475C15.1486 50.0003 15.1727 50.0498 15.206 50.0928C15.2392 50.1359 15.281 50.1717 15.3287 50.198C15.3764 50.2242 15.429 50.2404 15.4832 50.2455C15.5374 50.2506 15.592 50.2444 15.6438 50.2275C15.6996 50.2148 15.7511 50.1873 15.7926 50.1479C15.8342 50.1085 15.8644 50.0586 15.8801 50.0035C15.9111 49.8943 15.9254 49.781 15.9227 49.6675C15.9227 49.4099 15.9227 49.1523 15.9227 48.8947C15.9227 48.8432 15.9227 48.7872 15.9893 48.7732C16.0143 48.7662 16.0406 48.7653 16.066 48.7706C16.0915 48.7759 16.1153 48.7871 16.1355 48.8034C16.1658 48.8306 16.1888 48.8648 16.2027 48.9031C16.2185 48.9519 16.2266 49.003 16.2267 49.0543C16.2267 49.3018 16.2267 49.5488 16.2267 49.7963C16.225 49.8374 16.2205 49.8784 16.2133 49.9189C16.1377 50.4106 15.6869 50.6693 15.2232 50.4845C15.1262 50.4477 15.0397 50.3875 14.9714 50.3094C14.903 50.2313 14.8549 50.1376 14.8312 50.0365C14.8047 49.9264 14.7891 49.8138 14.7847 49.7005C14.7769 49.5773 14.7847 49.4536 14.7847 49.3298L14.7898 49.3276Z" fill="#737070"/>
<path d="M26.8831 48.734C26.8165 48.734 26.7801 48.6747 26.7286 48.6461C26.6238 48.5842 26.5059 48.5481 26.3845 48.5405C26.2631 48.5329 26.1417 48.5542 26.0301 48.6026C25.9185 48.651 25.8199 48.7252 25.7425 48.8189C25.665 48.9127 25.6109 49.0235 25.5845 49.1423C25.5324 49.3654 25.5571 49.5996 25.6545 49.807C25.8113 50.1648 26.205 50.3295 26.5858 50.2141C26.6731 50.1831 26.7561 50.1409 26.8327 50.0887C26.8407 50.0845 26.8495 50.0824 26.8585 50.0824C26.8674 50.0824 26.8763 50.0845 26.8842 50.0887C26.8906 50.0964 26.8954 50.1054 26.8983 50.115C26.9012 50.1246 26.9021 50.1347 26.901 50.1447C26.8954 50.2015 26.8764 50.2561 26.8457 50.3042C26.8149 50.3523 26.7733 50.3924 26.7241 50.4213C26.6546 50.4661 26.5769 50.4967 26.4956 50.5115C26.2969 50.5526 26.0903 50.5324 25.9033 50.4533C25.7164 50.3743 25.5579 50.2403 25.449 50.0691C25.1902 49.6485 25.1796 49.2106 25.4187 48.776C25.6097 48.4294 25.9916 48.2015 26.4984 48.2771C26.5865 48.2861 26.6703 48.3197 26.7402 48.374C26.8101 48.4284 26.8633 48.5013 26.8938 48.5845C26.9051 48.6082 26.91 48.6345 26.9082 48.6607C26.9063 48.6869 26.8977 48.7122 26.8831 48.734Z" fill="#737070"/>
<path d="M45.5203 49.8999C45.5203 50.0545 45.5203 50.209 45.5203 50.3636C45.5203 50.4257 45.5164 50.4913 45.4307 50.498C45.3948 50.5051 45.3576 50.4997 45.3251 50.4828C45.2927 50.4659 45.2669 50.4385 45.2521 50.405C45.2316 50.347 45.2218 50.2857 45.223 50.2241C45.2191 50.0181 45.223 49.812 45.2196 49.6081C45.2196 49.5051 45.2108 49.4023 45.1933 49.3007C45.1597 49.1327 45.0455 49.042 44.8674 49.0207C44.6591 48.9989 44.5247 49.0593 44.4474 49.2089C44.4019 49.3018 44.3803 49.4046 44.3847 49.5079C44.3847 49.7554 44.3847 50.003 44.3847 50.2505C44.3858 50.3122 44.3824 50.374 44.3746 50.4353C44.3667 50.4806 44.3259 50.4957 44.2816 50.4969C44.2453 50.4989 44.2092 50.4891 44.1789 50.4689C44.1486 50.4487 44.1257 50.4192 44.1136 50.3849C44.0961 50.3368 44.0873 50.286 44.0879 50.2348C44.0856 49.9772 44.0856 49.7196 44.0879 49.462C44.0919 49.337 44.1268 49.2149 44.1894 49.1066C44.2519 48.9984 44.3403 48.9072 44.4465 48.8412C44.5527 48.7752 44.6736 48.7365 44.7984 48.7284C44.9232 48.7204 45.0481 48.7433 45.1619 48.795C45.2563 48.8382 45.3374 48.9061 45.3965 48.9914C45.4556 49.0767 45.4907 49.1764 45.4979 49.28C45.5209 49.4838 45.5209 49.691 45.531 49.896L45.5203 49.8999Z" fill="#706E6E"/>
<path d="M27.219 49.3545C27.219 49.1898 27.219 49.0252 27.219 48.8605C27.219 48.7922 27.2789 48.7581 27.3478 48.7715C27.389 48.7778 27.4269 48.7978 27.4554 48.8283C27.4839 48.8588 27.5012 48.8979 27.5046 48.9395C27.5134 49.0211 27.5171 49.1032 27.5158 49.1853C27.5197 49.4015 27.513 49.6182 27.527 49.8338C27.5388 50.0225 27.6312 50.1659 27.8227 50.2258C27.8712 50.2438 27.923 50.2514 27.9746 50.2482C28.0263 50.2449 28.0767 50.2308 28.1225 50.2067C28.1684 50.1827 28.2086 50.1493 28.2407 50.1087C28.2728 50.0681 28.296 50.0212 28.3088 49.971C28.3301 49.881 28.3397 49.7886 28.3373 49.6961C28.3413 49.439 28.3373 49.1814 28.3407 48.9238C28.3407 48.8645 28.3323 48.7945 28.4135 48.7749C28.4538 48.7654 28.4961 48.7705 28.5331 48.7891C28.57 48.8077 28.5993 48.8388 28.6157 48.8768C28.6291 48.9045 28.6371 48.9345 28.6392 48.9653C28.6392 49.2744 28.6554 49.5813 28.6341 49.8915C28.6056 50.2958 28.3435 50.5243 27.9414 50.5327C27.5545 50.5405 27.2694 50.3031 27.2269 49.91C27.2149 49.725 27.2136 49.5396 27.2229 49.3545H27.219Z" fill="#737070"/>
<path d="M22.3236 49.8658C22.3236 50.0517 22.3269 50.237 22.3236 50.4224C22.3236 50.4857 22.2676 50.5042 22.2116 50.4974C22.1124 50.4857 22.0542 50.4381 22.0396 50.349C22.0313 50.2878 22.0278 50.226 22.029 50.1642C22.029 49.9789 22.029 49.793 22.029 49.607C22.0308 49.5349 22.0289 49.4628 22.0234 49.3909C21.9904 49.0767 21.6902 48.9154 21.4074 49.0599C21.3563 49.0854 21.3124 49.1233 21.2795 49.17C21.2467 49.2167 21.226 49.2709 21.2192 49.3276C21.2072 49.4204 21.2019 49.514 21.2036 49.6076C21.2036 49.8551 21.2036 50.1026 21.2036 50.3502C21.2036 50.4112 21.2036 50.4795 21.1257 50.4974C21.0851 50.5063 21.0427 50.5006 21.0059 50.4812C20.9691 50.4618 20.9404 50.4301 20.9247 50.3916C20.9115 50.3528 20.9043 50.3122 20.9034 50.2712C20.9034 49.9912 20.8933 49.7112 20.9034 49.4357C20.9331 48.7766 21.5412 48.6242 21.9433 48.785C22.192 48.8841 22.2995 49.0918 22.3219 49.345C22.337 49.5186 22.3247 49.695 22.3247 49.8702L22.3236 49.8658Z" fill="#747373"/>
<path d="M29.0816 50.0859C29.2001 50.1508 29.3261 50.2008 29.4568 50.2348C29.5779 50.2632 29.7047 50.2546 29.8208 50.2102C29.8601 50.197 29.8944 50.1719 29.9188 50.1384C29.9432 50.1049 29.9565 50.0646 29.9569 50.0232C29.964 49.9819 29.9568 49.9394 29.9364 49.9028C29.916 49.8663 29.8837 49.8378 29.8449 49.8221C29.7402 49.7812 29.631 49.751 29.5235 49.7168C29.4334 49.6955 29.3451 49.6677 29.2591 49.6334C29.0609 49.5371 28.9926 49.3534 29.062 49.1406C29.0864 49.0615 29.1292 48.9894 29.1869 48.93C29.3919 48.7212 29.7928 48.6607 30.0487 48.8046C30.1014 48.8365 30.1482 48.8772 30.1871 48.925C30.2431 48.99 30.2464 49.0986 30.2055 49.1221C30.1495 49.1552 30.1092 49.1098 30.0661 49.0896C29.9243 49.0254 29.7671 49.0033 29.6131 49.0258C29.5405 49.0335 29.4722 49.0636 29.4176 49.112C29.3958 49.1295 29.3787 49.1521 29.3678 49.1778C29.3569 49.2035 29.3526 49.2315 29.3553 49.2593C29.358 49.2871 29.3675 49.3138 29.3831 49.337C29.3987 49.3601 29.4198 49.3791 29.4445 49.392C29.5101 49.421 29.5779 49.4448 29.6472 49.4632C29.7643 49.5012 29.8852 49.5304 29.9989 49.5752C30.3747 49.728 30.3114 50.1956 30.1025 50.3704C29.8936 50.5451 29.4607 50.5843 29.2272 50.4342C29.1922 50.4125 29.1612 50.3851 29.1354 50.353C29.1103 50.3198 29.0925 50.2816 29.0833 50.241C29.0781 50.1894 29.0775 50.1375 29.0816 50.0859Z" fill="#737070"/>
<path d="M12.5962 48.4221C12.5806 48.512 12.5471 48.5979 12.4976 48.6747C12.3643 48.9297 12.21 49.1732 12.0362 49.4027C11.9457 49.515 11.901 49.6575 11.9113 49.8014C11.9192 49.9867 11.9113 50.1721 11.9113 50.358C11.9113 50.4202 11.9052 50.4868 11.8223 50.4952C11.7812 50.5024 11.739 50.4951 11.7027 50.4747C11.6663 50.4543 11.6382 50.422 11.6229 50.3832C11.6109 50.3333 11.6051 50.2822 11.6056 50.2309C11.6056 50.0763 11.5988 49.9218 11.6056 49.7672C11.6105 49.6438 11.5725 49.5225 11.498 49.4239C11.2961 49.1375 11.1242 48.8311 10.9851 48.5095C10.9621 48.4635 10.9446 48.415 10.933 48.365C10.931 48.3549 10.9312 48.3445 10.9338 48.3346C10.9363 48.3247 10.9411 48.3155 10.9477 48.3077C10.9544 48.2998 10.9627 48.2936 10.9721 48.2895C10.9814 48.2854 10.9916 48.2834 11.0019 48.2838C11.0533 48.2753 11.106 48.2834 11.1525 48.3068C11.199 48.3303 11.2369 48.3679 11.2606 48.4143C11.3166 48.5134 11.3569 48.6192 11.4124 48.7178C11.5076 48.8886 11.6072 49.0571 11.7097 49.2218C11.7528 49.2918 11.8038 49.2884 11.8531 49.2179C12.0037 48.9963 12.1371 48.7634 12.2518 48.5212C12.281 48.4556 12.3135 48.3915 12.3492 48.3291C12.389 48.267 12.454 48.2731 12.5172 48.2933C12.5431 48.3025 12.5651 48.3203 12.5794 48.3438C12.5938 48.3672 12.5997 48.3948 12.5962 48.4221Z" fill="#747373"/>
<path d="M30.9715 48.4361C31.0393 48.5335 30.9346 48.6881 31.0555 48.7452C31.1412 48.7861 31.2571 48.762 31.3596 48.7665C31.3904 48.7665 31.4212 48.7665 31.452 48.7665C31.5147 48.7665 31.5842 48.7665 31.5864 48.8538C31.5915 48.8907 31.5829 48.9281 31.5622 48.9591C31.5416 48.99 31.5104 49.0123 31.4744 49.0218C31.4043 49.037 31.3332 49.0471 31.2616 49.0521C31.2106 49.0571 31.1586 49.0521 31.107 49.0588C31.0555 49.0655 31.0074 49.093 31.0068 49.1523C31.0068 49.4323 30.9967 49.709 31.0107 49.9862C31.0186 50.1542 31.1289 50.2415 31.298 50.2471C31.3492 50.2451 31.4003 50.2401 31.4509 50.232C31.5388 50.2242 31.5802 50.2768 31.5578 50.3586C31.5489 50.3936 31.531 50.4258 31.5059 50.4518C31.4807 50.4778 31.4492 50.4969 31.4145 50.507C31.0852 50.619 30.7778 50.4442 30.7111 50.106C30.7017 50.0554 30.697 50.004 30.6971 49.9526C30.6971 49.5818 30.6971 49.2111 30.6971 48.8398C30.6894 48.7257 30.7234 48.6127 30.7929 48.5218C30.8388 48.4658 30.8903 48.412 30.9715 48.4361Z" fill="#737070"/>
<path d="M38.5226 49.8249C38.5226 49.691 38.5165 49.5572 38.5226 49.4239C38.5266 49.2895 38.5615 49.1579 38.6246 49.0392C38.6849 48.9299 38.7814 48.845 38.8975 48.7992C39.0136 48.7535 39.1421 48.7496 39.2607 48.7883C39.3107 48.8029 39.3539 48.8347 39.3827 48.878C39.4114 48.9214 39.424 48.9735 39.4181 49.0252C39.4181 49.0655 39.4002 49.1058 39.3419 49.0935C39.2824 49.0777 39.2217 49.0665 39.1605 49.0599C38.9796 49.0493 38.8878 49.1159 38.853 49.2901C38.8353 49.3912 38.8265 49.4937 38.8267 49.5964C38.8234 49.854 38.8267 50.111 38.8267 50.3686C38.8267 50.4201 38.8222 50.4739 38.7646 50.4963C38.7296 50.5053 38.6927 50.504 38.6585 50.4926C38.6242 50.4812 38.5939 50.4601 38.5714 50.4319C38.5366 50.3804 38.5186 50.3193 38.5198 50.2572C38.5198 50.1127 38.5198 49.9688 38.5198 49.8249H38.5226Z" fill="#747373"/>
<path d="M16.6898 49.8199C16.6898 49.686 16.6898 49.5522 16.6898 49.4189C16.6904 49.2737 16.7319 49.1316 16.8097 49.009C16.8701 48.9119 16.9605 48.8371 17.0672 48.7961C17.174 48.7551 17.2912 48.75 17.401 48.7816C17.4366 48.7884 17.4701 48.8037 17.4985 48.8262C17.5268 48.8488 17.5493 48.8778 17.564 48.911C17.5772 48.9332 17.5853 48.9582 17.5876 48.9839C17.5899 49.0097 17.5864 49.0357 17.5774 49.0599C17.5455 49.1227 17.4906 49.0885 17.4436 49.0779C17.4136 49.0699 17.3831 49.0641 17.3523 49.0605C17.1311 49.0437 17.027 49.126 17.0023 49.3511C16.9894 49.4738 16.9945 49.5981 16.9934 49.7213C16.9934 49.9453 16.9934 50.1738 16.9878 50.4C16.9878 50.4801 16.9245 50.517 16.8326 50.493C16.7918 50.4844 16.7552 50.4618 16.7293 50.4291C16.7034 50.3963 16.6898 50.3555 16.691 50.3138C16.6859 50.1491 16.691 49.9845 16.691 49.8199H16.6898Z" fill="#747373"/>
<path d="M29.4299 13.3745C29.4058 11.2252 31.2298 9.52837 33.2659 9.53229C35.236 9.53621 37.0694 11.1244 37.065 13.3689C37.0605 15.5926 35.2276 17.192 33.2469 17.192C31.1749 17.192 29.407 15.4834 29.4299 13.3745Z" fill="#FFFEFE"/>
<path d="M19.132 41.2804C18.8089 41.2804 18.5205 41.2804 18.2321 41.2804C18.0775 41.2804 18.0601 41.2552 18.0747 41.0933C18.0982 40.8262 18.1307 40.5602 18.2388 40.3093C18.4628 39.7908 18.8296 39.4133 19.3868 39.2711C19.849 39.1472 20.3398 39.1868 20.7761 39.3831C21.265 39.6004 21.4554 40.0221 21.4481 40.5031C21.4518 40.6228 21.4181 40.7407 21.3518 40.8404C21.2855 40.9402 21.1898 41.0168 21.078 41.0597C20.8776 41.1397 20.6674 41.1922 20.453 41.216C20.0028 41.2821 19.5497 41.2759 19.132 41.2804Z" fill="#FCFCFC"/>
<path d="M40.7123 49.7958C40.7123 49.4598 40.6977 49.4726 41.0298 49.4777C41.1528 49.4782 41.2755 49.4894 41.3966 49.5113C41.5685 49.5443 41.6424 49.6373 41.6564 49.8064C41.6732 50.0114 41.6055 50.1385 41.4386 50.2029C41.2625 50.2626 41.0733 50.2725 40.892 50.2314C40.78 50.2107 40.7279 50.1385 40.7145 50.0114C40.7134 49.9908 40.7134 49.9703 40.7145 49.9498C40.7117 49.896 40.7123 49.8473 40.7123 49.7958Z" fill="#F7F8F8"/>
<path d="M41.0583 49.2335C40.6826 49.2246 40.7089 49.2509 40.7089 48.8757C40.7089 48.566 40.7279 48.547 41.0337 48.5397C41.1664 48.5287 41.3 48.5457 41.4257 48.5895C41.5612 48.6455 41.6206 48.7458 41.615 48.9076C41.6088 49.0605 41.5332 49.1708 41.391 49.2005C41.2808 49.2176 41.1697 49.2286 41.0583 49.2335Z" fill="#F7F8F8"/>
<path d="M18.8063 49.3673C18.802 49.2436 18.821 49.1201 18.8623 49.0033C18.9552 48.6953 19.1854 48.5301 19.5063 48.5329C19.8462 48.5363 20.073 48.7105 20.1581 49.0369C20.2253 49.2749 20.2253 49.5269 20.1581 49.7649C20.0679 50.0741 19.8361 50.2538 19.5281 50.2555C19.1983 50.2555 18.9541 50.0791 18.8662 49.7627C18.8233 49.6354 18.803 49.5016 18.8063 49.3673Z" fill="#F7F8F8"/>
<path d="M23.4602 49.5191C23.3146 49.5191 23.2424 49.5219 23.1707 49.5191C23.0643 49.5146 23.0324 49.4631 23.0615 49.3556C23.1489 49.0325 23.4462 48.9552 23.6932 49.0381C23.7476 49.0558 23.7955 49.0893 23.8307 49.1344C23.8659 49.1795 23.8869 49.2341 23.8909 49.2912C23.9049 49.3987 23.8606 49.4799 23.7548 49.4962C23.6338 49.5141 23.5095 49.5158 23.4602 49.5191Z" fill="#F7F8F8"/>
<path d="M36.9731 49.504C36.9815 49.1338 37.2531 48.9255 37.5841 49.0291C37.6283 49.0426 37.6692 49.0652 37.7041 49.0955C37.739 49.1258 37.7672 49.1631 37.7868 49.2049C37.8596 49.3528 37.8036 49.4805 37.6435 49.5006C37.4211 49.5309 37.1958 49.532 36.9731 49.504Z" fill="#F7F8F8"/>
<path d="M43.1196 49.6944C43.1504 49.6944 43.1812 49.6944 43.2114 49.6944C43.3139 49.7 43.3413 49.7258 43.3469 49.8182C43.3469 49.849 43.3469 49.8798 43.3469 49.91C43.3469 50.0511 43.3145 50.1777 43.1599 50.227C42.9919 50.2796 42.8351 50.2684 42.7001 50.1486C42.6749 50.1232 42.6555 50.0926 42.6434 50.0589C42.6313 50.0252 42.6268 49.9893 42.6303 49.9536C42.6337 49.918 42.6449 49.8836 42.6632 49.8528C42.6815 49.822 42.7063 49.7957 42.736 49.7756C42.8289 49.7134 42.9174 49.6944 43.1196 49.6944Z" fill="#F7F8F8"/>
<path d="M14.087 49.6479C14.0904 49.7459 14.0768 49.8437 14.0467 49.9369C13.9879 50.1049 13.8787 50.2214 13.6972 50.2443C13.6156 50.2579 13.5317 50.2495 13.4544 50.22C13.377 50.1905 13.3089 50.1409 13.2571 50.0763C13.0773 49.8591 13.0616 49.4385 13.2223 49.205C13.406 48.9367 13.8383 48.9608 13.9996 49.2498C14.0658 49.3716 14.0961 49.5096 14.087 49.6479Z" fill="#F7F8F8"/>
<path d="M33.1036 49.6569C33.1054 49.7545 33.0897 49.8516 33.0571 49.9436C32.9255 50.3328 32.4736 50.3244 32.2647 50.0691C32.0866 49.8507 32.0754 49.4295 32.2401 49.1971C32.421 48.9418 32.8314 48.9591 33.0006 49.2285C33.0739 49.359 33.1096 49.5073 33.1036 49.6569Z" fill="#F7F8F8"/>
</g>
<defs>
<clipPath id="clip0_660_6595">
<rect width="56" height="56" fill="white" transform="translate(0.913574)"/>
</clipPath>
</defs>
</svg>
