<svg width="213" height="16" viewBox="0 0 213 16" fill="none" xmlns="http://www.w3.org/2000/svg">
<g clip-path="url(#clip0_224_15345)">
<path d="M4.62132 6.5101C6.28899 6.5101 8.03606 6.44228 9.70373 6.37447C10.4184 6.37447 11.0537 6.30666 11.7685 6.30666C14.7861 6.17103 17.8038 6.0354 20.8215 5.89978C24.4745 5.76415 28.048 5.56071 31.701 5.42508C36.8628 5.15383 42.0247 4.95039 47.1865 4.67913C48.3777 4.61132 49.5689 4.61132 50.76 4.54351C53.7777 4.40788 56.7954 4.27225 59.8131 4.20444C62.8308 4.06881 65.8484 3.93318 68.8661 3.86537C70.0573 3.79756 71.2485 3.72974 72.4397 3.72974C77.2044 3.59412 82.0486 3.45849 86.8134 3.32286C89.7516 3.25505 92.6899 3.18723 95.7076 3.05161C96.8988 3.05161 98.0105 2.98379 99.2017 2.98379C103.808 2.91598 108.493 2.84817 113.099 2.78035C117.705 2.71254 122.231 2.64473 126.837 2.57691C128.029 2.57691 129.22 2.57691 130.49 2.57691C133.508 2.57691 136.446 2.57691 139.464 2.57691C144.149 2.57691 148.755 2.57691 153.441 2.5091C154.949 2.5091 156.458 2.5091 157.967 2.5091C161.144 2.5091 164.32 2.5091 167.497 2.5091C167.735 2.5091 168.052 2.5091 168.291 2.5091C161.144 2.57691 153.917 2.64473 146.77 2.78035C143.752 2.84817 140.814 2.84817 137.796 2.91598C136.526 2.91598 135.176 2.91598 133.905 2.98379C129.537 3.05161 125.249 3.18723 120.881 3.25505C115.878 3.39068 110.875 3.45849 105.872 3.59412C104.999 3.59412 104.205 3.66193 103.331 3.66193C100.631 3.79756 98.0105 3.86537 95.3105 4.001C89.9105 4.20444 84.5104 4.40788 79.1103 4.61132C78.3162 4.61132 77.5221 4.67913 76.728 4.74695C74.1073 4.88257 71.4073 5.08601 68.7867 5.22164C64.0219 5.49289 59.3366 5.76415 54.5718 6.0354C53.3012 6.10322 51.9512 6.23884 50.6806 6.30666C47.663 6.5101 44.6453 6.71354 41.6276 6.98479C37.8158 7.25605 33.9246 7.5273 30.1128 7.79855C24.7921 8.20543 19.3921 8.61232 14.0714 9.0192C12.8008 9.08701 11.5302 9.22264 10.1802 9.29045C7.87724 9.49389 5.57427 9.69733 3.27131 9.90077C3.03307 9.90077 2.79483 10.0364 2.79483 10.3077C2.79483 10.5111 3.03307 10.7145 3.27131 10.7145C4.14485 10.7145 4.93897 10.7823 5.81251 10.7823C5.65369 11.1214 5.57427 11.3249 5.57427 11.5283C5.57427 12.2742 6.28899 12.9524 7.24194 12.9524C13.8332 12.6133 20.345 12.2064 26.9363 11.9352C32.654 11.7317 38.3717 11.4605 44.0894 11.257C50.363 10.9858 56.716 10.7145 62.9896 10.5111C64.9749 10.4433 66.9602 10.3755 68.9455 10.2398C69.5014 10.2398 70.0573 10.172 70.6926 10.172C80.8574 9.96859 91.0222 9.69733 101.187 9.49389C106.587 9.35826 112.067 9.22264 117.467 9.15482C119.452 9.08701 121.358 9.08701 123.343 9.0192C133.746 8.88357 144.149 8.74794 154.552 8.61232C158.999 8.5445 163.447 8.47669 167.894 8.40887C171.705 8.34106 175.517 8.34106 179.329 8.20543C182.506 8.13762 185.603 8.00199 188.779 7.93418C190.367 7.86637 191.956 7.86637 193.464 7.79855C197.038 7.59511 200.612 7.39167 204.185 7.18823C203.947 7.45949 203.947 7.86637 204.026 8.13762C204.106 8.47669 204.344 8.74794 204.741 8.88357C205.059 9.0192 205.535 9.15482 205.853 9.0192C206.647 8.74794 207.441 8.47669 208.156 8.20543C208.156 8.20543 208.156 8.20543 208.076 8.20543C208.156 8.20543 208.156 8.13762 208.235 8.13762C208.315 8.13762 208.394 8.06981 208.394 8.06981H208.315C208.712 7.93418 209.109 7.79855 209.585 7.59511C209.982 7.45949 210.459 7.25605 210.856 7.12042C211.332 6.91698 211.729 6.71354 212.206 6.5101C212.682 6.30666 213 5.76415 213 5.28945C213 5.0182 212.921 4.81476 212.762 4.54351C212.603 4.27225 212.206 3.93318 211.809 3.86537C211.412 3.79756 211.015 3.72974 210.618 3.72974C210.538 3.72974 210.459 3.72974 210.379 3.72974C210.141 3.72974 209.823 3.72974 209.585 3.79756C208.95 3.86537 208.394 3.93318 207.759 3.93318C207.282 3.93318 206.806 4.001 206.25 4.001C204.9 4.06881 203.629 4.13662 202.279 4.27225C201.962 4.27225 201.565 4.34006 201.247 4.34006C201.406 4.20444 201.485 4.06881 201.485 3.93318C201.565 3.79756 201.565 3.66193 201.565 3.5263C201.565 3.45849 201.565 3.32286 201.644 3.25505C201.644 3.11942 201.644 2.98379 201.565 2.91598C201.565 2.91598 201.644 2.91598 201.644 2.84817C201.882 2.71254 202.12 2.57691 202.279 2.30566C202.438 2.10222 202.518 1.83096 202.518 1.55971C202.518 1.28846 202.438 1.08502 202.279 0.813762C202.2 0.745949 202.12 0.610322 202.041 0.542508C201.803 0.339068 201.565 0.271254 201.326 0.203441C200.85 0.0678135 200.294 0 199.738 0C199.262 0 198.865 0 198.388 0C197.753 0 197.117 0 196.482 0C195.609 0 194.656 0 193.782 0C191.4 0 189.017 0 186.635 0C184.411 0 182.108 0 179.885 0C177.82 0 175.835 0 173.77 0C165.591 0 157.491 0.0678135 149.311 0.135627C143.196 0.203441 137.082 0.271254 130.967 0.271254C128.267 0.271254 125.487 0.339068 122.787 0.406881C116.673 0.542508 110.558 0.610322 104.443 0.745949C102.696 0.745949 100.949 0.813762 99.2017 0.813762C98.1694 0.813762 97.2164 0.881576 96.1841 0.881576C90.1487 1.08502 84.1133 1.28846 78.078 1.4919C76.2515 1.55971 74.425 1.62752 72.5191 1.69534C71.4867 1.69534 70.4544 1.76315 69.422 1.83096C63.3866 2.10222 57.4307 2.37347 51.3953 2.64473C48.2982 2.78035 45.2012 2.91598 42.1041 3.11942C36.7834 3.39068 31.4628 3.66193 26.2216 4.001C21.6156 4.27225 17.0097 4.47569 12.4038 4.67913C11.689 4.74695 10.9743 4.74695 10.1802 4.81476C8.98902 4.88257 7.79783 4.88257 6.60664 4.95039C5.57427 5.22164 4.4625 5.22164 3.43013 5.22164C3.35072 4.95039 3.03307 4.74695 2.79483 4.81476C2.08012 4.81476 1.44482 4.88257 0.730105 4.95039C0.412454 5.0182 0.0948039 5.15383 0.0153913 5.42508C-0.0640213 5.76415 0.174217 6.10322 0.491867 6.17103C0.809517 6.23884 1.12717 6.30666 1.44482 6.37447C1.76247 6.44228 2.00071 6.44228 2.31836 6.44228C3.11248 6.5101 3.8272 6.5101 4.62132 6.5101ZM190.447 4.34006C191.4 4.34006 192.432 4.34006 193.385 4.34006C193.464 4.5435 193.623 4.67913 193.782 4.81476C193.385 4.81476 192.988 4.88257 192.67 4.88257C191.956 4.88257 191.241 4.95039 190.526 4.95039C187.35 5.0182 184.253 5.15383 181.076 5.22164C179.647 5.28945 178.217 5.35727 176.788 5.35727C174.564 5.35727 172.261 5.42508 170.038 5.42508C164.876 5.49289 159.794 5.56071 154.632 5.62852C144.626 5.76415 134.699 5.89978 124.693 6.0354C117.546 6.10322 110.399 6.30666 103.252 6.5101C92.5311 6.78135 81.731 6.98479 71.0103 7.25605C68.8661 7.32386 66.722 7.39167 64.5778 7.5273C58.4631 7.79855 52.3483 8.00199 46.2335 8.27325C40.2776 8.5445 34.2422 8.74794 28.2863 9.0192C27.7304 9.0192 27.1745 9.08701 26.6186 9.08701C28.2069 8.95138 29.8745 8.88357 31.4628 8.74794C37.1011 8.40887 42.7394 8.00199 48.3777 7.66293C50.363 7.5273 52.3483 7.39167 54.2542 7.25605C55.2866 7.18823 56.3189 7.12042 57.2719 7.12042C63.2278 6.84916 69.1044 6.5101 74.9809 6.23884C76.0927 6.17103 77.2839 6.10322 78.3956 6.0354C80.0633 5.96759 81.731 5.89978 83.3192 5.89978C89.3546 5.69633 95.3899 5.49289 101.425 5.28945C102.775 5.22164 104.125 5.22164 105.396 5.15383C105.714 5.15383 106.111 5.15383 106.428 5.15383C107.381 5.15383 108.334 5.15383 109.208 5.08601C115.243 4.95039 121.358 4.88257 127.393 4.74695C130.173 4.67913 132.952 4.61132 135.732 4.61132C144.705 4.54351 153.758 4.47569 162.732 4.40788C172.102 4.40788 181.314 4.34006 190.447 4.34006Z" fill="#EA661C"/>
<path d="M16.5184 16.0001C16.7585 16.0001 16.9531 15.8296 16.9531 15.6191C16.9531 15.4087 16.7585 15.2381 16.5184 15.2381C16.2784 15.2381 16.0837 15.4087 16.0837 15.6191C16.0837 15.8296 16.2784 16.0001 16.5184 16.0001Z" fill="#EA661C"/>
</g>
<defs>
<clipPath id="clip0_224_15345">
<rect width="213" height="16" fill="white"/>
</clipPath>
</defs>
</svg>
