<svg width="56" height="56" viewBox="0 0 56 56" fill="none" xmlns="http://www.w3.org/2000/svg">
<path d="M31.248 30.8952C31.2715 30.8521 31.2906 30.8067 31.3113 30.7625L38.8315 14.4183C38.8931 14.285 38.9553 14.1523 39.0158 14.0185C39.037 13.9726 39.0583 13.9322 39.1199 13.9328C39.2582 13.9328 39.3971 13.9328 39.555 13.9328C39.5203 14.0168 39.499 14.079 39.4699 14.1389C36.7886 19.9845 34.1075 25.83 31.4266 31.6753C31.3197 31.9082 31.2094 32.1406 31.1063 32.3753C31.0156 32.5825 31.029 32.7841 31.1791 32.9599C31.2444 33.042 31.3319 33.1036 31.4312 33.1373C31.5305 33.1711 31.6373 33.1756 31.7391 33.1503C31.9631 33.105 32.0751 32.9498 32.1625 32.7583C34.8382 26.9354 37.5129 21.1137 40.1867 15.293C40.4421 14.7375 40.6907 14.1803 40.9539 13.627C41.0984 13.3202 40.9814 12.8884 40.5782 12.805V12.768H38.5588C38.5608 12.7737 38.5615 12.7797 38.5609 12.7857C38.5603 12.7917 38.5585 12.7975 38.5554 12.8027C38.3359 12.8509 38.2194 13.006 38.1293 13.1947C37.8306 13.8451 37.5319 14.4952 37.2333 15.1452C35.1098 19.7798 32.984 24.4132 30.856 29.0455C30.8258 29.1122 30.7938 29.1777 30.7574 29.255C30.6734 29.199 30.6723 29.106 30.627 29.0405C30.4713 28.8165 30.5094 28.6098 30.6219 28.3651C32.8126 23.6003 34.9966 18.8326 37.1739 14.0622C37.2422 13.9121 37.3128 13.7626 37.3806 13.6142C37.5407 13.258 37.3699 12.9018 36.9919 12.7994C36.9901 12.7887 36.9859 12.7785 36.9796 12.7697H35C35.0031 12.7812 35.0014 12.7935 34.9955 12.8038C34.7771 12.8481 34.6478 12.9926 34.5593 13.1858C34.2181 13.9306 33.8763 14.675 33.5339 15.419L29.0343 25.219C29.0136 25.2633 28.9923 25.307 28.9643 25.3641C28.8736 25.2678 28.8523 25.1446 28.7907 25.0466C28.6754 24.864 28.6938 24.701 28.7851 24.5034C30.433 20.9347 32.0757 17.3637 33.7131 13.7906C33.7831 13.6382 33.8358 13.4865 33.7971 13.3134C33.7755 13.2017 33.7194 13.0995 33.6367 13.0213C33.5541 12.9431 33.449 12.8927 33.3362 12.8772C33.2693 12.8693 33.202 12.8661 33.1346 12.8677C32.6206 12.8677 32.1065 12.8772 31.593 12.8638C31.2603 12.8548 31.0548 12.997 30.921 13.2927C30.019 15.2654 29.1135 17.2372 28.2044 19.208C27.883 19.908 27.5615 20.608 27.2401 21.308C27.2177 21.3578 27.1908 21.4054 27.1538 21.4788C27.0642 21.2828 26.9858 21.107 26.9024 20.9306C26.8716 20.8628 26.9192 20.813 26.9433 20.7626C27.2087 20.1779 27.4755 19.594 27.7435 19.0109C28.5529 17.2435 29.3621 15.476 30.1711 13.7082C30.2831 13.4652 30.2501 13.2238 30.0832 13.0435C30.0373 12.9898 29.9804 12.9465 29.9163 12.9165C29.8523 12.8866 29.7826 12.8707 29.7119 12.8699C29.106 12.8699 28.5001 12.8649 27.8942 12.8699C27.6338 12.8699 27.4652 13.0239 27.3599 13.253L26.7551 14.5695C26.3194 15.5193 25.8832 16.4681 25.4464 17.416C25.4246 17.4642 25.415 17.5224 25.354 17.5577L24.901 16.576C24.4087 15.5042 23.9126 14.4334 23.4276 13.3582C23.3156 13.1057 23.1834 12.8839 22.9186 12.7697H22.6615C22.615 12.8302 22.5372 12.8402 22.479 12.8817C22.2891 13.0183 22.1939 13.197 22.2225 13.4333C22.2394 13.5172 22.269 13.598 22.3104 13.673C23.0944 15.3851 23.8784 17.0966 24.6624 18.8076C24.6886 18.8547 24.7029 18.9075 24.7039 18.9614C24.705 19.0153 24.6929 19.0686 24.6686 19.1167C23.7162 21.1809 22.7668 23.246 21.8204 25.312C21.806 25.3584 21.7805 25.4005 21.7459 25.4346C21.6995 25.3736 21.6632 25.3056 21.6384 25.233C19.8139 21.2615 17.9896 17.2896 16.1655 13.3174C16.1372 13.2498 16.1035 13.1846 16.0647 13.1225C15.8967 12.8716 15.5921 12.7865 15.3418 12.9209C15.0506 13.0754 14.9419 13.3689 15.0679 13.6657C15.0898 13.7166 15.1138 13.7659 15.1362 13.8163L21.1551 26.9539C21.1789 27.0113 21.2056 27.0673 21.2352 27.1219C21.4631 27.5139 21.9744 27.524 22.218 27.1449C22.2614 27.0712 22.2997 26.9947 22.3328 26.9158L25.2644 20.552C25.287 20.486 25.3203 20.4241 25.363 20.3689C25.4486 20.4915 25.4867 20.6349 25.5595 20.7609C25.6189 20.8628 25.6049 20.9507 25.5567 21.0532C25.3025 21.5958 25.0527 22.1413 24.8052 22.6856C23.9092 24.6355 23.0132 26.5854 22.1172 28.5354C22.0784 28.6119 22.0579 28.6964 22.0574 28.7823C22.0569 28.8681 22.0764 28.9529 22.1144 29.0298C22.162 29.1295 22.2074 29.2298 22.2527 29.33C22.4918 29.8592 22.7321 30.3878 22.9684 30.9182C23.0479 31.0962 23.1678 31.2245 23.3604 31.2738C23.6701 31.3527 23.9266 31.2306 24.0666 30.9305C24.3578 30.3038 24.645 29.6761 24.934 29.0483C25.6433 27.5042 26.3538 25.9605 27.0654 24.4171C27.0883 24.3673 27.0962 24.3051 27.1628 24.2726C27.2227 24.4031 27.2709 24.5297 27.3364 24.6462C27.4019 24.7626 27.389 24.855 27.3364 24.971C26.2108 27.4189 25.0867 29.8684 23.9641 32.3193C23.9361 32.3803 23.9053 32.4408 23.8834 32.5041C23.8559 32.5776 23.8445 32.6562 23.85 32.7345C23.8554 32.8128 23.8776 32.889 23.915 32.958C23.9524 33.027 24.0042 33.0872 24.0669 33.1345C24.1295 33.1817 24.2016 33.215 24.2782 33.2321C24.5498 33.3021 24.8035 33.1761 24.9334 32.8961C25.2321 32.2521 25.5282 31.6077 25.8216 30.963C26.5264 29.4301 27.2317 27.8973 27.9373 26.3648C27.963 26.3088 27.9709 26.2366 28.0459 26.2035C28.0902 26.2982 28.1316 26.3866 28.1725 26.4751C28.257 26.6582 28.336 26.8447 28.4278 27.0239C28.4728 27.1188 28.5435 27.1992 28.6319 27.2558C28.7203 27.3125 28.8229 27.3431 28.9279 27.3442C29.1581 27.3526 29.3199 27.2322 29.4375 27.0413C29.4704 26.9826 29.5002 26.9223 29.5266 26.8604L35.0336 14.896C35.1639 14.6126 35.2946 14.3295 35.4256 14.0465C35.4514 13.9905 35.4687 13.9294 35.5494 13.9345C35.6826 13.9406 35.817 13.9227 35.9531 13.9462C35.9587 14.0431 35.9027 14.1142 35.8686 14.1887C34.1266 17.99 32.3835 21.7905 30.6393 25.5903C30.2006 26.5461 29.7618 27.5016 29.3227 28.457C29.2864 28.5246 29.2657 28.5994 29.262 28.676C29.2583 28.7527 29.2718 28.8292 29.3014 28.8999C29.6001 29.5641 29.8999 30.2269 30.2008 30.8885C30.3033 31.1125 30.4903 31.2105 30.7322 31.2122C30.8398 31.2156 30.946 31.1874 31.0377 31.131C31.1293 31.0747 31.2025 30.9927 31.248 30.8952ZM26.0512 18.8339C26.2845 18.3232 26.5194 17.8127 26.7557 17.3023C27.2367 16.259 27.72 15.2169 28.1949 14.1708C28.2509 14.0442 28.3203 13.9938 28.4553 14.0095C28.5638 14.0153 28.6726 14.0153 28.7812 14.0095L26.2534 19.5199C26.1615 19.3211 26.0893 19.1615 26.0148 19.0036C25.984 18.9375 26.0294 18.8871 26.0534 18.8339H26.0512ZM26.4583 23.0048C26.1223 23.7384 25.7863 24.4713 25.4503 25.2034C24.8526 26.5078 24.2545 27.8133 23.6561 29.12C23.6236 29.1911 23.59 29.2611 23.5469 29.3535C23.5347 29.3407 23.5235 29.3271 23.5133 29.3126C23.4354 29.1402 23.3117 28.9727 23.2938 28.7941C23.277 28.6261 23.4153 28.4687 23.4886 28.3086C24.3749 26.3676 25.2627 24.4281 26.152 22.4902C26.1749 22.4189 26.2131 22.3535 26.264 22.2986C26.348 22.4823 26.432 22.6576 26.5082 22.834C26.535 22.899 26.488 22.951 26.4606 23.0048H26.4583ZM28.0442 23.4214C27.9546 23.2277 27.8846 23.072 27.8102 22.9174C27.771 22.8362 27.8174 22.7746 27.8471 22.7102C28.135 22.0819 28.4239 21.4544 28.714 20.8275C29.731 18.6174 30.7477 16.4071 31.7643 14.1966C31.7822 14.1579 31.8024 14.1198 31.8203 14.0801C31.8283 14.0574 31.8437 14.0382 31.8641 14.0255C31.8844 14.0128 31.9085 14.0073 31.9323 14.0101C32.0662 14.0101 32.1994 14.0101 32.3607 14.0101L28.0442 23.4214Z" fill="#990D81"/>
<path d="M9.273 38.0934L7.73972 42.2733L7.25644 43.5557C7.25028 43.573 6.28652 43.6083 6.28652 43.6083C6.28291 43.5845 6.27729 43.5611 6.26972 43.5383C5.82321 42.434 5.37596 41.3299 4.92796 40.2259C4.91508 40.194 4.90948 40.1559 4.86748 40.1464C4.86069 40.1568 4.85452 40.1677 4.849 40.1789L3.45964 43.6083H2.50764C2.52052 43.5366 2.47852 43.4784 2.45612 43.4168C2.20263 42.7336 1.94895 42.0521 1.69508 41.3722C1.349 40.4389 1.00273 39.5067 0.65628 38.5756L0.6518 38.5633L0.50396 38.1696L0.47876 38.1013C0.8842 38.1013 1.29076 38.1013 1.6962 38.0912C1.80316 38.0912 1.8278 38.1472 1.85748 38.2267C2.13524 38.9573 2.41431 39.6877 2.69468 40.418C2.79996 40.6901 2.90468 40.9623 3.02396 41.272C3.05812 41.1947 3.07996 41.1488 3.09844 41.104C3.48409 40.1568 3.86993 39.2108 4.25596 38.2659C4.33772 38.0665 4.2946 38.0979 4.5186 38.094C4.7986 38.094 5.0786 38.094 5.36252 38.094C5.52436 38.094 5.52492 38.094 5.58652 38.2463C5.955 39.1905 6.32329 40.135 6.6914 41.0799C6.71268 41.1359 6.73788 41.1919 6.77428 41.277C6.8062 41.202 6.83028 41.1561 6.84596 41.109L7.97604 38.2648C8.0438 38.0934 8.04436 38.0934 8.2202 38.0934H9.273Z" fill="#990D81"/>
<path d="M22.0512 41.5923C22.0512 40.4615 22.0512 39.3305 22.0512 38.1993C22.0512 38.0369 22.0512 38.0358 21.8922 38.0352C21.5562 38.0352 21.2202 38.0436 20.8842 38.0307C20.7246 38.0246 20.6355 38.0727 20.5538 38.2155C20.0402 39.1115 19.5161 40.0013 18.9942 40.8923C18.9622 40.9483 18.9421 41.0122 18.8732 41.0508C18.8368 40.9886 18.8049 40.9388 18.7758 40.8828C18.2718 39.9801 17.7711 39.0785 17.2744 38.1729C17.2554 38.1259 17.2215 38.0865 17.1779 38.0606C17.1343 38.0347 17.0834 38.0238 17.033 38.0296C16.6662 38.0386 16.2994 38.0296 15.9326 38.0335C15.6974 38.0335 15.7193 38.0055 15.7193 38.2508C15.7193 39.92 15.7193 41.5891 15.7193 43.2583C15.7193 43.3742 15.7221 43.4907 15.7238 43.6066H16.8998V40.3334C16.9591 40.3458 16.9675 40.3844 16.9838 40.4141C17.5572 41.4366 18.1303 42.4594 18.703 43.4823C18.7164 43.5093 18.728 43.5372 18.7377 43.5658C18.7909 43.5977 18.8127 43.5607 18.8357 43.5221L19.2002 42.9061C19.6856 42.0847 20.1718 41.2651 20.659 40.4471C20.6849 40.3823 20.7288 40.3263 20.7856 40.2858V40.4348C20.7856 41.4249 20.7856 42.4142 20.7856 43.4028C20.7856 43.47 20.789 43.5372 20.7906 43.6044H22.0394C22.0557 43.5391 22.0601 43.4713 22.0523 43.4045C22.052 42.8019 22.0516 42.1979 22.0512 41.5923Z" fill="#990D81"/>
<path d="M14.6955 42.504C13.5643 42.504 12.4329 42.504 11.3014 42.504C11.1289 42.504 11.1278 42.504 11.1272 42.3399C11.1272 42.0465 11.1272 41.7525 11.1272 41.459C11.1272 41.3 11.1272 41.2994 11.2868 41.2977H11.3781C12.0938 41.2977 12.8094 41.2977 13.5251 41.2977C13.6662 41.2977 13.6685 41.2977 13.669 41.1594C13.669 40.8968 13.669 40.6336 13.669 40.3704C13.669 40.1985 13.669 40.2136 13.505 40.2125C13.0771 40.2097 12.6487 40.2125 12.2209 40.2125C11.9028 40.2125 11.5847 40.2125 11.2689 40.2125C11.1322 40.2125 11.13 40.2091 11.1289 40.0685C11.1289 39.8238 11.1289 39.5791 11.1289 39.3344C11.1289 39.2078 11.1322 39.205 11.2633 39.205C11.6788 39.205 12.0949 39.205 12.511 39.205C13.2386 39.205 13.9666 39.205 14.695 39.205C14.8344 39.205 14.8361 39.205 14.8372 39.0633C14.8372 38.8063 14.8372 38.5493 14.8372 38.2928C14.8372 38.0861 14.8618 38.0968 14.6384 38.0968C13.1216 38.0968 11.6049 38.0968 10.0884 38.0968C9.81456 38.0968 9.85152 38.0665 9.85152 38.3264C9.85152 40.0874 9.85152 41.8488 9.85152 43.6105H14.9184C14.9184 43.3171 14.9251 43.0237 14.9251 42.7302C14.9218 42.4715 14.9486 42.5068 14.6955 42.504Z" fill="#990D81"/>
<path d="M52.9821 40.1996C53.8288 39.4884 54.6751 38.7766 55.5211 38.0643V38.0279C55.0171 38.0279 54.5181 38.0369 54.0169 38.0313C53.8836 38.0263 53.7533 38.0722 53.6524 38.1595C52.8844 38.7856 52.1137 39.4079 51.3401 40.0265C51.2965 40.0613 51.2634 40.1251 51.1822 40.1061V39.9577C51.1822 39.3641 51.1822 38.7706 51.1822 38.1774C51.1822 38.038 51.1794 38.0357 51.0394 38.0352C50.709 38.0352 50.3788 38.0352 50.0488 38.0352C49.9077 38.0352 49.9077 38.0352 49.9043 38.1757C49.9043 38.2121 49.9043 38.2491 49.9043 38.2877V43.0041C49.9043 43.1508 49.9082 43.2981 49.9043 43.4442C49.9009 43.5377 49.9312 43.573 50.0286 43.5719C50.3713 43.5669 50.7135 43.5674 51.0562 43.5719C51.1475 43.5719 51.1968 43.5495 51.185 43.4493C51.1827 43.412 51.1827 43.3745 51.185 43.3373C51.185 42.8291 51.185 42.3214 51.185 41.8141C51.185 41.7581 51.1705 41.6914 51.2315 41.6461C51.4376 41.4934 51.6429 41.3394 51.8475 41.1841C51.8551 41.1765 51.8643 41.1709 51.8745 41.1677C51.8846 41.1644 51.8954 41.1636 51.9059 41.1653C51.9165 41.167 51.9265 41.1711 51.9351 41.1774C51.9437 41.1837 51.9507 41.1919 51.9556 41.2014C51.978 41.2305 52.0015 41.2574 52.025 41.2871C52.619 42.0102 53.2126 42.7336 53.8058 43.4571C53.8316 43.4937 53.8662 43.5232 53.9064 43.5428C53.9467 43.5624 53.9913 43.5714 54.036 43.5691C54.4644 43.5629 54.8928 43.5691 55.3206 43.5652C55.3587 43.5652 55.4063 43.5887 55.4326 43.5394C55.4087 43.483 55.3732 43.4323 55.3285 43.3905C54.5377 42.4101 53.7465 41.4297 52.9546 40.4493C52.8454 40.3144 52.8185 40.3368 52.9821 40.1996Z" fill="#990D81"/>
<path d="M28.3478 42.9106C27.6142 41.3661 26.8823 39.8213 26.152 38.276C26.0837 38.1304 26.0059 38.08 25.8496 38.0901C25.6299 38.1035 25.4096 38.1035 25.19 38.0901C25.0421 38.0817 24.966 38.1293 24.9021 38.2687C24.3102 39.5623 23.7088 40.8515 23.1101 42.1428C22.8861 42.63 22.6621 43.1195 22.4409 43.6078H23.6522C23.8555 43.1967 24.0604 42.7874 24.2587 42.3758C24.3018 42.2867 24.3617 42.2716 24.4485 42.2722C24.9744 42.2722 25.5008 42.2722 26.0272 42.2722C26.1985 42.2722 26.3699 42.2722 26.5412 42.2722C26.5712 42.2687 26.6015 42.2752 26.6275 42.2905C26.6535 42.3059 26.6737 42.3294 26.6852 42.3573C26.8823 42.7577 27.0833 43.1559 27.2821 43.5557C27.287 43.5739 27.2887 43.5929 27.2872 43.6117H28.6457C28.6726 43.5557 28.6323 43.5193 28.6127 43.4773C28.5264 43.288 28.4368 43.0982 28.3478 42.9106ZM24.7408 41.2866L25.4918 39.816C25.7488 40.3273 25.9852 40.7994 26.2316 41.2899L24.7408 41.2866Z" fill="#990D81"/>
<path d="M35.8757 40.7848C35.8164 40.7451 35.743 40.7232 35.6982 40.6644C35.7027 40.6543 35.7038 40.6482 35.7077 40.6448C35.7318 40.6258 35.7559 40.6073 35.7805 40.5888C36.0919 40.3648 36.2756 40.0658 36.3013 39.6816C36.3573 38.887 35.9653 38.2979 35.1987 38.1097C34.9599 38.0558 34.7155 38.0308 34.4707 38.0352C33.3694 38.0352 32.268 38.0352 31.1667 38.0352C31.0054 38.0352 31.0032 38.0352 31.0032 38.1937C31.0032 39.9312 31.0032 41.6689 31.0032 43.4067C31.0032 43.5663 31.0032 43.5663 31.1639 43.568H31.2373C32.2654 43.568 33.2934 43.568 34.3212 43.568C34.5414 43.5693 34.7615 43.5577 34.9803 43.5333C35.8612 43.4319 36.5197 42.8333 36.4738 41.8427C36.4699 41.6305 36.4131 41.4227 36.3087 41.238C36.2043 41.0533 36.0555 40.8976 35.8757 40.7848ZM32.2805 39.2924C32.2805 39.1586 32.2839 39.1541 32.4082 39.1541C33.0623 39.1541 33.7167 39.155 34.3716 39.1569C34.4941 39.1553 34.6161 39.1725 34.7333 39.2079C34.9433 39.2751 35.0352 39.4145 35.0318 39.6559C35.0285 39.8838 34.931 40.0199 34.7283 40.0826C34.5802 40.1217 34.4272 40.1386 34.2741 40.133C33.9986 40.1358 33.7237 40.133 33.4481 40.133C33.106 40.133 32.7633 40.133 32.4205 40.133C32.2833 40.133 32.2817 40.1296 32.2805 39.9885C32.279 39.757 32.279 39.525 32.2805 39.2924ZM34.8817 42.3439C34.665 42.4441 34.4304 42.448 34.1985 42.4559C33.9477 42.4626 33.6945 42.4559 33.4459 42.4559C33.1099 42.4559 32.7739 42.4559 32.4379 42.4559C32.2839 42.4559 32.2817 42.4559 32.2811 42.3091C32.2811 41.9967 32.2811 41.6847 32.2811 41.3728C32.2811 41.2855 32.3097 41.2563 32.397 41.2569C33.069 41.2608 33.741 41.2569 34.413 41.2647C34.5603 41.2661 34.7062 41.2932 34.8442 41.3448C35.0637 41.4271 35.169 41.5923 35.1802 41.8231C35.1914 42.0538 35.1035 42.2419 34.8817 42.3439Z" fill="#990D81"/>
<path d="M48.9882 38.0329C48.7004 38.038 48.4131 38.0329 48.1253 38.0329C47.9147 38.0329 47.9298 38.0156 47.9298 38.2334C47.9298 39.2119 47.9298 40.1906 47.9298 41.1695C47.9298 41.2306 47.9506 41.2989 47.8906 41.3711C47.8386 41.3118 47.796 41.2591 47.7489 41.2115C46.7503 40.1938 45.7522 39.1761 44.7546 38.1584C44.7177 38.115 44.6711 38.0808 44.6186 38.0585C44.5661 38.0363 44.5091 38.0266 44.4522 38.0302C44.2137 38.0391 43.9751 38.0301 43.7366 38.0329C43.5126 38.0329 43.5243 38.0089 43.5243 38.2357V43.3558C43.5243 43.3927 43.5243 43.4291 43.5243 43.4678C43.5204 43.535 43.5462 43.5686 43.6184 43.568C43.9488 43.568 44.2792 43.568 44.6096 43.568C44.6779 43.568 44.7132 43.545 44.7109 43.4739C44.7109 43.4246 44.7109 43.3759 44.7109 43.3266C44.7109 42.3422 44.7109 41.3573 44.7109 40.3721C44.7025 40.3059 44.7072 40.2387 44.7249 40.1744C44.7877 40.1806 44.8112 40.2304 44.8437 40.2612C45.0638 40.4818 45.2822 40.7047 45.5017 40.9265C46.335 41.771 47.1682 42.616 48.0015 43.4616C48.033 43.4979 48.0724 43.5264 48.1167 43.5451C48.1609 43.5637 48.2089 43.5719 48.2569 43.5691C48.4809 43.5618 48.7099 43.5691 48.9362 43.5691C49.1148 43.5691 49.1148 43.5691 49.1165 43.3888V38.267C49.1165 38.2301 49.1137 38.1931 49.1165 38.155C49.1254 38.061 49.0829 38.0313 48.9882 38.0329Z" fill="#990D81"/>
<path d="M41.8268 41.188C41.3497 40.1834 40.8734 39.1787 40.3977 38.1741C40.3501 38.0727 40.2952 38.0274 40.1788 38.0318C39.9284 38.0408 39.6748 38.0419 39.4273 38.0318C39.3046 38.0268 39.2447 38.0671 39.1932 38.1791C38.3905 39.9211 37.5854 41.662 36.7779 43.4017C36.7561 43.4493 36.7141 43.4935 36.7393 43.5697C37.101 43.5697 37.4673 43.5697 37.8318 43.5697C37.922 43.5697 37.9438 43.5086 37.9713 43.4498C38.1544 43.0836 38.3414 42.7218 38.5184 42.35C38.5348 42.3053 38.5659 42.2676 38.6066 42.2429C38.6473 42.2182 38.6952 42.208 38.7424 42.2139C39.4088 42.219 40.0752 42.2201 40.7416 42.2139C40.8693 42.2139 40.9365 42.2498 40.9919 42.3685C41.1633 42.733 41.3497 43.0909 41.5306 43.451C41.5603 43.5109 41.5804 43.5708 41.67 43.5702C42.0856 43.5663 42.5011 43.5702 42.9306 43.5702C42.9264 43.5073 42.9072 43.4462 42.8746 43.3922C42.5248 42.6563 42.1755 41.9216 41.8268 41.188ZM39.0476 41.244C39.0616 41.1208 39.6076 40.0271 39.7756 39.788L40.5075 41.244H39.0476Z" fill="#990D81"/>
</svg>
