<svg width="56" height="56" viewBox="0 0 56 56" fill="none" xmlns="http://www.w3.org/2000/svg">
<g clip-path="url(#clip0_677_6543)">
<mask id="mask0_677_6543" style="mask-type:luminance" maskUnits="userSpaceOnUse" x="0" y="0" width="56" height="56">
<path d="M0 0H56V56H0V0Z" fill="white"/>
</mask>
<g mask="url(#mask0_677_6543)">
<path fill-rule="evenodd" clip-rule="evenodd" d="M5.67823 15.4323L5.77613 15.0627L5.87403 14.6007L10.1817 0L55.9999 0.0924092L5.38452 38.9967L28.4894 12.6601H11.1607L10.1817 12.7525C8.12578 12.8449 6.26564 14.0462 5.67823 15.4323Z" fill="#808285"/>
<path fill-rule="evenodd" clip-rule="evenodd" d="M53.5524 26.7063C53.5524 26.5215 52.0839 34.9307 49.6363 43.6172L1.76221 43.8944L53.4545 4.43567L30.2517 30.9571H47.6783L48.6573 30.8647C50.7133 30.7723 52.8671 28.0924 53.5524 26.7063Z" fill="#ED1C24"/>
<path fill-rule="evenodd" clip-rule="evenodd" d="M8.12587 56H0L5.58042 48.7921H1.86014L2.15385 46.7591H9.88811L4.30769 53.967H8.41958L8.12587 56ZM9.69231 56L10.965 46.7591H16.5455L16.2517 48.7921H13.1189L12.9231 50.3631H15.8601L15.6643 52.3961H12.6294L12.4336 53.967H15.5664L15.2727 56H9.69231ZM16.9371 56L18.2098 46.7591H20.6573L23.4965 51.5644L23.6923 52.1188L24.0839 53.1353C24.0897 52.549 24.1224 51.9632 24.1818 51.3796L24.7692 46.7591H27.2168L25.9441 56H23.5944L20.7552 51.2871L20.4615 50.6403L20.0699 49.6238C20.0649 50.2409 20.0322 50.8575 19.972 51.472L19.3846 56H16.9371ZM28 56L29.2727 46.7591H31.8182L30.5455 56H28ZM33.8741 56L34.8531 48.9769H32.7972L33.0909 46.7591H39.7483L39.4545 48.9769H37.3986L36.4196 56H33.8741ZM39.6503 56L40.9231 46.7591H43.4685L42.979 50.3631H46.3077L46.7972 46.7591H49.3427L48.0699 56H45.5245L46.014 52.2112H42.6853L42.1958 56H39.6503Z" fill="#808285"/>
</g>
</g>
<defs>
<clipPath id="clip0_677_6543">
<rect width="56" height="56" fill="white"/>
</clipPath>
</defs>
</svg>
